<svg id="Layer_2" data-name="Layer 2" xmlns="http://www.w3.org/2000/svg" viewBox="0 0 212 39"><defs><style>.cls-1{fill:#fff;}</style></defs><title>alphabounce_on</title><rect y="-0.5" width="212" height="40"/><polygon class="cls-1" points="182.61 25.29 180.68 23.15 184.7 19.5 180.68 15.85 182.61 13.71 188.99 19.5 182.61 25.29"/><path class="cls-1" d="M29.46,21.44a2.52,2.52,0,0,1-.24,1.12,2.49,2.49,0,0,1-.67.84,3,3,0,0,1-1,.52,4.56,4.56,0,0,1-1.31.18,5.25,5.25,0,0,1-1.78-.27A3.8,3.8,0,0,1,23,22.9l.9-.9a2.8,2.8,0,0,0,1.07.69,3.87,3.87,0,0,0,1.26.19,2.27,2.27,0,0,0,1.38-.36,1.22,1.22,0,0,0,.48-1,1.19,1.19,0,0,0-.35-.94,1.89,1.89,0,0,0-1-.38L25.69,20a3.08,3.08,0,0,1-1.7-.73,2.21,2.21,0,0,1-.68-1.74,2.69,2.69,0,0,1,.21-1.07,2.4,2.4,0,0,1,.6-.84,2.75,2.75,0,0,1,.95-.54,4.09,4.09,0,0,1,1.27-.19,4.59,4.59,0,0,1,1.57.24,3.78,3.78,0,0,1,1.23.79l-.86.86a2.23,2.23,0,0,0-.91-.55,3.71,3.71,0,0,0-1.08-.14,1.72,1.72,0,0,0-1.22.39,1.33,1.33,0,0,0-.42,1,1.45,1.45,0,0,0,.07.47.83.83,0,0,0,.26.36,1.28,1.28,0,0,0,.4.25,2.24,2.24,0,0,0,.59.16l1.08.17a4.53,4.53,0,0,1,1,.25,2,2,0,0,1,.67.42A2.36,2.36,0,0,1,29.46,21.44Z"/><path class="cls-1" d="M36.35,24V20.07H32.68V24H31.3V15h1.38v3.86h3.67V15h1.37v9Z"/><path class="cls-1" d="M46.25,19.5c0,.47,0,.89,0,1.25a5.57,5.57,0,0,1-.1,1,2.9,2.9,0,0,1-.28.78,2.63,2.63,0,0,1-.51.68,3,3,0,0,1-1,.68,3.75,3.75,0,0,1-2.64,0,3,3,0,0,1-1-.68,2.63,2.63,0,0,1-.51-.68,3.27,3.27,0,0,1-.27-.78,5.52,5.52,0,0,1-.11-1c0-.36,0-.78,0-1.25s0-.89,0-1.25a5.52,5.52,0,0,1,.11-1,3.27,3.27,0,0,1,.27-.78,2.81,2.81,0,0,1,.51-.68,3,3,0,0,1,1-.68,3.75,3.75,0,0,1,2.64,0,3,3,0,0,1,1,.68,2.81,2.81,0,0,1,.51.68,2.9,2.9,0,0,1,.28.78,5.57,5.57,0,0,1,.1,1C46.25,18.61,46.25,19,46.25,19.5Zm-1.37,0c0-.45,0-.83,0-1.13a7.05,7.05,0,0,0-.07-.77,1.94,1.94,0,0,0-.17-.53,1.7,1.7,0,0,0-.27-.39A1.81,1.81,0,0,0,43,16.12a1.77,1.77,0,0,0-1.34.56,1.75,1.75,0,0,0-.28.39,2.22,2.22,0,0,0-.16.53,5.08,5.08,0,0,0-.08.77c0,.3,0,.68,0,1.13s0,.82,0,1.12a4.94,4.94,0,0,0,.08.77,2.08,2.08,0,0,0,.16.53,1.75,1.75,0,0,0,.28.39,1.81,1.81,0,0,0,.59.42,1.95,1.95,0,0,0,1.5,0,2,2,0,0,0,.6-.42,1.7,1.7,0,0,0,.27-.39,2,2,0,0,0,.17-.52,6.82,6.82,0,0,0,.07-.77C44.88,20.33,44.88,20,44.88,19.5Z"/><path class="cls-1" d="M54.61,17.72a2.94,2.94,0,0,1-.2,1.09,2.58,2.58,0,0,1-.59.87,2.81,2.81,0,0,1-.91.57,3.25,3.25,0,0,1-1.2.2H49.66V24H48.29V15h3.42a3.25,3.25,0,0,1,1.2.21,2.81,2.81,0,0,1,.91.57,2.4,2.4,0,0,1,.59.87A3,3,0,0,1,54.61,17.72Zm-1.37,0a1.45,1.45,0,0,0-.44-1.12,1.68,1.68,0,0,0-1.16-.39h-2v3h2a1.68,1.68,0,0,0,1.16-.39A1.44,1.44,0,0,0,53.24,17.72Z"/><path class="cls-1" d="M93.52,24l-.62-1.81H89.33L88.7,24H87.24l3.32-9h1.1L95,24Zm-2.38-7-1.41,4h2.78Z"/><path class="cls-1" d="M96.26,24V15h1.37v7.81H102V24Z"/><path class="cls-1" d="M109.88,17.72a2.75,2.75,0,0,1-.21,1.09,2.55,2.55,0,0,1-.58.87,2.81,2.81,0,0,1-.91.57,3.29,3.29,0,0,1-1.2.2h-2.06V24h-1.37V15H107a3.29,3.29,0,0,1,1.2.21,2.81,2.81,0,0,1,.91.57,2.38,2.38,0,0,1,.58.87A2.82,2.82,0,0,1,109.88,17.72Zm-1.37,0a1.45,1.45,0,0,0-.44-1.12,1.68,1.68,0,0,0-1.16-.39h-2v3h2a1.68,1.68,0,0,0,1.16-.39A1.44,1.44,0,0,0,108.51,17.72Z"/><path class="cls-1" d="M116.58,24V20.07h-3.67V24h-1.37V15h1.37v3.86h3.67V15H118v9Z"/><path class="cls-1" d="M125.51,24l-.62-1.81h-3.57L120.7,24h-1.46l3.31-9h1.11L127,24Zm-2.37-7-1.41,4h2.78Z"/><path class="cls-1" d="M134.65,21.47a2.73,2.73,0,0,1-.21,1.1,2.18,2.18,0,0,1-.56.8,2.46,2.46,0,0,1-.87.49,3.48,3.48,0,0,1-1.1.16h-3.65V15h3.52a2.89,2.89,0,0,1,2,.66,2.36,2.36,0,0,1,.73,1.82,2,2,0,0,1-.11.67,2.26,2.26,0,0,1-.28.56,1.75,1.75,0,0,1-.39.42,1.54,1.54,0,0,1-.44.26,2.32,2.32,0,0,1,.5.29,2,2,0,0,1,.44.44,2.18,2.18,0,0,1,.3.59A2.37,2.37,0,0,1,134.65,21.47Zm-1.52-4a1.17,1.17,0,0,0-.4-1,1.65,1.65,0,0,0-1.07-.33h-2V18.8h2a1.65,1.65,0,0,0,1.07-.33A1.16,1.16,0,0,0,133.13,17.51Zm.14,3.9a1.34,1.34,0,0,0-.38-1,1.5,1.5,0,0,0-1.1-.38h-2.16v2.76h2.16a1.46,1.46,0,0,0,1.1-.39A1.33,1.33,0,0,0,133.27,21.41Z"/><path class="cls-1" d="M142.85,19.5c0,.47,0,.89,0,1.25a5.52,5.52,0,0,1-.11,1,3.27,3.27,0,0,1-.27.78,2.63,2.63,0,0,1-.51.68,3,3,0,0,1-1,.68,3.75,3.75,0,0,1-2.64,0,3,3,0,0,1-1-.68,2.63,2.63,0,0,1-.51-.68,3.28,3.28,0,0,1-.28-.78,6.74,6.74,0,0,1-.1-1c0-.36,0-.78,0-1.25s0-.89,0-1.25a6.74,6.74,0,0,1,.1-1,3.28,3.28,0,0,1,.28-.78,2.81,2.81,0,0,1,.51-.68,3,3,0,0,1,1-.68,3.75,3.75,0,0,1,2.64,0,3,3,0,0,1,1,.68,2.81,2.81,0,0,1,.51.68,3.27,3.27,0,0,1,.27.78,5.52,5.52,0,0,1,.11,1C142.84,18.61,142.85,19,142.85,19.5Zm-1.37,0c0-.45,0-.83,0-1.13a5.08,5.08,0,0,0-.08-.77,1.66,1.66,0,0,0-.16-.53,1.7,1.7,0,0,0-.27-.39,1.91,1.91,0,0,0-2.7,0,1.7,1.7,0,0,0-.27.39,2.2,2.2,0,0,0-.17.53,7.05,7.05,0,0,0-.07.77c0,.3,0,.68,0,1.13s0,.82,0,1.12a6.82,6.82,0,0,0,.07.77,2.06,2.06,0,0,0,.17.53,1.7,1.7,0,0,0,.27.39,2,2,0,0,0,.6.42,2,2,0,0,0,1.5,0,2,2,0,0,0,.6-.42,1.7,1.7,0,0,0,.27-.39,1.68,1.68,0,0,0,.16-.52,4.94,4.94,0,0,0,.08-.77C141.47,20.33,141.48,20,141.48,19.5Z"/><path class="cls-1" d="M151.23,21a3.32,3.32,0,0,1-.24,1.28,2.89,2.89,0,0,1-.69,1,3,3,0,0,1-1,.64,3.7,3.7,0,0,1-2.57,0,2.94,2.94,0,0,1-1-.64,2.87,2.87,0,0,1-.68-1,3.32,3.32,0,0,1-.25-1.28V15h1.38v5.93a2,2,0,0,0,.5,1.44,1.86,1.86,0,0,0,1.36.52,1.88,1.88,0,0,0,1.37-.52,2,2,0,0,0,.51-1.44V15h1.37Z"/><path class="cls-1" d="M159,24l-4.18-6.36V24h-1.37V15h1.25l4.18,6.35V15h1.38v9Z"/><path class="cls-1" d="M168.78,21.32a3.39,3.39,0,0,1-1.12,2.06,3.19,3.19,0,0,1-2.11.72,3.38,3.38,0,0,1-1.32-.24,3,3,0,0,1-1-.68,2.63,2.63,0,0,1-.51-.68,2.9,2.9,0,0,1-.28-.78,6.74,6.74,0,0,1-.1-1c0-.36,0-.78,0-1.25s0-.89,0-1.25a6.74,6.74,0,0,1,.1-1,2.9,2.9,0,0,1,.28-.78,2.81,2.81,0,0,1,.51-.68,3,3,0,0,1,1-.68,3.38,3.38,0,0,1,1.32-.24,3.2,3.2,0,0,1,2.12.72,3.38,3.38,0,0,1,1.11,2.06h-1.4a2.19,2.19,0,0,0-.61-1.13,1.9,1.9,0,0,0-2.55.13,1.28,1.28,0,0,0-.28.39,2.2,2.2,0,0,0-.17.53,5.08,5.08,0,0,0-.08.77c0,.3,0,.68,0,1.13s0,.83,0,1.13a4.94,4.94,0,0,0,.08.77,2.2,2.2,0,0,0,.17.53,1.28,1.28,0,0,0,.28.39,1.91,1.91,0,0,0,2.56.13,2.27,2.27,0,0,0,.62-1.13Z"/><path class="cls-1" d="M170.6,24V15h5.78v1.23H172v2.64h3.76v1.22H172v2.72h4.4V24Z"/><path class="cls-1" d="M64.92,24V18l-2.09,4.4h-1L59.68,18v6H58.31V15h1.37l2.65,5.63L64.92,15h1.37v9Z"/><path class="cls-1" d="M68.64,24V15h5.78v1.23H70v2.64h3.76v1.22H70v2.72h4.41V24Z"/><path class="cls-1" d="M81.85,24l-4.18-6.36V24H76.3V15h1.26l4.17,6.35V15h1.38v9Z"/></svg>