<svg xmlns="http://www.w3.org/2000/svg" viewBox="0 0 212 39"><defs><style>.cls-1{fill:#fff;}</style></defs><title>alphabounce_off</title><g id="Layer_2" data-name="Layer 2"><rect class="cls-1" x="0.5" width="211" height="39"/><path d="M211,.5v38H1V.5H211m1-1H0v40H212V-.5Z"/></g><g id="Layer_1" data-name="Layer 1"><polygon points="181.62 25.55 179.68 23.42 183.71 19.77 179.68 16.12 181.62 13.98 188 19.77 181.62 25.55"/><path d="M28.47,21.71a2.56,2.56,0,0,1-.24,1.12,2.49,2.49,0,0,1-.67.84,3.22,3.22,0,0,1-1,.52,4.94,4.94,0,0,1-1.31.17,5.63,5.63,0,0,1-1.79-.26A3.84,3.84,0,0,1,22,23.17l.9-.9A2.66,2.66,0,0,0,24,23a3.86,3.86,0,0,0,1.25.19,2.28,2.28,0,0,0,1.39-.36,1.21,1.21,0,0,0,.48-1,1.18,1.18,0,0,0-.35-.94,1.81,1.81,0,0,0-1-.38l-1.06-.16a3,3,0,0,1-1.7-.72,2.24,2.24,0,0,1-.68-1.74,2.65,2.65,0,0,1,.21-1.07,2.31,2.31,0,0,1,.6-.84,2.75,2.75,0,0,1,.95-.54,3.81,3.81,0,0,1,1.27-.19,4.49,4.49,0,0,1,1.56.24,3.57,3.57,0,0,1,1.24.79l-.86.86a2.26,2.26,0,0,0-.92-.55,3.69,3.69,0,0,0-1.07-.15,1.66,1.66,0,0,0-1.22.4,1.32,1.32,0,0,0-.42,1,1.41,1.41,0,0,0,.07.47.81.81,0,0,0,.26.37,1.8,1.8,0,0,0,.4.25A3.2,3.2,0,0,0,25,19l1.08.16a4.47,4.47,0,0,1,1,.26,2.28,2.28,0,0,1,.67.41A2.4,2.4,0,0,1,28.47,21.71Z"/><path d="M35.35,24.29V20.34H31.68v3.95H30.31v-9h1.37v3.87h3.67V15.24h1.38v9Z"/><path d="M45.26,19.77c0,.47,0,.89,0,1.25a6.45,6.45,0,0,1-.1,1,3,3,0,0,1-.28.78,2.67,2.67,0,0,1-.51.69,3.14,3.14,0,0,1-1,.68,3.9,3.9,0,0,1-2.64,0,3.14,3.14,0,0,1-1-.68,2.67,2.67,0,0,1-.51-.69,3,3,0,0,1-.27-.78,5.29,5.29,0,0,1-.11-1c0-.36,0-.78,0-1.25s0-.89,0-1.26a5.4,5.4,0,0,1,.11-1,3.27,3.27,0,0,1,.27-.78,2.67,2.67,0,0,1,.51-.69,3.31,3.31,0,0,1,1-.68,3.9,3.9,0,0,1,2.64,0,3.31,3.31,0,0,1,1,.68,2.67,2.67,0,0,1,.51.69,3.28,3.28,0,0,1,.28.78,6.59,6.59,0,0,1,.1,1C45.26,18.88,45.26,19.29,45.26,19.77Zm-1.37,0c0-.45,0-.83,0-1.13a7,7,0,0,0-.07-.78,2.06,2.06,0,0,0-.17-.53,1.65,1.65,0,0,0-.27-.38,1.91,1.91,0,0,0-2.7,0,1.7,1.7,0,0,0-.27.39,1.75,1.75,0,0,0-.16.53,4.8,4.8,0,0,0-.08.77c0,.3,0,.68,0,1.13s0,.82,0,1.12a5.08,5.08,0,0,0,.08.77,1.75,1.75,0,0,0,.16.53,1.65,1.65,0,0,0,.27.38,1.81,1.81,0,0,0,.6.42,2,2,0,0,0,1.5,0,1.81,1.81,0,0,0,.6-.42,1.65,1.65,0,0,0,.27-.38,2.06,2.06,0,0,0,.17-.53,6.62,6.62,0,0,0,.07-.76C43.88,20.59,43.89,20.22,43.89,19.77Z"/><path d="M53.62,18a2.94,2.94,0,0,1-.2,1.09,2.45,2.45,0,0,1-.59.86,2.68,2.68,0,0,1-.91.58,3.51,3.51,0,0,1-1.2.2h-2v3.57H47.29v-9h3.43a3.29,3.29,0,0,1,1.2.21,2.68,2.68,0,0,1,.91.58,2.4,2.4,0,0,1,.59.87A3,3,0,0,1,53.62,18Zm-1.37,0a1.42,1.42,0,0,0-.44-1.12,1.68,1.68,0,0,0-1.16-.39h-2v3h2a1.68,1.68,0,0,0,1.16-.39A1.45,1.45,0,0,0,52.25,18Z"/><path d="M63.53,24.29l-.63-1.82H59.34l-.63,1.82H57.25l3.32-9h1.1l3.32,9Zm-2.38-7-1.41,4h2.78Z"/><path d="M66.27,24.29v-9h1.37v7.82H72v1.23Z"/><path d="M79.89,18a2.75,2.75,0,0,1-.21,1.09,2.42,2.42,0,0,1-.58.86,2.72,2.72,0,0,1-.92.58,3.41,3.41,0,0,1-1.19.2H74.93v3.57H73.56v-9H77a3.19,3.19,0,0,1,1.19.21,2.72,2.72,0,0,1,.92.58,2.38,2.38,0,0,1,.58.87A2.79,2.79,0,0,1,79.89,18Zm-1.38,0a1.42,1.42,0,0,0-.43-1.12,1.7,1.7,0,0,0-1.17-.39h-2v3h2a1.7,1.7,0,0,0,1.17-.39A1.45,1.45,0,0,0,78.51,18Z"/><path d="M86.59,24.29V20.34H82.92v3.95H81.55v-9h1.37v3.87h3.67V15.24H88v9Z"/><path d="M95.52,24.29l-.62-1.82H91.33l-.62,1.82H89.25l3.31-9h1.11l3.31,9Zm-2.37-7-1.41,4h2.78Z"/><path d="M104.65,21.73a2.67,2.67,0,0,1-.2,1.1,2.1,2.1,0,0,1-.56.8,2.32,2.32,0,0,1-.87.49,3.48,3.48,0,0,1-1.1.17H98.27v-9h3.51a2.86,2.86,0,0,1,2,.66,2.34,2.34,0,0,1,.73,1.82,2.11,2.11,0,0,1-.1.68,2.44,2.44,0,0,1-.28.56,2.62,2.62,0,0,1-.39.42,1.82,1.82,0,0,1-.44.26,2.26,2.26,0,0,1,.5.28,2.62,2.62,0,0,1,.44.44,2.4,2.4,0,0,1,.3.6A2.35,2.35,0,0,1,104.65,21.73Zm-1.51-4a1.16,1.16,0,0,0-.4-1,1.65,1.65,0,0,0-1.07-.33h-2v2.59h2a1.65,1.65,0,0,0,1.07-.33A1.17,1.17,0,0,0,103.14,17.77Zm.14,3.9a1.3,1.3,0,0,0-.38-1,1.5,1.5,0,0,0-1.1-.38H99.64v2.76h2.16a1.46,1.46,0,0,0,1.1-.39A1.34,1.34,0,0,0,103.28,21.67Z"/><path d="M112.86,19.77c0,.47,0,.89,0,1.25a5.29,5.29,0,0,1-.11,1,3,3,0,0,1-.27.78,2.67,2.67,0,0,1-.51.69,3.14,3.14,0,0,1-1,.68,3.9,3.9,0,0,1-2.64,0,3.14,3.14,0,0,1-1-.68,2.9,2.9,0,0,1-.79-1.47,5.35,5.35,0,0,1-.1-1c0-.36,0-.78,0-1.25s0-.89,0-1.26a5.45,5.45,0,0,1,.1-1,2.9,2.9,0,0,1,.28-.78,2.67,2.67,0,0,1,.51-.69,3.31,3.31,0,0,1,1-.68,3.9,3.9,0,0,1,2.64,0,3.31,3.31,0,0,1,1,.68,2.67,2.67,0,0,1,.51.69,3.27,3.27,0,0,1,.27.78,5.4,5.4,0,0,1,.11,1C112.85,18.88,112.86,19.29,112.86,19.77Zm-1.37,0c0-.45,0-.83,0-1.13a5.08,5.08,0,0,0-.08-.78,2.08,2.08,0,0,0-.16-.53A1.69,1.69,0,0,0,111,17a1.74,1.74,0,0,0-1.34-.56,1.77,1.77,0,0,0-1.35.56,1.7,1.7,0,0,0-.27.39,2.06,2.06,0,0,0-.17.53,6.6,6.6,0,0,0-.07.77c0,.3,0,.68,0,1.13s0,.82,0,1.12a7.05,7.05,0,0,0,.07.77,2.06,2.06,0,0,0,.17.53,1.65,1.65,0,0,0,.27.38,1.81,1.81,0,0,0,.6.42,2,2,0,0,0,1.5,0,1.67,1.67,0,0,0,.59-.42,1.69,1.69,0,0,0,.28-.38,2.08,2.08,0,0,0,.16-.53,4.79,4.79,0,0,0,.08-.76C111.48,20.59,111.49,20.22,111.49,19.77Z"/><path d="M121.24,21.24a3.32,3.32,0,0,1-.24,1.28,3,3,0,0,1-.69,1,3.31,3.31,0,0,1-1,.64,3.55,3.55,0,0,1-1.28.22,3.59,3.59,0,0,1-1.28-.22,3.26,3.26,0,0,1-1-.64,3,3,0,0,1-.68-1,3.32,3.32,0,0,1-.25-1.28v-6h1.37v5.94a2,2,0,0,0,.51,1.43,1.8,1.8,0,0,0,1.36.52,1.84,1.84,0,0,0,1.37-.52,2,2,0,0,0,.51-1.43V15.24h1.37Z"/><path d="M129,24.29l-4.18-6.37v6.37h-1.37v-9h1.25l4.18,6.36V15.24h1.37v9Z"/><path d="M138.78,21.58a3.33,3.33,0,0,1-1.11,2.07,3.19,3.19,0,0,1-2.11.71,3.38,3.38,0,0,1-1.32-.23,3.14,3.14,0,0,1-1-.68,2.9,2.9,0,0,1-.79-1.47,5.35,5.35,0,0,1-.1-1c0-.36,0-.78,0-1.25s0-.89,0-1.26a5.45,5.45,0,0,1,.1-1,2.9,2.9,0,0,1,.28-.78,2.67,2.67,0,0,1,.51-.69,3.31,3.31,0,0,1,1-.68,3.58,3.58,0,0,1,1.32-.23,3.2,3.2,0,0,1,2.12.72,3.32,3.32,0,0,1,1.1,2.06h-1.39a2.15,2.15,0,0,0-.61-1.13,1.7,1.7,0,0,0-1.22-.43,1.74,1.74,0,0,0-1.34.56,1.44,1.44,0,0,0-.27.39,2.06,2.06,0,0,0-.17.53,4.8,4.8,0,0,0-.08.77c0,.3,0,.68,0,1.13s0,.82,0,1.13a4.79,4.79,0,0,0,.08.76,2.06,2.06,0,0,0,.17.53,1.34,1.34,0,0,0,.27.4,1.76,1.76,0,0,0,1.34.55,1.7,1.7,0,0,0,1.22-.43,2.13,2.13,0,0,0,.63-1.13Z"/><path d="M140.61,24.29v-9h5.78v1.24H142v2.64h3.75v1.22H142v2.72h4.4v1.23Z"/><path d="M157.93,24.29V18.24l-2.09,4.41h-1l-2.14-4.41v6.05h-1.37v-9h1.37l2.65,5.63,2.59-5.63h1.37v9Z"/><path d="M161.65,24.29v-9h5.78v1.24H163v2.64h3.76v1.22H163v2.72h4.41v1.23Z"/><path d="M174.86,24.29l-4.18-6.37v6.37h-1.37v-9h1.25l4.18,6.36V15.24h1.38v9Z"/></g></svg>