<svg xmlns="http://www.w3.org/2000/svg" viewBox="0 0 212 39"><defs><style>.cls-1{fill:#ccc;}</style></defs><title>alphabounce_on</title><g id="Layer_2" data-name="Layer 2"><rect class="cls-1" y="-0.5" width="212" height="40"/></g><g id="Layer_1" data-name="Layer 1"><path d="M38.11,22.25A6.55,6.55,0,0,1,38,23.84a2.17,2.17,0,0,1-.62,1.08,2.83,2.83,0,0,1-1,.58,3.92,3.92,0,0,1-1.4.22,3.17,3.17,0,0,1-2.35-.8,2.36,2.36,0,0,1-.61-1,6,6,0,0,1-.17-1.57h1.9a4.35,4.35,0,0,0,.07.81,1.35,1.35,0,0,0,.27.55,1.25,1.25,0,0,0,.35.23A1.37,1.37,0,0,0,35,24a1.18,1.18,0,0,0,.92-.34,1.22,1.22,0,0,0,.25-.54,3.63,3.63,0,0,0,.07-.81,6.07,6.07,0,0,0,0-.8A1.5,1.5,0,0,0,36,21a1.23,1.23,0,0,0-.35-.37,2.84,2.84,0,0,0-.58-.29l-1.44-.59a3.89,3.89,0,0,1-.79-.43,1.89,1.89,0,0,1-.51-.58,2.6,2.6,0,0,1-.29-.84,5.87,5.87,0,0,1-.1-1.19,4,4,0,0,1,.25-1.47,2.65,2.65,0,0,1,.74-1.1,2.85,2.85,0,0,1,.91-.54A3.25,3.25,0,0,1,35,13.4a3,3,0,0,1,2.18.73,2.38,2.38,0,0,1,.66,1.11A5.4,5.4,0,0,1,38,16.76H36.12a4.12,4.12,0,0,0,0-.73,1.21,1.21,0,0,0-.23-.56,1,1,0,0,0-.85-.36,1.15,1.15,0,0,0-.49.1,1,1,0,0,0-.33.24,1.78,1.78,0,0,0-.32,1.19,5.53,5.53,0,0,0,0,.63,1,1,0,0,0,.45.75,2.28,2.28,0,0,0,.52.26l1.43.57a4.18,4.18,0,0,1,.9.5,2,2,0,0,1,.56.66A3,3,0,0,1,38,21,9.51,9.51,0,0,1,38.11,22.25Z"/><path d="M44.05,25.6V20.32H41.68V25.6h-1.9V13.5h1.9v5.1h2.37V13.5H46V25.6Z"/><path d="M54.13,19.55c0,.72,0,1.34,0,1.88A13.49,13.49,0,0,1,54,22.85a4.47,4.47,0,0,1-.26,1,2.73,2.73,0,0,1-.49.8,3.11,3.11,0,0,1-.93.74,3,3,0,0,1-1.41.3,3,3,0,0,1-1.41-.3,3,3,0,0,1-.94-.74,2.61,2.61,0,0,1-.47-.81,4.72,4.72,0,0,1-.27-1.05,12.85,12.85,0,0,1-.12-1.41c0-.54,0-1.16,0-1.88s0-1.34,0-1.88a12.85,12.85,0,0,1,.12-1.41,4.72,4.72,0,0,1,.27-1.05,2.73,2.73,0,0,1,.47-.81,3.18,3.18,0,0,1,.94-.74,3,3,0,0,1,1.41-.3,3,3,0,0,1,1.41.3,3.27,3.27,0,0,1,.93.74,2.73,2.73,0,0,1,.49.8A4.6,4.6,0,0,1,54,16.25a13.49,13.49,0,0,1,.11,1.42C54.12,18.21,54.13,18.84,54.13,19.55Zm-1.91,0c0-1.11,0-2-.06-2.62a3.26,3.26,0,0,0-.34-1.39,1,1,0,0,0-.36-.33,1.08,1.08,0,0,0-.56-.13,1.06,1.06,0,0,0-.56.13,1,1,0,0,0-.34.33,3.1,3.1,0,0,0-.35,1.39c0,.64-.08,1.51-.08,2.62s0,2,.08,2.62A3.1,3.1,0,0,0,50,23.56a1,1,0,0,0,.34.33,1.06,1.06,0,0,0,.56.13,1.08,1.08,0,0,0,.56-.13,1,1,0,0,0,.36-.33,3.26,3.26,0,0,0,.34-1.39C52.2,21.54,52.22,20.66,52.22,19.55Z"/><path d="M62,17.19A4.39,4.39,0,0,1,61.27,20a2.92,2.92,0,0,1-2.38.88H57.75V25.6H55.84V13.5h3a2.92,2.92,0,0,1,2.38.89A4.45,4.45,0,0,1,62,17.19Zm-1.91,0a3.4,3.4,0,0,0-.25-1.45,1,1,0,0,0-1-.52H57.75v3.92h1.07a1,1,0,0,0,1-.52A3.28,3.28,0,0,0,60.09,17.19Z"/><path d="M71.54,25.6,71,23.21h-2.8l-.48,2.39h-2l3-12.1h1.85l2.94,12.1Zm-1.89-9.18-1,5.07h2.08Z"/><path d="M74.65,25.6V13.5h1.9V23.89h3.18V25.6Z"/><path d="M87.31,17.19A4.33,4.33,0,0,1,86.58,20a2.92,2.92,0,0,1-2.38.88H83.06V25.6h-1.9V13.5h3a2.92,2.92,0,0,1,2.38.89A4.38,4.38,0,0,1,87.31,17.19Zm-1.9,0a3.39,3.39,0,0,0-.26-1.45,1,1,0,0,0-1-.52H83.06v3.92h1.07a1,1,0,0,0,1-.52A3.26,3.26,0,0,0,85.41,17.19Z"/><path d="M93.23,25.6V20.32H90.86V25.6H89V13.5h1.9v5.1h2.37V13.5h1.9V25.6Z"/><path d="M102,25.6l-.5-2.39h-2.8l-.48,2.39h-2l3-12.1h1.85L104,25.6Zm-1.89-9.18-1,5.07h2.08Z"/><path d="M111.3,22.14a6.44,6.44,0,0,1-.17,1.66,2.49,2.49,0,0,1-.61,1,2.52,2.52,0,0,1-1,.58,4.72,4.72,0,0,1-1.42.18h-3V13.5h3a4.65,4.65,0,0,1,1.41.18,2.19,2.19,0,0,1,.94.57,2.3,2.3,0,0,1,.59,1,5,5,0,0,1,.17,1.52,4.57,4.57,0,0,1-.13,1.16,2.23,2.23,0,0,1-.56.95,2.17,2.17,0,0,1-.29.24,2.71,2.71,0,0,1-.34.18,2.37,2.37,0,0,1,.66.44,2.24,2.24,0,0,1,.56,1A6.24,6.24,0,0,1,111.3,22.14Zm-1.94-5.29a2,2,0,0,0-.32-1.27,1.34,1.34,0,0,0-1.06-.36h-1V18.5h1a1.28,1.28,0,0,0,1.06-.39A2,2,0,0,0,109.36,16.85Zm0,5.15a2.34,2.34,0,0,0-.34-1.45,1.3,1.3,0,0,0-1.1-.44H107v3.78H108a1.32,1.32,0,0,0,1.1-.42A2.37,2.37,0,0,0,109.39,22Z"/><path d="M119.2,19.55c0,.72,0,1.34,0,1.88s-.06,1-.11,1.42a4.45,4.45,0,0,1-.27,1,2.94,2.94,0,0,1-.48.8,3,3,0,0,1-.94.74,3.46,3.46,0,0,1-2.82,0,3.11,3.11,0,0,1-.93-.74,2.45,2.45,0,0,1-.48-.81,5.37,5.37,0,0,1-.26-1.05,9.28,9.28,0,0,1-.12-1.41c0-.54,0-1.16,0-1.88s0-1.34,0-1.88a9.28,9.28,0,0,1,.12-1.41,5.37,5.37,0,0,1,.26-1.05,2.56,2.56,0,0,1,.48-.81,3.27,3.27,0,0,1,.93-.74,3.46,3.46,0,0,1,2.82,0,3.18,3.18,0,0,1,.94.74,2.94,2.94,0,0,1,.48.8,4.58,4.58,0,0,1,.27,1.05c.05.41.09.88.11,1.42S119.2,18.84,119.2,19.55Zm-1.9,0c0-1.11,0-2-.07-2.62a3.26,3.26,0,0,0-.34-1.39,1,1,0,0,0-.36-.33,1,1,0,0,0-.56-.13,1,1,0,0,0-.55.13,1,1,0,0,0-.35.33,3.24,3.24,0,0,0-.35,1.39c0,.64-.07,1.51-.07,2.62s0,2,.07,2.62a3.24,3.24,0,0,0,.35,1.39,1,1,0,0,0,.35.33A1,1,0,0,0,116,24a1,1,0,0,0,.56-.13,1,1,0,0,0,.36-.33,3.26,3.26,0,0,0,.34-1.39C117.28,21.54,117.3,20.66,117.3,19.55Z"/><path d="M127,22.63a3.62,3.62,0,0,1-.22,1.26,2.9,2.9,0,0,1-2.86,1.85,3,3,0,0,1-2.26-.88,3,3,0,0,1-.61-1,3.4,3.4,0,0,1-.22-1.26V13.5h1.9v9.23a1.28,1.28,0,0,0,.35,1,1.16,1.16,0,0,0,.84.32,1.12,1.12,0,0,0,.83-.32,1.27,1.27,0,0,0,.34-1V13.5H127Z"/><path d="M133.69,25.6l-2.86-7.19V25.6h-1.91V13.5h1.7l2.84,7.19V13.5h1.91V25.6Z"/><path d="M143.41,22.39a4.7,4.7,0,0,1-.29,1.49,2.83,2.83,0,0,1-.71,1.09,2.56,2.56,0,0,1-.91.58,3.19,3.19,0,0,1-1.19.19,3,3,0,0,1-1.41-.3,3.11,3.11,0,0,1-.93-.74,2.71,2.71,0,0,1-.48-.8,5,5,0,0,1-.26-1,13.28,13.28,0,0,1-.12-1.42c0-.54,0-1.16,0-1.88s0-1.34,0-1.88a13.28,13.28,0,0,1,.12-1.42,5.19,5.19,0,0,1,.26-1.05,2.71,2.71,0,0,1,.48-.8,3.27,3.27,0,0,1,.93-.74,3,3,0,0,1,1.41-.3,3.37,3.37,0,0,1,1.21.2,2.59,2.59,0,0,1,.92.59,2.63,2.63,0,0,1,.7,1.08,5,5,0,0,1,.27,1.47H141.5a4.31,4.31,0,0,0-.07-.65,1.47,1.47,0,0,0-.21-.53,1.19,1.19,0,0,0-.35-.32,1.13,1.13,0,0,0-.56-.12,1,1,0,0,0-.55.13,1,1,0,0,0-.35.33,3,3,0,0,0-.35,1.39c-.05.64-.07,1.51-.07,2.62s0,2,.07,2.62a3,3,0,0,0,.35,1.39,1,1,0,0,0,.35.33,1,1,0,0,0,.55.13,1.13,1.13,0,0,0,.56-.12,1.06,1.06,0,0,0,.35-.32,1.6,1.6,0,0,0,.21-.54,4.46,4.46,0,0,0,.07-.65Z"/><path d="M145,25.6V13.5h5.08v1.72h-3.18v3.43h2.74v1.72h-2.74v3.52h3.18V25.6Z"/><path d="M161,25.6V18.06l-1.65,5h-1l-1.62-4.88V25.6h-1.9V13.5h1.72l2.34,6.36,2.33-6.36h1.74V25.6Z"/><path d="M165,25.6V13.5H170v1.72h-3.18v3.43h2.74v1.72h-2.74v3.52H170V25.6Z"/><path d="M176.44,25.6l-2.86-7.19V25.6h-1.9V13.5h1.7l2.84,7.19V13.5h1.9V25.6Z"/><polygon points="187.88 26.83 185.52 24.22 190.43 19.77 185.52 15.31 187.88 12.7 195.67 19.77 187.88 26.83"/></g></svg>