<svg id="Layer_1" data-name="Layer 1" xmlns="http://www.w3.org/2000/svg" viewBox="0 0 1389.82 292.65"><title>alphabounce_header</title><path d="M121.26,126.5H67.49L56.36,154.88H47.89L90.37,47.49h8.31l42.64,107.39h-8.93ZM94.45,58.31,70.62,118.66h47.5Z"/><path d="M175,47.49h8.31v99.7h55.34v7.69H175Z"/><path d="M283.34,117.25v37.63H275V47.49h37c22,0,36.84,15.36,36.84,34.8,0,20.07-14.58,35-38.57,35Zm0-62.08v54.4h27.9c18.35,0,29.32-12.07,29.32-27.43,0-14.9-10.82-27-30.88-27Z"/><path d="M459.07,105.18H396.21v49.7H387.9V47.49h8.31v50h62.86v-50h8.31V154.88h-8.31Z"/><path d="M574.44,126.5H520.67l-11.13,28.38h-8.47L543.56,47.49h8.31l42.64,107.39h-8.94ZM547.63,58.31l-23.82,60.35h47.5Z"/><path d="M627.42,47.49h41.7c21.79,0,33.24,12.86,33.24,29.32,0,9.4-5.18,17.24-13.49,22.1,12.86,3.92,20.54,13.33,20.54,24.93,0,17.24-12.85,31-34.8,31H627.42Zm15.21,13.8V93.42h25.55c12.54,0,19-7,19-16.3,0-8.78-6.58-15.83-18.66-15.83Zm0,45.93v33.86h31c13.48,0,20.53-7.52,20.53-17.09,0-9.4-7.21-16.77-20.22-16.77Z"/><path d="M740.45,101.26c0-31.82,25.08-55.49,55.49-55.49a54.86,54.86,0,0,1,55.34,55.49,55,55,0,0,1-55.34,55.5C765.53,156.76,740.45,132.93,740.45,101.26Zm95.78,0c0-23.67-18.18-41.54-40.29-41.54-22.42,0-40.44,17.87-40.44,41.54s18,41.54,40.44,41.54C818.05,142.8,836.23,124.93,836.23,101.26Z"/><path d="M886.86,113.18V47.49h15v63.65c0,19.59,10.34,31.35,27.59,31.35s27.59-11.76,27.59-31.35V47.49h15v65.69c0,26.49-16,43.58-42.49,43.58C902.85,156.76,886.86,139.67,886.86,113.18Z"/><path d="M1024.18,71.32v83.56h-14.42V47.49h16.14l54.4,83.4V47.49h14.42V154.88h-16.14Z"/><path d="M1146,101.26c0,24.3,18,41.54,41.54,41.54,16.77,0,28.22-8.15,35.9-21.16l11.76,7.84c-9.88,16.62-26,27.28-47.66,27.28-31.66,0-56.59-23.2-56.59-55.5s25.08-55.49,56.12-55.49c22.42,0,38.41,10.5,48,27.12l-11.76,7.68c-7.52-12.39-19-20.85-35.9-20.85C1164,59.72,1146,77,1146,101.26Z"/><path d="M1269.35,47.49h71V61.6h-55.81V93.42h51.89v13.8h-51.89v33.55h57.38v14.11h-72.58Z"/><path d="M402.79,202.8h17.89c9.34,0,14.25,5.51,14.25,12.57a10.91,10.91,0,0,1-5.78,9.49c5.51,1.68,8.81,5.71,8.81,10.69,0,7.4-5.51,13.31-14.93,13.31H402.79Zm6.52,5.91V222.5h11c5.38,0,8.14-3,8.14-7,0-3.77-2.82-6.8-8-6.8Zm0,19.71V243h13.32c5.78,0,8.81-3.23,8.81-7.34s-3.1-7.19-8.68-7.19Z"/><path d="M494.51,202.8h67.26v6H501V222.5h59.06v5.92H501v14.39h61.41v6.05H494.51Z"/><path d="M634.79,248.86V230.71L619,202.8h7.46l11.64,21.92,11.77-21.92h7.26l-15.8,27.57v18.49Z"/><path d="M713.67,225.83a23.77,23.77,0,1,1,23.8,23.81A23.55,23.55,0,0,1,713.67,225.83Zm41.09,0c0-10.15-7.8-17.82-17.29-17.82s-17.35,7.67-17.35,17.82,7.74,17.82,17.35,17.82S754.76,236,754.76,225.83Z"/><path d="M824,213v35.84h-6.19V202.8h6.93L848,238.57V202.8h6.19v46.06h-6.93Z"/><path d="M910.76,202.8H963.7c13.31,0,23.33,10,23.33,22.93a22.84,22.84,0,0,1-23.33,23.13H910.76Zm6.52,6v34.1h46c10.09,0,17.22-7.47,17.22-17a16.73,16.73,0,0,0-17.08-17.08Z"/></svg>