<svg id="GREY" xmlns="http://www.w3.org/2000/svg" viewBox="0 0 119.76 43"><defs><style>.cls-1{fill:gray;}</style></defs><title>boost_on_grey</title><path class="cls-1" d="M35.17,15.38a6.15,6.15,0,0,1,.73.43,5,5,0,0,1,.51.44,3.64,3.64,0,0,1,.77,1.27,4.73,4.73,0,0,1,.24,1.56A5.16,5.16,0,0,1,37.08,21a4.12,4.12,0,0,1-1,1.48,4.66,4.66,0,0,1-1.59.94,6.18,6.18,0,0,1-2.08.33H25.55V7.4h6.58a6.34,6.34,0,0,1,2.1.32,4.51,4.51,0,0,1,1.59.91,4,4,0,0,1,1,1.41,4.78,4.78,0,0,1,.35,1.86A3.71,3.71,0,0,1,35.17,15.38ZM31.88,14a2.21,2.21,0,0,0,1.55-.51A1.73,1.73,0,0,0,34,12.13a1.76,1.76,0,0,0-.57-1.38,2.26,2.26,0,0,0-1.55-.5H28.75V14Zm.21,6.9a2.18,2.18,0,0,0,1.56-.54,2.18,2.18,0,0,0,0-3,2.22,2.22,0,0,0-1.56-.53H28.75v4Z"/><path class="cls-1" d="M52.23,15.58c0,.79,0,1.49,0,2.12a10.15,10.15,0,0,1-.2,1.74,5.84,5.84,0,0,1-.49,1.46,5.21,5.21,0,0,1-.95,1.29,6.11,6.11,0,0,1-1.89,1.27,7.11,7.11,0,0,1-5,0,5.92,5.92,0,0,1-1.9-1.27,5.21,5.21,0,0,1-.95-1.29,5.84,5.84,0,0,1-.49-1.46,11.35,11.35,0,0,1-.18-1.74c0-.63,0-1.33,0-2.12s0-1.48,0-2.11a11.35,11.35,0,0,1,.18-1.74,5.7,5.7,0,0,1,.49-1.46A5.21,5.21,0,0,1,41.79,9a5.92,5.92,0,0,1,1.9-1.27,7.11,7.11,0,0,1,5,0A6.11,6.11,0,0,1,50.56,9a5.21,5.21,0,0,1,.95,1.29A5.7,5.7,0,0,1,52,11.73a10.15,10.15,0,0,1,.2,1.74C52.22,14.1,52.23,14.8,52.23,15.58Zm-3.19,0c0-.78,0-1.43,0-1.94a11.34,11.34,0,0,0-.14-1.28,3.14,3.14,0,0,0-.24-.81,2.18,2.18,0,0,0-.38-.57,2.63,2.63,0,0,0-.86-.63,2.84,2.84,0,0,0-3.25.63,2.18,2.18,0,0,0-.38.57,3.55,3.55,0,0,0-.25.81,9.81,9.81,0,0,0-.12,1.28c0,.51,0,1.16,0,1.94s0,1.43,0,2a9.3,9.3,0,0,0,.12,1.26,3.72,3.72,0,0,0,.25.81,2.31,2.31,0,0,0,.38.56,2.85,2.85,0,0,0,.88.64,2.76,2.76,0,0,0,3.23-.64,2.31,2.31,0,0,0,.38-.56,3.27,3.27,0,0,0,.24-.81A10.67,10.67,0,0,0,49,17.53C49,17,49,16.37,49,15.58Z"/><path class="cls-1" d="M66.82,15.58c0,.79,0,1.49,0,2.12a11.3,11.3,0,0,1-.19,1.74,6.29,6.29,0,0,1-.5,1.46,5.21,5.21,0,0,1-1,1.29,5.88,5.88,0,0,1-1.89,1.27,6.28,6.28,0,0,1-2.48.45,6.41,6.41,0,0,1-2.5-.45,6,6,0,0,1-1.9-1.27,5.21,5.21,0,0,1-.95-1.29,5.82,5.82,0,0,1-.48-1.46,12.69,12.69,0,0,1-.19-1.74c0-.63,0-1.33,0-2.12s0-1.48,0-2.11a12.69,12.69,0,0,1,.19-1.74,5.69,5.69,0,0,1,.48-1.46A5.21,5.21,0,0,1,56.37,9a6,6,0,0,1,1.9-1.27,6.41,6.41,0,0,1,2.5-.45,6.28,6.28,0,0,1,2.48.45A5.88,5.88,0,0,1,65.14,9a5.21,5.21,0,0,1,1,1.29,6.13,6.13,0,0,1,.5,1.46,11.3,11.3,0,0,1,.19,1.74C66.8,14.1,66.82,14.8,66.82,15.58Zm-3.2,0c0-.78,0-1.43,0-1.94a11.63,11.63,0,0,0-.13-1.28,3.55,3.55,0,0,0-.25-.81,2.18,2.18,0,0,0-.38-.57,2.53,2.53,0,0,0-.86-.63,2.76,2.76,0,0,0-1.18-.24A2.74,2.74,0,0,0,58.7,11a2.18,2.18,0,0,0-.38.57,3.14,3.14,0,0,0-.24.81A8.18,8.18,0,0,0,58,13.64c0,.51,0,1.16,0,1.94s0,1.43,0,2a7.77,7.77,0,0,0,.13,1.26,3.27,3.27,0,0,0,.24.81,2.31,2.31,0,0,0,.38.56,2.85,2.85,0,0,0,.88.64,2.67,2.67,0,0,0,1.19.26A2.63,2.63,0,0,0,62,20.8a2.55,2.55,0,0,0,.86-.64,2.31,2.31,0,0,0,.38-.56,3.72,3.72,0,0,0,.25-.81,11,11,0,0,0,.13-1.26C63.6,17,63.62,16.37,63.62,15.58Z"/><path class="cls-1" d="M80.66,18.94a4.63,4.63,0,0,1-.46,2.12,4.43,4.43,0,0,1-1.27,1.55,6.09,6.09,0,0,1-1.94,1,8.39,8.39,0,0,1-2.4.33,10.91,10.91,0,0,1-3.32-.47,6.58,6.58,0,0,1-2.66-1.69l2.07-2.07a4.21,4.21,0,0,0,1.79,1.08,7.53,7.53,0,0,0,2.14.3,3.76,3.76,0,0,0,2.19-.53A1.75,1.75,0,0,0,77.53,19a1.83,1.83,0,0,0-.5-1.36,1.86,1.86,0,0,0-.55-.34,4.38,4.38,0,0,0-.92-.21l-2-.3a7.06,7.06,0,0,1-1.86-.49,4.45,4.45,0,0,1-1.31-.86,4.27,4.27,0,0,1-1.18-3.22,4.92,4.92,0,0,1,.4-2,4.44,4.44,0,0,1,1.12-1.56,5.1,5.1,0,0,1,1.8-1A7.1,7.1,0,0,1,75,7.26a8.93,8.93,0,0,1,3,.44,6.24,6.24,0,0,1,2.32,1.47l-2,2a3.36,3.36,0,0,0-1.65-.93,8.09,8.09,0,0,0-1.7-.2,2.57,2.57,0,0,0-1.9.61,2,2,0,0,0-.61,1.46,1.83,1.83,0,0,0,.1.62,1.38,1.38,0,0,0,.36.55,2,2,0,0,0,.61.39,2.89,2.89,0,0,0,.88.23l2,.3a8.13,8.13,0,0,1,1.86.46,3.94,3.94,0,0,1,1.27.83,3.49,3.49,0,0,1,1,1.47A6.14,6.14,0,0,1,80.66,18.94Z"/><path class="cls-1" d="M89.93,10.25V23.77h-3.2V10.25H82.46V7.4H94.21v2.85Z"/><rect class="cls-1" x="25.88" y="32.86" width="68" height="6"/></svg>