<svg id="GREY" xmlns="http://www.w3.org/2000/svg" viewBox="0 0 122.72 43"><defs><style>.cls-1{fill:#979797;}</style></defs><title>boost_off_L_grey</title><path class="cls-1" d="M36.65,14.38a7.11,7.11,0,0,1,.73.43,5,5,0,0,1,.51.44,3.64,3.64,0,0,1,.77,1.27,4.73,4.73,0,0,1,.24,1.56A5.16,5.16,0,0,1,38.55,20a4,4,0,0,1-1,1.48,4.52,4.52,0,0,1-1.58.94,6.22,6.22,0,0,1-2.08.33H27V6.4h6.58a6.28,6.28,0,0,1,2.09.32,4.55,4.55,0,0,1,1.6.91,4,4,0,0,1,1,1.41,4.61,4.61,0,0,1,.36,1.86A3.73,3.73,0,0,1,36.65,14.38ZM33.36,13a2.23,2.23,0,0,0,1.55-.51,1.76,1.76,0,0,0,.56-1.38,1.79,1.79,0,0,0-.56-1.38,2.27,2.27,0,0,0-1.55-.5H30.23V13Zm.2,6.9a2.22,2.22,0,0,0,1.57-.54,1.94,1.94,0,0,0,.57-1.48,1.94,1.94,0,0,0-.57-1.48,2.26,2.26,0,0,0-1.57-.53H30.23v4Z"/><path class="cls-1" d="M53.71,14.58c0,.79,0,1.49,0,2.12a11.25,11.25,0,0,1-.2,1.74A6.27,6.27,0,0,1,53,19.9a5.26,5.26,0,0,1-1,1.29,6,6,0,0,1-1.88,1.27,7.11,7.11,0,0,1-5,0,5.82,5.82,0,0,1-1.9-1.27,5.53,5.53,0,0,1-1-1.29,5.82,5.82,0,0,1-.48-1.46,11.35,11.35,0,0,1-.18-1.74c0-.63,0-1.33,0-2.12s0-1.48,0-2.11a11.35,11.35,0,0,1,.18-1.74,5.69,5.69,0,0,1,.48-1.46,5.53,5.53,0,0,1,1-1.29,5.82,5.82,0,0,1,1.9-1.27,7.11,7.11,0,0,1,5,0A6,6,0,0,1,52,8a5.26,5.26,0,0,1,1,1.29,6.12,6.12,0,0,1,.49,1.46,11.25,11.25,0,0,1,.2,1.74C53.7,13.1,53.71,13.8,53.71,14.58Zm-3.2,0c0-.78,0-1.43,0-1.94a11.34,11.34,0,0,0-.14-1.28,3.14,3.14,0,0,0-.24-.81,2.46,2.46,0,0,0-.38-.57,2.63,2.63,0,0,0-.86-.63,2.81,2.81,0,0,0-1.19-.24,2.76,2.76,0,0,0-1.18.24,2.87,2.87,0,0,0-.89.63,2.46,2.46,0,0,0-.38.57,3.14,3.14,0,0,0-.24.81,11.63,11.63,0,0,0-.13,1.28c0,.51,0,1.16,0,1.94s0,1.43,0,2A11,11,0,0,0,45,17.79a3.27,3.27,0,0,0,.24.81,2.63,2.63,0,0,0,.38.56,2.9,2.9,0,0,0,.89.64,2.63,2.63,0,0,0,1.18.26,2.72,2.72,0,0,0,2.05-.9,2.63,2.63,0,0,0,.38-.56,3.27,3.27,0,0,0,.24-.81,10.67,10.67,0,0,0,.14-1.26C50.5,16,50.51,15.37,50.51,14.58Z"/><path class="cls-1" d="M68.29,14.58c0,.79,0,1.49,0,2.12a10.15,10.15,0,0,1-.2,1.74,5.84,5.84,0,0,1-.49,1.46,5,5,0,0,1-1,1.29,6,6,0,0,1-1.88,1.27,7.11,7.11,0,0,1-5,0,5.92,5.92,0,0,1-1.9-1.27,5.21,5.21,0,0,1-1-1.29,5.46,5.46,0,0,1-.49-1.46,11.35,11.35,0,0,1-.18-1.74c0-.63,0-1.33,0-2.12s0-1.48,0-2.11a11.35,11.35,0,0,1,.18-1.74,5.34,5.34,0,0,1,.49-1.46,5.21,5.21,0,0,1,1-1.29,5.92,5.92,0,0,1,1.9-1.27,7.11,7.11,0,0,1,5,0A6,6,0,0,1,66.61,8a5,5,0,0,1,1,1.29,5.7,5.7,0,0,1,.49,1.46,10.15,10.15,0,0,1,.2,1.74C68.28,13.1,68.29,13.8,68.29,14.58Zm-3.19,0c0-.78,0-1.43,0-1.94a11.34,11.34,0,0,0-.14-1.28,3.14,3.14,0,0,0-.24-.81,2.46,2.46,0,0,0-.38-.57,2.63,2.63,0,0,0-.86-.63,2.81,2.81,0,0,0-1.19-.24,2.76,2.76,0,0,0-1.18.24,2.87,2.87,0,0,0-.89.63,2.46,2.46,0,0,0-.38.57,3.14,3.14,0,0,0-.24.81,9.81,9.81,0,0,0-.12,1.28c0,.51,0,1.16,0,1.94s0,1.43,0,2a9.3,9.3,0,0,0,.12,1.26,3.27,3.27,0,0,0,.24.81,2.63,2.63,0,0,0,.38.56,2.9,2.9,0,0,0,.89.64,2.63,2.63,0,0,0,1.18.26,2.72,2.72,0,0,0,2.05-.9,2.63,2.63,0,0,0,.38-.56,3.27,3.27,0,0,0,.24-.81,10.67,10.67,0,0,0,.14-1.26C65.08,16,65.1,15.37,65.1,14.58Z"/><path class="cls-1" d="M82.14,17.94a4.63,4.63,0,0,1-.46,2.12,4.46,4.46,0,0,1-1.28,1.55,6,6,0,0,1-1.93,1,8.39,8.39,0,0,1-2.4.33,11,11,0,0,1-3.33-.47,6.55,6.55,0,0,1-2.65-1.69l2.07-2.07A4.21,4.21,0,0,0,74,19.76a7.53,7.53,0,0,0,2.14.3,3.78,3.78,0,0,0,2.19-.53A1.75,1.75,0,0,0,79,18a1.87,1.87,0,0,0-.5-1.36,1.91,1.91,0,0,0-.56-.34A4.23,4.23,0,0,0,77,16.1l-2-.3a7,7,0,0,1-1.86-.49,4.5,4.5,0,0,1-1.32-.86,4.27,4.27,0,0,1-1.17-3.22,5.09,5.09,0,0,1,.39-2,4.47,4.47,0,0,1,1.13-1.56,5.14,5.14,0,0,1,1.79-1,7.2,7.2,0,0,1,2.4-.37,8.83,8.83,0,0,1,3,.44,6.2,6.2,0,0,1,2.33,1.47l-2,2a3.45,3.45,0,0,0-1.65-.93A8.1,8.1,0,0,0,76.34,9a2.54,2.54,0,0,0-1.89.61,2,2,0,0,0-.61,1.46,1.83,1.83,0,0,0,.1.62,1.38,1.38,0,0,0,.36.55,1.88,1.88,0,0,0,.61.39,2.81,2.81,0,0,0,.88.23l2,.3a8.13,8.13,0,0,1,1.86.46,3.79,3.79,0,0,1,1.26.83,3.42,3.42,0,0,1,1,1.47A6.14,6.14,0,0,1,82.14,17.94Z"/><path class="cls-1" d="M91.41,9.25V22.77h-3.2V9.25H83.93V6.4H95.69V9.25Z"/></svg>