<svg id="BLUE" xmlns="http://www.w3.org/2000/svg" viewBox="0 0 119.76 43"><defs><style>.cls-1{fill:#4d5376;}</style></defs><title>boost_on_blue</title><rect class="cls-1" x="8.88" y="32.86" width="102" height="6"/><rect class="cls-1" x="8.88" y="32.86" width="102" height="6"/><path class="cls-1" d="M21.33,18.84a6.13,6.13,0,0,1-2.08,3.88A6.08,6.08,0,0,1,15.33,24a6.33,6.33,0,0,1-2.48-.45,6.17,6.17,0,0,1-1.91-1.28A5,5,0,0,1,10,21a5.51,5.51,0,0,1-.48-1.46,11.64,11.64,0,0,1-.18-1.74q0-.94,0-2.12t0-2.12a11.64,11.64,0,0,1,.18-1.74A5.52,5.52,0,0,1,10,10.38a5,5,0,0,1,1-1.29,6.17,6.17,0,0,1,1.91-1.28,6.33,6.33,0,0,1,2.48-.45,6.08,6.08,0,0,1,3.92,1.3,6.13,6.13,0,0,1,2.08,3.88H18.07a3.56,3.56,0,0,0-.9-1.67,2.47,2.47,0,0,0-1.84-.66,2.89,2.89,0,0,0-1.18.23,2.47,2.47,0,0,0-.86.62,2.26,2.26,0,0,0-.38.57,3.47,3.47,0,0,0-.24.83,11,11,0,0,0-.14,1.28q0,.77,0,1.94t0,1.94a11,11,0,0,0,.14,1.28,3.47,3.47,0,0,0,.24.83,2.25,2.25,0,0,0,.38.57,2.44,2.44,0,0,0,.86.62,2.89,2.89,0,0,0,1.18.23,2.51,2.51,0,0,0,1.85-.66,3.51,3.51,0,0,0,.91-1.67Z"/><path class="cls-1" d="M35.41,15.69q0,1.17,0,2.12a10.75,10.75,0,0,1-.2,1.74A5.86,5.86,0,0,1,34.68,21a5,5,0,0,1-1,1.29,5.91,5.91,0,0,1-1.89,1.28,6.34,6.34,0,0,1-2.48.45,6.42,6.42,0,0,1-2.5-.45A5.87,5.87,0,0,1,25,22.29,5,5,0,0,1,24,21a5.51,5.51,0,0,1-.48-1.46,11.64,11.64,0,0,1-.18-1.74q0-.94,0-2.12t0-2.12a11.64,11.64,0,0,1,.18-1.74A5.52,5.52,0,0,1,24,10.38a5,5,0,0,1,1-1.29,5.87,5.87,0,0,1,1.9-1.28,6.42,6.42,0,0,1,2.5-.45,6.34,6.34,0,0,1,2.48.45,5.91,5.91,0,0,1,1.89,1.28,5,5,0,0,1,1,1.29,5.87,5.87,0,0,1,.49,1.46,10.75,10.75,0,0,1,.2,1.74Q35.41,14.52,35.41,15.69Zm-3.2,0q0-1.17,0-1.94A11.12,11.12,0,0,0,32,12.47a3.27,3.27,0,0,0-.24-.82,2.38,2.38,0,0,0-.38-.56,2.6,2.6,0,0,0-.86-.63,3,3,0,0,0-2.37,0,2.86,2.86,0,0,0-.89.63,2.35,2.35,0,0,0-.38.56,3.23,3.23,0,0,0-.24.82,9.75,9.75,0,0,0-.13,1.28q0,.77,0,1.94t0,1.94a9.39,9.39,0,0,0,.13,1.26,3.22,3.22,0,0,0,.24.8,2.33,2.33,0,0,0,.38.56,3,3,0,0,0,.89.64,2.9,2.9,0,0,0,2.37,0,2.72,2.72,0,0,0,.86-.64,2.36,2.36,0,0,0,.38-.56,3.26,3.26,0,0,0,.24-.8,10.66,10.66,0,0,0,.14-1.26Q32.21,16.86,32.21,15.69Z"/><path class="cls-1" d="M50.31,23.88V14.33l-3.13,6.21H45l-3.15-6.21v9.54h-3.2V7.5h3.15l4.28,8.85L50.36,7.5h3.15V23.88Z"/><path class="cls-1" d="M60.53,10.35v4H67v2.85H60.53v6.65h-3.2V7.5H68.11v2.85Z"/><path class="cls-1" d="M82,15.69q0,1.17,0,2.12a10.75,10.75,0,0,1-.2,1.74A5.86,5.86,0,0,1,81.26,21a5,5,0,0,1-1,1.29,5.91,5.91,0,0,1-1.89,1.28,6.34,6.34,0,0,1-2.48.45,6.42,6.42,0,0,1-2.5-.45,5.87,5.87,0,0,1-1.9-1.28,5,5,0,0,1-1-1.29,5.51,5.51,0,0,1-.48-1.46,11.64,11.64,0,0,1-.18-1.74q0-.94,0-2.12t0-2.12a11.64,11.64,0,0,1,.18-1.74,5.52,5.52,0,0,1,.48-1.46,5,5,0,0,1,1-1.29,5.87,5.87,0,0,1,1.9-1.28,6.42,6.42,0,0,1,2.5-.45,6.34,6.34,0,0,1,2.48.45,5.91,5.91,0,0,1,1.89,1.28,5,5,0,0,1,1,1.29,5.87,5.87,0,0,1,.49,1.46,10.75,10.75,0,0,1,.2,1.74Q82,14.52,82,15.69Zm-3.2,0q0-1.17,0-1.94a11.12,11.12,0,0,0-.14-1.28,3.27,3.27,0,0,0-.24-.82,2.38,2.38,0,0,0-.38-.56,2.6,2.6,0,0,0-.86-.63,3,3,0,0,0-2.37,0,2.86,2.86,0,0,0-.89.63,2.35,2.35,0,0,0-.38.56,3.23,3.23,0,0,0-.24.82,9.75,9.75,0,0,0-.13,1.28q0,.77,0,1.94t0,1.94a9.39,9.39,0,0,0,.13,1.26,3.22,3.22,0,0,0,.24.8,2.33,2.33,0,0,0,.38.56,3,3,0,0,0,.89.64,2.9,2.9,0,0,0,2.37,0,2.72,2.72,0,0,0,.86-.64,2.36,2.36,0,0,0,.38-.56,3.26,3.26,0,0,0,.24-.8,10.66,10.66,0,0,0,.14-1.26Q78.79,16.86,78.79,15.69Z"/><path class="cls-1" d="M93.94,23.88l-3.2-6.53h-2.3v6.53h-3.2V7.5h6.42a5.89,5.89,0,0,1,2.23.4A5.11,5.11,0,0,1,95.58,9a4.52,4.52,0,0,1,1,1.59A5.28,5.28,0,0,1,97,12.51a4.72,4.72,0,0,1-.24,1.56,4.4,4.4,0,0,1-.66,1.23,4.36,4.36,0,0,1-1,.92,4.62,4.62,0,0,1-1.14.59l3.66,7.06Zm-.16-11.36A2.05,2.05,0,0,0,93.15,11a2.36,2.36,0,0,0-1.69-.6h-3v4.32h3a2.36,2.36,0,0,0,1.69-.6A2.05,2.05,0,0,0,93.78,12.51Z"/><path class="cls-1" d="M106.2,10.35V23.88H103V10.35H98.73V7.5h11.75v2.85Z"/></svg>