<svg id="Layer_1" data-name="Layer 1" xmlns="http://www.w3.org/2000/svg" viewBox="0 0 1160 196"><title>EL_header</title><path d="M24.36,29.63h87.72V40.09H35.67V96.64h71.07V107.1H35.67v58.27h80.68v10.46h-92Z"/><path d="M173.33,29.63h45c40.76,0,74.06,30.73,74.06,73s-33.3,73.21-74.06,73.21h-45Zm11.32,10.46V165.37h33.29c35.43,0,63.17-26.68,63.17-62.75s-27.74-62.53-63.17-62.53Z"/><path d="M424.11,177.53c-43.53,0-76.19-31.58-76.19-74.91s33.94-74.91,75.55-74.91c24.34,0,44.18,9.17,57.63,25.61l-8.32,7c-12-14.09-29.24-21.56-49.31-21.56-36.06,0-64.24,27.11-64.24,63.82s26.9,64.24,64.88,64.24c32.66,0,55.71-24.54,57.42-54H426V102.41h66.59V109C492.63,144,465.73,177.53,424.11,177.53Z"/><path d="M552.18,29.63H639.9V40.09H563.49V96.64h71.07V107.1H563.49v58.27h80.68v10.46h-92Z"/><path d="M700.09,29.63h20.7v127.2h73.85v19H700.09Z"/><path d="M841.17,119.05V29.63h20.49v86.65c0,26.68,14.09,42.68,37.56,42.68s37.57-16,37.57-42.68V29.63h20.49v89.42c0,36.07-21.77,59.34-57.84,59.34C862.94,178.39,841.17,155.12,841.17,119.05Z"/><path d="M1069.55,117.56l-39.7,58.27h-23.91l51.65-74.49-49.51-71.71h24.76L1070,84.9l37.14-55.27h23.69l-48.88,71.07L1134,175.83h-25Z"/></svg>