<svg xmlns="http://www.w3.org/2000/svg" viewBox="0 0 66 66"><defs><style>.cls-1{fill:#666;}.cls-2{fill:#333;}.cls-3{fill:#c39578;}.cls-4{fill:#a07964;}.cls-5{fill:#fff;opacity:0.47;}</style></defs><title>grey swatch inactive_W_grey</title><g id="Layer_5" data-name="Layer 5"><circle class="cls-1" cx="33" cy="33" r="27.58"/><path class="cls-2" d="M33,6.92A26.08,26.08,0,1,1,6.92,33,26.11,26.11,0,0,1,33,6.92m0-3A29.08,29.08,0,1,0,62.08,33,29.08,29.08,0,0,0,33,3.92Z"/><path class="cls-3" d="M60.58,33A27.61,27.61,0,0,1,33,60.58V5.42A27.61,27.61,0,0,1,60.58,33Z"/><path class="cls-4" d="M33,3.92v3a26.08,26.08,0,0,1,0,52.16v3A29.08,29.08,0,0,0,33,3.92Z"/><circle class="cls-5" cx="33" cy="33" r="29.08"/></g></svg>