<svg id="GREY" xmlns="http://www.w3.org/2000/svg" viewBox="0 0 187.99 43"><defs><style>.cls-1{fill:gray;}</style></defs><title>heel_on_grey</title><rect class="cls-1" x="27" y="32.86" width="134" height="6"/><path class="cls-1" d="M27.73,19.17a9.26,9.26,0,0,0,4,1c1.67,0,2.55-.69,2.55-1.74s-.76-1.57-2.69-2.27c-2.67-.93-4.41-2.41-4.41-4.75,0-2.74,2.29-4.84,6.08-4.84a9.84,9.84,0,0,1,4.1.81l-.81,2.93a7.64,7.64,0,0,0-3.36-.76c-1.57,0-2.34.71-2.34,1.55,0,1,.91,1.48,3,2.27,2.84,1,4.17,2.53,4.17,4.79,0,2.69-2.07,5-6.49,5a10.51,10.51,0,0,1-4.55-1Z"/><path class="cls-1" d="M44.12,6.84v9.25c0,2.77,1.05,4.17,2.91,4.17s3-1.33,3-4.17V6.84h3.62v9c0,5-2.5,7.32-6.7,7.32s-6.44-2.24-6.44-7.37v-9Z"/><path class="cls-1" d="M56.76,7.06a29.83,29.83,0,0,1,4.91-.33A7.72,7.72,0,0,1,66.58,8a4.7,4.7,0,0,1,1.72,3.72,5.14,5.14,0,0,1-1.48,3.81,7.45,7.45,0,0,1-5.22,1.69,9.17,9.17,0,0,1-1.24-.07v5.75h-3.6Zm3.6,7.3a5.6,5.6,0,0,0,1.22.1c1.93,0,3.12-1,3.12-2.62,0-1.48-1-2.36-2.84-2.36a6.18,6.18,0,0,0-1.5.14Z"/><path class="cls-1" d="M70.61,7.06a29.81,29.81,0,0,1,4.91-.33A7.72,7.72,0,0,1,80.44,8a4.7,4.7,0,0,1,1.72,3.72,5.13,5.13,0,0,1-1.48,3.81,7.45,7.45,0,0,1-5.22,1.69,9.16,9.16,0,0,1-1.24-.07v5.75h-3.6Zm3.6,7.3a5.59,5.59,0,0,0,1.22.1c1.93,0,3.12-1,3.12-2.62,0-1.48-1-2.36-2.84-2.36a6.17,6.17,0,0,0-1.5.14Z"/><path class="cls-1" d="M99.18,14.71c0,5.27-3.2,8.46-7.89,8.46s-7.56-3.6-7.56-8.18c0-4.82,3.08-8.42,7.82-8.42C96.49,6.58,99.18,10.27,99.18,14.71Zm-11.61.21c0,3.15,1.48,5.37,3.91,5.37s3.86-2.34,3.86-5.46c0-2.89-1.38-5.37-3.89-5.37S87.57,11.8,87.57,14.92Z"/><path class="cls-1" d="M101.57,7.06a32,32,0,0,1,4.84-.33c2.38,0,4.05.36,5.2,1.26a4.08,4.08,0,0,1,1.48,3.36,4.27,4.27,0,0,1-2.84,4v.07c1.12.45,1.74,1.53,2.15,3,.5,1.81,1,3.91,1.31,4.53H110a20,20,0,0,1-1.12-3.74c-.43-2-1.12-2.55-2.6-2.58h-1.1v6.32h-3.6Zm3.6,6.92h1.43c1.81,0,2.89-.91,2.89-2.31s-1-2.22-2.67-2.24a9.05,9.05,0,0,0-1.64.12Z"/><path class="cls-1" d="M118.81,9.89H114.5V6.84h12.35V9.89h-4.39v13h-3.65Z"/><path class="cls-1" d="M132.43,6.84V22.91h-3.65V6.84Z"/><path class="cls-1" d="M139.37,22.91,134.22,6.84h4l2,6.8c.55,1.91,1,3.74,1.43,5.75h.07c.41-1.93.91-3.84,1.46-5.67l2.05-6.87H149l-5.41,16.07Z"/><path class="cls-1" d="M160.31,16.12H154.4v3.82H161v3H150.75V6.84h9.92v3H154.4v3.34h5.91Z"/></svg>