<svg id="PINK" xmlns="http://www.w3.org/2000/svg" viewBox="0 0 187.99 43"><defs><style>.cls-1{fill:#e5bba3;}</style></defs><title>heel_off_L_pink</title><path class="cls-1" d="M53.22,22.88l-1-2.9H46.44l-1,2.9H42.11l6-16.38h2.51l6,16.38ZM49.4,11.33l-2.07,6H51.4Z"/><path class="cls-1" d="M70.47,14.69q0,1,0,1.85a15.08,15.08,0,0,1-.11,1.54A5.87,5.87,0,0,1,70,19.37a5,5,0,0,1-.59,1.12,5.4,5.4,0,0,1-2.07,1.82,6.58,6.58,0,0,1-2.87.58H58.58V6.5h5.91a6.58,6.58,0,0,1,2.88.58,5.4,5.4,0,0,1,2.07,1.82A5,5,0,0,1,70,10a5.88,5.88,0,0,1,.31,1.29,15.12,15.12,0,0,1,.11,1.54Q70.47,13.68,70.47,14.69Zm-3.2,0q0-1,0-1.67a11.56,11.56,0,0,0-.09-1.2A4.13,4.13,0,0,0,67,11a2.08,2.08,0,0,0-.36-.62,2.87,2.87,0,0,0-2.39-1H61.78V20h2.44a2.87,2.87,0,0,0,2.39-1,2.08,2.08,0,0,0,.36-.62,4.11,4.11,0,0,0,.2-.84,11.56,11.56,0,0,0,.09-1.2Q67.27,15.65,67.27,14.69Z"/><path class="cls-1" d="M82.82,22.88l-1-2.9H76l-1,2.9H71.71l6-16.38h2.51l6,16.38ZM79,11.33l-2.07,6H81Z"/><path class="cls-1" d="M99.93,11.61a5.31,5.31,0,0,1-.37,2,4.77,4.77,0,0,1-2.76,2.74,6.12,6.12,0,0,1-2.28.4H91.38v6.16h-3.2V6.5h6.35a6.14,6.14,0,0,1,2.28.4,4.77,4.77,0,0,1,2.76,2.74A5.31,5.31,0,0,1,99.93,11.61Zm-3.2,0A2.19,2.19,0,0,0,96.1,10a2.37,2.37,0,0,0-1.74-.62h-3v4.49h3a2.4,2.4,0,0,0,1.74-.61A2.15,2.15,0,0,0,96.74,11.61Z"/><path class="cls-1" d="M108.77,9.35V22.88h-3.2V9.35h-4.28V6.5H113V9.35Z"/><path class="cls-1" d="M115.64,22.88V6.5h3.2V22.88Z"/><path class="cls-1" d="M128.61,22.88h-2.39L120.82,6.5h3.31l3.29,10.67L130.71,6.5H134Z"/><path class="cls-1" d="M136,22.88V6.5h10.79V9.35h-7.59v3.84h6.46V16h-6.46v4h7.59v2.85Z"/></svg>