<svg id="PINK" xmlns="http://www.w3.org/2000/svg" viewBox="0 0 187.99 43"><defs><style>.cls-1{fill:#c39578;}</style></defs><title>heel_on_L_pink</title><path class="cls-1" d="M65.19,14.38a7.47,7.47,0,0,1,.74.43,4.93,4.93,0,0,1,.5.44,3.64,3.64,0,0,1,.77,1.27,4.73,4.73,0,0,1,.24,1.56A5.16,5.16,0,0,1,67.1,20a4,4,0,0,1-1,1.48,4.66,4.66,0,0,1-1.59.94,6.18,6.18,0,0,1-2.08.33H55.58V6.4h6.57a6.34,6.34,0,0,1,2.1.32,4.55,4.55,0,0,1,1.6.91,4.1,4.1,0,0,1,1,1.41,4.6,4.6,0,0,1,.35,1.86A3.71,3.71,0,0,1,65.19,14.38ZM61.9,13a2.21,2.21,0,0,0,1.55-.51A1.73,1.73,0,0,0,64,11.13a1.76,1.76,0,0,0-.57-1.38,2.26,2.26,0,0,0-1.55-.5H58.77V13Zm.21,6.9a2.18,2.18,0,0,0,1.56-.54,1.91,1.91,0,0,0,.58-1.48,1.91,1.91,0,0,0-.58-1.48,2.22,2.22,0,0,0-1.56-.53H58.77v4Z"/><path class="cls-1" d="M79.4,22.77l-3.19-6.53h-2.3v6.53h-3.2V6.4h6.42a5.87,5.87,0,0,1,2.23.4A5.17,5.17,0,0,1,81,7.88a4.35,4.35,0,0,1,1,1.59,5.19,5.19,0,0,1,.36,1.94A4.73,4.73,0,0,1,82.2,13a4.46,4.46,0,0,1-.66,1.24,4.32,4.32,0,0,1-1,.91,4.42,4.42,0,0,1-1.14.59l3.66,7.06Zm-.16-11.36a2.06,2.06,0,0,0-.63-1.56,2.34,2.34,0,0,0-1.69-.6h-3v4.32h3a2.34,2.34,0,0,0,1.69-.6A2,2,0,0,0,79.24,11.41Z"/><path class="cls-1" d="M85.75,22.77V6.4H89V22.77Z"/><path class="cls-1" d="M104.66,14.58q0,1,0,1.86a14.1,14.1,0,0,1-.11,1.54,6.15,6.15,0,0,1-.31,1.28,4.8,4.8,0,0,1-.59,1.12,5.41,5.41,0,0,1-2.07,1.82,6.59,6.59,0,0,1-2.87.57H92.77V6.4h5.91a6.59,6.59,0,0,1,2.87.57,5.32,5.32,0,0,1,2.07,1.82,4.94,4.94,0,0,1,.59,1.11,6.09,6.09,0,0,1,.31,1.29,14.1,14.1,0,0,1,.11,1.54C104.65,13.29,104.66,13.91,104.66,14.58Zm-3.2,0c0-.64,0-1.2,0-1.66s0-.87-.09-1.2a4.73,4.73,0,0,0-.2-.84,1.83,1.83,0,0,0-.36-.62,2.87,2.87,0,0,0-2.39-1H96V19.92H98.4a2.87,2.87,0,0,0,2.39-1,1.94,1.94,0,0,0,.36-.62,4.73,4.73,0,0,0,.2-.84q.06-.49.09-1.2C101.45,15.78,101.46,15.23,101.46,14.58Z"/><path class="cls-1" d="M119.58,16.06a10.82,10.82,0,0,1-.33,2.92A4.93,4.93,0,0,1,118,21.05a5.51,5.51,0,0,1-2.17,1.47,7.53,7.53,0,0,1-2.45.39A5.95,5.95,0,0,1,109,21.19a5.26,5.26,0,0,1-1-1.29,5.82,5.82,0,0,1-.48-1.46,11.35,11.35,0,0,1-.18-1.74c0-.63,0-1.33,0-2.12s0-1.48,0-2.11a11.35,11.35,0,0,1,.18-1.74,5.69,5.69,0,0,1,.48-1.46A5.26,5.26,0,0,1,109,8a5.95,5.95,0,0,1,4.37-1.72,6.45,6.45,0,0,1,2.5.44,5.55,5.55,0,0,1,1.84,1.16A5.63,5.63,0,0,1,119,9.52a7.22,7.22,0,0,1,.61,2h-3.22a2.76,2.76,0,0,0-2.94-2.39,2.73,2.73,0,0,0-1.18.24,3,3,0,0,0-.87.63,2.46,2.46,0,0,0-.38.57,3.14,3.14,0,0,0-.24.81,11.63,11.63,0,0,0-.13,1.28c0,.51,0,1.16,0,1.94s0,1.43,0,2a11.17,11.17,0,0,0,.13,1.27,3.32,3.32,0,0,0,.24.83,2.33,2.33,0,0,0,.38.58,3,3,0,0,0,.87.62,2.89,2.89,0,0,0,1.18.23,3.36,3.36,0,0,0,1.31-.24,2.79,2.79,0,0,0,1-.68,3,3,0,0,0,.56-1,4.07,4.07,0,0,0,.17-1.19v-.59h-3v-2.7h6.18Z"/><path class="cls-1" d="M122.85,22.77V6.4h10.79V9.25h-7.59v3.84h6.46v2.85h-6.46v4h7.59v2.85Z"/><rect class="cls-1" x="56" y="32.86" width="78" height="6"/></svg>