<svg id="OLIVE" xmlns="http://www.w3.org/2000/svg" viewBox="0 0 187.99 43"><defs><style>.cls-1{fill:#afaf85;}</style></defs><title>heel_off_olive</title><path class="cls-1" d="M23.33,23.13V16.28H17.79v6.85h-3.2V6.75h3.2v6.7h5.54V6.75h3.2V23.13Z"/><path class="cls-1" d="M30.34,23.13V6.75H41.13V9.61H33.54v3.84H40V16.3H33.54v4h7.59v2.85Z"/><path class="cls-1" d="M44.26,23.13V6.75H55.05V9.61H47.46v3.84h6.46V16.3H47.46v4h7.59v2.85Z"/><path class="cls-1" d="M58.17,23.13V6.75h3.2V20.28H68.8v2.85Z"/><path class="cls-1" d="M87.32,18.3a4.79,4.79,0,0,1-.46,2.12A4.57,4.57,0,0,1,85.58,22a5.82,5.82,0,0,1-1.93,1,8.16,8.16,0,0,1-2.41.34,10.6,10.6,0,0,1-3.32-.48,6.52,6.52,0,0,1-2.66-1.68L77.33,19a4.24,4.24,0,0,0,1.8,1.08,7.48,7.48,0,0,0,2.14.3,3.75,3.75,0,0,0,2.18-.53,1.77,1.77,0,0,0,.74-1.52A1.83,1.83,0,0,0,83.68,17a1.68,1.68,0,0,0-.55-.34,4.38,4.38,0,0,0-.92-.21l-2-.3a7.58,7.58,0,0,1-1.86-.49,4.61,4.61,0,0,1-1.31-.87,4.25,4.25,0,0,1-1.17-3.22,5.07,5.07,0,0,1,.39-2A4.18,4.18,0,0,1,77.43,8a5.23,5.23,0,0,1,1.79-1,7.36,7.36,0,0,1,2.39-.36,9.12,9.12,0,0,1,3,.43A6.16,6.16,0,0,1,86.9,8.52l-2,2a3.37,3.37,0,0,0-1.66-.94,8,8,0,0,0-1.7-.19,2.58,2.58,0,0,0-1.9.61A2,2,0,0,0,79,11.47a1.88,1.88,0,0,0,.11.62,1.43,1.43,0,0,0,.35.55,2.46,2.46,0,0,0,.61.39,3,3,0,0,0,.89.23l2,.3a8.23,8.23,0,0,1,1.87.46,3.79,3.79,0,0,1,1.26.83,3.42,3.42,0,0,1,1,1.47A6.06,6.06,0,0,1,87.32,18.3Z"/><path class="cls-1" d="M102.13,17.52a5.86,5.86,0,0,1-.47,2.37,5.59,5.59,0,0,1-1.29,1.8,5.79,5.79,0,0,1-1.91,1.16,6.55,6.55,0,0,1-2.36.42,6.45,6.45,0,0,1-2.35-.42,5.84,5.84,0,0,1-1.92-1.16,5.42,5.42,0,0,1-1.28-1.8,5.7,5.7,0,0,1-.47-2.37V6.75h3.19V17.4A3.11,3.11,0,0,0,94,19.62a3.09,3.09,0,0,0,4.15,0A3,3,0,0,0,99,17.4V6.75h3.18Z"/><path class="cls-1" d="M117.45,11.86a5.43,5.43,0,0,1-.37,2,4.76,4.76,0,0,1-2.76,2.73A6.13,6.13,0,0,1,112,17h-3.15v6.17h-3.2V6.75H112a6.13,6.13,0,0,1,2.28.41,4.76,4.76,0,0,1,1.7,1.1,4.94,4.94,0,0,1,1.06,1.63A5.43,5.43,0,0,1,117.45,11.86Zm-3.2,0a2.17,2.17,0,0,0-.63-1.63,2.36,2.36,0,0,0-1.74-.62h-3v4.48h3a2.4,2.4,0,0,0,1.74-.61A2.16,2.16,0,0,0,114.25,11.86Z"/><path class="cls-1" d="M131.89,11.86a5.23,5.23,0,0,1-.37,2,4.76,4.76,0,0,1-2.76,2.73,6.06,6.06,0,0,1-2.28.4h-3.15v6.17h-3.19V6.75h6.34a6.06,6.06,0,0,1,2.28.41,4.67,4.67,0,0,1,1.7,1.1,4.78,4.78,0,0,1,1.06,1.63A5.23,5.23,0,0,1,131.89,11.86Zm-3.2,0a2.17,2.17,0,0,0-.63-1.63,2.35,2.35,0,0,0-1.74-.62h-3v4.48h3a2.38,2.38,0,0,0,1.74-.61A2.16,2.16,0,0,0,128.69,11.86Z"/><path class="cls-1" d="M146.13,14.94c0,.78,0,1.49,0,2.12a11.16,11.16,0,0,1-.19,1.73,6,6,0,0,1-.5,1.46,4.87,4.87,0,0,1-1,1.29,5.91,5.91,0,0,1-1.89,1.28,6.28,6.28,0,0,1-2.48.45,6.41,6.41,0,0,1-2.5-.45,6.06,6.06,0,0,1-1.9-1.28,4.87,4.87,0,0,1-1-1.29,5.56,5.56,0,0,1-.48-1.46,12.54,12.54,0,0,1-.19-1.73c0-.63,0-1.34,0-2.12s0-1.49,0-2.12a12.71,12.71,0,0,1,.19-1.73,5.56,5.56,0,0,1,.48-1.46,4.87,4.87,0,0,1,1-1.29,6.06,6.06,0,0,1,1.9-1.28,6.42,6.42,0,0,1,2.5-.44,6.28,6.28,0,0,1,2.48.44,5.91,5.91,0,0,1,1.89,1.28,4.87,4.87,0,0,1,1,1.29,6,6,0,0,1,.5,1.46,11.3,11.3,0,0,1,.19,1.73C146.11,13.45,146.13,14.16,146.13,14.94Zm-3.2,0c0-.78,0-1.43-.05-1.94a11.38,11.38,0,0,0-.13-1.28,3.65,3.65,0,0,0-.25-.82,2.31,2.31,0,0,0-.38-.56,2.53,2.53,0,0,0-.86-.63,2.76,2.76,0,0,0-1.18-.24,2.74,2.74,0,0,0-2.07.87,2.31,2.31,0,0,0-.38.56,3.23,3.23,0,0,0-.24.82,9.43,9.43,0,0,0-.13,1.28c0,.51,0,1.16,0,1.94s0,1.43,0,1.94a9.09,9.09,0,0,0,.13,1.27,3.27,3.27,0,0,0,.24.81,2.31,2.31,0,0,0,.38.56,3,3,0,0,0,.88.64,2.67,2.67,0,0,0,1.19.26,2.63,2.63,0,0,0,1.18-.26,2.69,2.69,0,0,0,.86-.64,2.31,2.31,0,0,0,.38-.56,3.72,3.72,0,0,0,.25-.81,10.92,10.92,0,0,0,.13-1.27C142.91,16.37,142.93,15.72,142.93,14.94Z"/><path class="cls-1" d="M158.09,23.13l-3.2-6.53h-2.3v6.53h-3.2V6.75h6.42a5.83,5.83,0,0,1,2.23.41,4.86,4.86,0,0,1,1.68,1.08,4.56,4.56,0,0,1,1.05,1.58,5.48,5.48,0,0,1,.35,1.95,4.73,4.73,0,0,1-.24,1.56,4.51,4.51,0,0,1-.65,1.23,4.4,4.4,0,0,1-1,.92,4.75,4.75,0,0,1-1.14.59l3.66,7.06Zm-.17-11.36a2.06,2.06,0,0,0-.63-1.57,2.34,2.34,0,0,0-1.69-.59h-3v4.32h3a2.34,2.34,0,0,0,1.69-.6A2.06,2.06,0,0,0,157.92,11.77Z"/><path class="cls-1" d="M170.34,9.61V23.13h-3.19V9.61h-4.28V6.75h11.75V9.61Z"/></svg>