<svg id="BLACK" xmlns="http://www.w3.org/2000/svg" viewBox="0 0 174.57 43"><title>knit_on_black</title><path d="M39.91,11.5a5.43,5.43,0,0,1-.37,2,4.81,4.81,0,0,1-2.76,2.74,6.34,6.34,0,0,1-2.28.4H31.35v6.16h-3.2V6.4H34.5a6.13,6.13,0,0,1,2.28.4,5,5,0,0,1,1.7,1.1,4.88,4.88,0,0,1,1.06,1.64A5.38,5.38,0,0,1,39.91,11.5Zm-3.2,0a2.18,2.18,0,0,0-.63-1.63,2.39,2.39,0,0,0-1.74-.62h-3v4.48h3a2.38,2.38,0,0,0,1.74-.61A2.13,2.13,0,0,0,36.71,11.5Z"/><path d="M51.29,22.77l-3.2-6.53h-2.3v6.53H42.6V6.4H49a5.88,5.88,0,0,1,2.24.4,5.23,5.23,0,0,1,1.67,1.08,4.5,4.5,0,0,1,1,1.59,5.19,5.19,0,0,1,.36,1.94,4.45,4.45,0,0,1-.9,2.8,4.55,4.55,0,0,1-1,.91,4.42,4.42,0,0,1-1.14.59L55,22.77Zm-.16-11.36a2.06,2.06,0,0,0-.63-1.56,2.36,2.36,0,0,0-1.69-.6h-3v4.32h3A2.36,2.36,0,0,0,50.5,13,2,2,0,0,0,51.13,11.41Z"/><path d="M57.64,22.77V6.4h3.2V22.77Z"/><path d="M76.29,22.77V13.23l-3.13,6.21H71l-3.15-6.21v9.54h-3.2V6.4h3.16l4.27,8.85L76.34,6.4h3.15V22.77Z"/><path d="M83.31,22.77V6.4H94.09V9.25H86.5v3.84H93v2.85H86.5v4h7.59v2.85Z"/><path d="M106.74,22.77l-4.2-7.45-2.12,2.53v4.92h-3.2V6.4h3.2v7.13l5.77-7.13h3.89l-5.43,6.5,5.82,9.87Z"/><path d="M122.2,22.77l-6.49-10v10h-3.19V6.4h2.85l6.48,10V6.4h3.2V22.77Z"/><path d="M128.87,22.77V6.4h3.2V22.77Z"/><path d="M142.14,9.25V22.77h-3.2V9.25h-4.27V6.4h11.75V9.25Z"/><rect x="28.29" y="32.86" width="118" height="6"/></svg>