<svg id="GREY" xmlns="http://www.w3.org/2000/svg" viewBox="0 0 174.57 43"><defs><style>.cls-1{fill:gray;}</style></defs><title>knit_on_grey</title><rect class="cls-1" x="34.29" y="32.86" width="104" height="6"/><path class="cls-1" d="M44.51,22.88l-1-2.9H37.72l-1,2.9H33.4l6-16.38h2.51l6,16.38ZM40.69,11.33l-2.07,6h4.07Z"/><path class="cls-1" d="M61.76,14.69q0,1,0,1.85a15.08,15.08,0,0,1-.11,1.54,5.87,5.87,0,0,1-.31,1.29,5,5,0,0,1-.59,1.12,5.4,5.4,0,0,1-2.07,1.82,6.58,6.58,0,0,1-2.87.58H49.87V6.5h5.91a6.58,6.58,0,0,1,2.88.58,5.4,5.4,0,0,1,2.07,1.82A5,5,0,0,1,61.31,10a5.88,5.88,0,0,1,.31,1.29,15.12,15.12,0,0,1,.11,1.54Q61.76,13.68,61.76,14.69Zm-3.2,0q0-1,0-1.67a11.56,11.56,0,0,0-.09-1.2,4.13,4.13,0,0,0-.2-.84,2.08,2.08,0,0,0-.36-.62,2.87,2.87,0,0,0-2.39-1H53.07V20H55.5a2.87,2.87,0,0,0,2.39-1,2.08,2.08,0,0,0,.36-.62,4.11,4.11,0,0,0,.2-.84,11.56,11.56,0,0,0,.09-1.2Q58.56,15.65,58.56,14.69Z"/><path class="cls-1" d="M74.11,22.88l-1-2.9H67.33l-1,2.9H63L69,6.5h2.51l6,16.38ZM70.29,11.33l-2.07,6h4.07Z"/><path class="cls-1" d="M91.22,11.61a5.31,5.31,0,0,1-.37,2,4.77,4.77,0,0,1-2.76,2.74,6.12,6.12,0,0,1-2.28.4H82.67v6.16h-3.2V6.5h6.35a6.14,6.14,0,0,1,2.28.4,4.77,4.77,0,0,1,2.76,2.74A5.31,5.31,0,0,1,91.22,11.61Zm-3.2,0A2.19,2.19,0,0,0,87.39,10a2.37,2.37,0,0,0-1.74-.62h-3v4.49h3a2.4,2.4,0,0,0,1.74-.61A2.15,2.15,0,0,0,88,11.61Z"/><path class="cls-1" d="M100.05,9.35V22.88h-3.2V9.35H92.58V6.5h11.75V9.35Z"/><path class="cls-1" d="M106.93,22.88V6.5h3.2V22.88Z"/><path class="cls-1" d="M119.9,22.88h-2.39L112.11,6.5h3.31l3.29,10.67L122,6.5h3.33Z"/><path class="cls-1" d="M127.31,22.88V6.5H138.1V9.35h-7.59v3.84H137V16h-6.46v4h7.59v2.85Z"/></svg>