<svg xmlns="http://www.w3.org/2000/svg" viewBox="0 0 212 39"><defs><style>.cls-1{fill:#a6b9df;}</style></defs><title>lux_off copy</title><g id="Layer_2" data-name="Layer 2"><rect class="cls-1" y="-0.5" width="212" height="40"/></g><g id="Layer_1" data-name="Layer 1"><polygon points="143.02 26.56 140.65 23.96 145.56 19.5 140.65 15.04 143.02 12.44 150.8 19.5 143.02 26.56"/><path d="M61.2,25.39V13.29h1.9V23.67h3.18v1.72Z"/><path d="M67.71,25.39V13.29h5.08V15H69.61v3.44h2.74v1.72H69.61v3.51h3.18v1.72Z"/><path d="M79.29,25.39l-.5-2.4H76l-.48,2.4h-2l3-12.1h1.85l2.94,12.1ZM77.4,16.21l-1,5.07h2.08Z"/><path d="M87,25.39l-1.58-5H84.3v5H82.4V13.29h3.06a3,3,0,0,1,2.38.84,4.23,4.23,0,0,1,.71,2.73,5.71,5.71,0,0,1-.29,1.92A2.22,2.22,0,0,1,87.14,20l1.8,5.37Zm-.3-8.53a5.55,5.55,0,0,0-.05-.72,1.77,1.77,0,0,0-.16-.59,1,1,0,0,0-.35-.4,1.16,1.16,0,0,0-.62-.15H84.3v3.71h1.17a1.26,1.26,0,0,0,.62-.14,1,1,0,0,0,.35-.4,1.76,1.76,0,0,0,.16-.6A5.27,5.27,0,0,0,86.65,16.86Z"/><path d="M95.28,25.39,92.43,18.2v7.19H90.52V13.29h1.7l2.84,7.19V13.29H97v12.1Z"/><path d="M108.27,25.39V17.84l-1.65,5h-1.05L104,17.93v7.46h-1.9V13.29h1.72l2.34,6.36,2.33-6.36h1.74v12.1Z"/><path d="M118.35,19.34c0,.71,0,1.34,0,1.88s-.06,1-.11,1.42a4.45,4.45,0,0,1-.27,1.05,2.94,2.94,0,0,1-.48.8,3,3,0,0,1-.94.74,3.46,3.46,0,0,1-2.82,0,3,3,0,0,1-.93-.74,2.56,2.56,0,0,1-.48-.81,5.37,5.37,0,0,1-.26-1.05,9.28,9.28,0,0,1-.12-1.41c0-.54,0-1.17,0-1.88s0-1.34,0-1.88a9.28,9.28,0,0,1,.12-1.41A5.37,5.37,0,0,1,112.3,15a2.56,2.56,0,0,1,.48-.81,2.87,2.87,0,0,1,2.34-1,3,3,0,0,1,1.41.3,3,3,0,0,1,.94.74,2.94,2.94,0,0,1,.48.8,4.45,4.45,0,0,1,.27,1c0,.41.09.88.11,1.42S118.35,18.63,118.35,19.34Zm-1.9,0c0-1.11,0-2-.07-2.62a3.26,3.26,0,0,0-.34-1.39,1,1,0,0,0-.36-.33,1,1,0,0,0-.56-.13,1,1,0,0,0-.55.13,1,1,0,0,0-.35.33,3.24,3.24,0,0,0-.35,1.39c-.05.64-.07,1.51-.07,2.62s0,2,.07,2.62a3.24,3.24,0,0,0,.35,1.39,1,1,0,0,0,.35.33,1,1,0,0,0,.55.13,1,1,0,0,0,.56-.13,1,1,0,0,0,.36-.33,3.26,3.26,0,0,0,.34-1.39C116.43,21.32,116.45,20.45,116.45,19.34Z"/><path d="M124.62,25.39l-1.58-5H122v5h-1.9V13.29h3.06a3,3,0,0,1,2.38.84,4.23,4.23,0,0,1,.71,2.73,5.47,5.47,0,0,1-.29,1.92A2.22,2.22,0,0,1,124.81,20l1.8,5.37Zm-.3-8.53c0-.25,0-.49,0-.72a2,2,0,0,0-.17-.59.91.91,0,0,0-.35-.4,1.15,1.15,0,0,0-.61-.15H122v3.71h1.18a1.25,1.25,0,0,0,.61-.14.91.91,0,0,0,.35-.4,2,2,0,0,0,.17-.6C124.3,17.35,124.32,17.11,124.32,16.86Z"/><path d="M128.19,25.39V13.29h5.09V15H130.1v3.44h2.74v1.72H130.1v3.51h3.18v1.72Z"/></g></svg>