<svg xmlns="http://www.w3.org/2000/svg" viewBox="0 0 212 39"><defs><style>.cls-1{fill:#ffbf59;}</style></defs><title>learn_off</title><g id="Layer_2" data-name="Layer 2"><rect class="cls-1" y="-0.5" width="212" height="40"/></g><g id="Layer_1" data-name="Layer 1"><polygon points="147.53 17.16 149.77 15.12 153.62 19.36 157.47 15.12 159.72 17.16 153.62 23.88 147.53 17.16"/><path d="M56,24.58V14.42h1.54V23.2h4.9v1.38Z"/><path d="M64.2,24.58V14.42h6.49V15.8h-5v3H70v1.37H65.74V23.2h5v1.38Z"/><path d="M78.65,24.58l-.7-2h-4l-.69,2H71.59l3.73-10.16h1.24l3.73,10.16ZM76,16.72l-1.59,4.51h3.13Z"/><path d="M87.34,24.58,85.2,20.3H83.27v4.28H81.73V14.42h3.94a3.6,3.6,0,0,1,1.31.22,3.11,3.11,0,0,1,1,.61,2.66,2.66,0,0,1,.64.94,3.37,3.37,0,0,1,.22,1.2,2.61,2.61,0,0,1-.59,1.77,2.93,2.93,0,0,1-1.44.93l2.34,4.49Zm0-7.18a1.49,1.49,0,0,0-.48-1.18,1.84,1.84,0,0,0-1.25-.42H83.27V19h2.29a1.84,1.84,0,0,0,1.25-.42A1.45,1.45,0,0,0,87.29,17.4Z"/><path d="M97.32,24.58l-4.69-7.15v7.15H91.08V14.42H92.5l4.7,7.14V14.42h1.54V24.58Z"/><path d="M112.25,24.58V17.79l-2.35,4.95h-1.14l-2.4-4.95v6.79h-1.54V14.42h1.54l3,6.32,2.92-6.32h1.54V24.58Z"/><path d="M123.37,19.5c0,.53,0,1,0,1.41a8.09,8.09,0,0,1-.12,1.08,3.53,3.53,0,0,1-.31.88,3.11,3.11,0,0,1-.58.77,3.53,3.53,0,0,1-1.14.77,4,4,0,0,1-1.49.26,4,4,0,0,1-1.48-.26,3.53,3.53,0,0,1-1.14-.77,3.11,3.11,0,0,1-.58-.77,3.53,3.53,0,0,1-.31-.88,5.75,5.75,0,0,1-.12-1.08c0-.41,0-.88,0-1.41s0-1,0-1.41A5.75,5.75,0,0,1,116.2,17a3.53,3.53,0,0,1,.31-.88,3.11,3.11,0,0,1,.58-.77,3.35,3.35,0,0,1,1.14-.76,3.79,3.79,0,0,1,1.48-.27,3.85,3.85,0,0,1,1.49.27,3.35,3.35,0,0,1,1.14.76,3.11,3.11,0,0,1,.58.77,3.53,3.53,0,0,1,.31.88,8.09,8.09,0,0,1,.12,1.08C123.36,18.5,123.37,19,123.37,19.5Zm-1.54,0c0-.5,0-.93,0-1.27a8.4,8.4,0,0,0-.09-.87,2,2,0,0,0-.19-.59,1.9,1.9,0,0,0-.3-.44,2,2,0,0,0-1.52-.63,2,2,0,0,0-1.51.63,1.94,1.94,0,0,0-.31.44,2.13,2.13,0,0,0-.18.6,6,6,0,0,0-.09.86c0,.34,0,.77,0,1.27s0,.93,0,1.26a6.32,6.32,0,0,0,.09.87,2.06,2.06,0,0,0,.18.59,2.19,2.19,0,0,0,.31.44,2.14,2.14,0,0,0,2.36.47,2.25,2.25,0,0,0,.67-.47,2.14,2.14,0,0,0,.3-.44,2,2,0,0,0,.19-.59,7.89,7.89,0,0,0,.09-.86C121.82,20.43,121.83,20,121.83,19.5Z"/><path d="M131.26,24.58l-2.14-4.28H127.2v4.28h-1.55V14.42h3.94a3.6,3.6,0,0,1,1.31.22,2.91,2.91,0,0,1,1,.61,2.66,2.66,0,0,1,.64.94,3.16,3.16,0,0,1,.22,1.2,2.61,2.61,0,0,1-.59,1.77,2.93,2.93,0,0,1-1.44.93l2.34,4.49Zm0-7.18a1.49,1.49,0,0,0-.48-1.18,1.84,1.84,0,0,0-1.25-.42H127.2V19h2.28a1.84,1.84,0,0,0,1.25-.42A1.45,1.45,0,0,0,131.21,17.4Z"/><path d="M135,24.58V14.42h6.49V15.8h-4.95v3h4.22v1.37h-4.22V23.2h4.95v1.38Z"/></g></svg>