<svg xmlns="http://www.w3.org/2000/svg" viewBox="0 0 212 39"><defs><style>.cls-1{fill:#fff;}</style></defs><title>lux_off_1</title><g id="Layer_2" data-name="Layer 2"><rect y="-0.5" width="212" height="40"/></g><g id="Layer_1" data-name="Layer 1"><path class="cls-1" d="M39.38,21.34a2.25,2.25,0,0,1-.23,1.05,2.21,2.21,0,0,1-.63.79,3,3,0,0,1-1,.5,4.43,4.43,0,0,1-1.24.16,5.06,5.06,0,0,1-1.69-.25,3.64,3.64,0,0,1-1.33-.87l.85-.86a2.5,2.5,0,0,0,1,.65,3.7,3.7,0,0,0,1.18.18,2.13,2.13,0,0,0,1.31-.34,1.14,1.14,0,0,0,.46-1,1.1,1.1,0,0,0-.34-.89,1.82,1.82,0,0,0-.93-.36l-1-.14a3,3,0,0,1-1.61-.68,2.15,2.15,0,0,1-.64-1.65,2.56,2.56,0,0,1,.2-1,2.14,2.14,0,0,1,.57-.79,2.5,2.5,0,0,1,.89-.51,3.69,3.69,0,0,1,1.2-.18,4.31,4.31,0,0,1,1.48.22,3.58,3.58,0,0,1,1.17.75l-.81.81a2.2,2.2,0,0,0-.87-.52,3.64,3.64,0,0,0-1-.14,1.61,1.61,0,0,0-1.15.38,1.25,1.25,0,0,0-.4,1,1.27,1.27,0,0,0,.08.44.69.69,0,0,0,.24.35,1.54,1.54,0,0,0,.37.23,2.61,2.61,0,0,0,.56.15l1,.16a4.21,4.21,0,0,1,.95.24,2.2,2.2,0,0,1,.64.39A2.28,2.28,0,0,1,39.38,21.34Z"/><path class="cls-1" d="M45.89,23.77V20H42.42v3.73h-1.3V15.23h1.3v3.65h3.47V15.23h1.29v8.54Z"/><path class="cls-1" d="M55.25,19.5c0,.45,0,.84,0,1.18a5.75,5.75,0,0,1-.1.91,2.81,2.81,0,0,1-.26.74,2.64,2.64,0,0,1-.49.65,2.94,2.94,0,0,1-1,.64,3.63,3.63,0,0,1-2.49,0A2.94,2.94,0,0,1,50,23a2.64,2.64,0,0,1-.49-.65,2.81,2.81,0,0,1-.26-.74,5.75,5.75,0,0,1-.1-.91c0-.34,0-.73,0-1.18s0-.84,0-1.18a5.75,5.75,0,0,1,.1-.91,2.81,2.81,0,0,1,.26-.74A2.64,2.64,0,0,1,50,16a2.94,2.94,0,0,1,1-.64,3.63,3.63,0,0,1,2.49,0,2.94,2.94,0,0,1,1,.64,2.64,2.64,0,0,1,.49.65,2.81,2.81,0,0,1,.26.74,5.75,5.75,0,0,1,.1.91C55.24,18.66,55.25,19.05,55.25,19.5Zm-1.3,0c0-.42,0-.78,0-1.07a4.63,4.63,0,0,0-.07-.73,1.84,1.84,0,0,0-.16-.5,1.45,1.45,0,0,0-.25-.36,1.8,1.8,0,0,0-2.55,0,1.34,1.34,0,0,0-.25.37,1.55,1.55,0,0,0-.16.5,4.38,4.38,0,0,0-.07.72c0,.29,0,.65,0,1.07s0,.78,0,1.06a4.63,4.63,0,0,0,.07.73,1.63,1.63,0,0,0,.16.5,1.45,1.45,0,0,0,.25.36,1.71,1.71,0,0,0,1.27.54,1.8,1.8,0,0,0,.71-.14,1.78,1.78,0,0,0,.57-.4,1.45,1.45,0,0,0,.25-.36,2,2,0,0,0,.16-.5,4.38,4.38,0,0,0,.07-.72C53.94,20.28,54,19.92,54,19.5Z"/><path class="cls-1" d="M63.14,17.82a2.63,2.63,0,0,1-.19,1,2.42,2.42,0,0,1-.55.82,2.56,2.56,0,0,1-.87.54,3.06,3.06,0,0,1-1.12.19H58.46v3.37H57.17V15.23h3.24a2.87,2.87,0,0,1,1.12.2,2.56,2.56,0,0,1,.87.54,2.24,2.24,0,0,1,.55.82A2.7,2.7,0,0,1,63.14,17.82Zm-1.29,0a1.34,1.34,0,0,0-.42-1.06,1.61,1.61,0,0,0-1.1-.37H58.46v2.86h1.87a1.61,1.61,0,0,0,1.1-.37A1.34,1.34,0,0,0,61.85,17.82Z"/><path class="cls-1" d="M67.59,23.77V15.23h5.46v1.16H68.89v2.5h3.55V20H68.89v2.57h4.16v1.16Z"/><path class="cls-1" d="M80.9,19.5c0,.34,0,.67,0,1a5.46,5.46,0,0,1-.08.85,3.35,3.35,0,0,1-.2.74,2,2,0,0,1-.36.63,2.73,2.73,0,0,1-1,.82,3.29,3.29,0,0,1-1.39.26h-3V15.23h3a3.29,3.29,0,0,1,1.39.26,2.73,2.73,0,0,1,1,.82,2,2,0,0,1,.36.63,3.35,3.35,0,0,1,.2.74,5.46,5.46,0,0,1,.08.85C80.9,18.83,80.9,19.16,80.9,19.5Zm-1.29,0a13.22,13.22,0,0,0-.08-1.57,1.62,1.62,0,0,0-.38-1,1.56,1.56,0,0,0-.64-.45,2.39,2.39,0,0,0-.82-.14H76.13v6.24h1.56a2.39,2.39,0,0,0,.82-.14,1.56,1.56,0,0,0,.64-.45,1.62,1.62,0,0,0,.38-1A13.22,13.22,0,0,0,79.61,19.5Z"/><path class="cls-1" d="M88.7,20.46a5,5,0,0,1-.17,1.4,2.69,2.69,0,0,1-.6,1,3,3,0,0,1-1.07.74,3.38,3.38,0,0,1-1.28.23,3.24,3.24,0,0,1-1.25-.22,2.94,2.94,0,0,1-1-.64,2.6,2.6,0,0,1-.48-.65,2.81,2.81,0,0,1-.26-.74,4.77,4.77,0,0,1-.1-.91c0-.34,0-.73,0-1.18s0-.84,0-1.18a4.77,4.77,0,0,1,.1-.91,2.81,2.81,0,0,1,.26-.74,2.6,2.6,0,0,1,.48-.65,2.94,2.94,0,0,1,1-.64,3.24,3.24,0,0,1,1.25-.22,3.3,3.3,0,0,1,1.21.21,2.85,2.85,0,0,1,1.56,1.41,3.59,3.59,0,0,1,.33,1h-1.3a2,2,0,0,0-.62-1.1,1.77,1.77,0,0,0-1.18-.39,1.66,1.66,0,0,0-1.27.53,1.64,1.64,0,0,0-.26.37,1.56,1.56,0,0,0-.15.5,5.61,5.61,0,0,0-.08.72c0,.29,0,.65,0,1.07s0,.78,0,1.07a5.61,5.61,0,0,0,.08.72,1.56,1.56,0,0,0,.15.5,1.64,1.64,0,0,0,.26.37,1.66,1.66,0,0,0,1.27.53,2.09,2.09,0,0,0,.79-.15,1.76,1.76,0,0,0,.62-.46,1.48,1.48,0,0,0,.33-.6,2.78,2.78,0,0,0,.09-.74v-.48H85.58V19.15H88.7Z"/><path class="cls-1" d="M90.61,23.77V15.23h5.46v1.16H91.91v2.5h3.55V20H91.91v2.57h4.16v1.16Z"/><path class="cls-1" d="M100.73,23.77V15.23H102v7.38h4.12v1.16Z"/><path class="cls-1" d="M113.13,20.89a3,3,0,0,1-.23,1.21,2.79,2.79,0,0,1-.65.93,3.11,3.11,0,0,1-1,.6,3.42,3.42,0,0,1-1.21.21,3.46,3.46,0,0,1-1.21-.21,3.06,3.06,0,0,1-1-.6,2.76,2.76,0,0,1-.64-.93,3,3,0,0,1-.24-1.21V15.23h1.3v5.6a1.87,1.87,0,0,0,.48,1.36,1.93,1.93,0,0,0,2.57,0,1.83,1.83,0,0,0,.49-1.36v-5.6h1.29Z"/><path class="cls-1" d="M119.43,23.77l-1.86-3.27-1.84,3.27h-1.49l2.64-4.38-2.48-4.16h1.49l1.68,3.06,1.7-3.06h1.48l-2.47,4.16,2.65,4.38Z"/><path class="cls-1" d="M132,23.77h-1.13l-1.74-6-1.72,6H126.3l-2.23-8.54h1.36l1.49,6.11,1.72-6.11h1l1.72,6.11,1.49-6.11h1.36Z"/><path class="cls-1" d="M141.21,19.5c0,.45,0,.84,0,1.18a5.67,5.67,0,0,1-.11.91,2.5,2.5,0,0,1-.26.74,2.37,2.37,0,0,1-.48.65,2.94,2.94,0,0,1-1,.64,3.66,3.66,0,0,1-2.5,0,2.94,2.94,0,0,1-1-.64,2.6,2.6,0,0,1-.48-.65,2.5,2.5,0,0,1-.26-.74,4.77,4.77,0,0,1-.1-.91c0-.34,0-.73,0-1.18s0-.84,0-1.18a4.77,4.77,0,0,1,.1-.91,2.5,2.5,0,0,1,.26-.74,2.6,2.6,0,0,1,.48-.65,2.94,2.94,0,0,1,1-.64,3.66,3.66,0,0,1,2.5,0,2.94,2.94,0,0,1,1,.64,2.37,2.37,0,0,1,.48.65,2.5,2.5,0,0,1,.26.74,5.67,5.67,0,0,1,.11.91C141.21,18.66,141.21,19.05,141.21,19.5Zm-1.29,0c0-.42,0-.78,0-1.07a6.25,6.25,0,0,0-.07-.73,1.84,1.84,0,0,0-.16-.5,1.5,1.5,0,0,0-.26-.36,1.73,1.73,0,0,0-2.8.37,1.56,1.56,0,0,0-.15.5,5.61,5.61,0,0,0-.08.72c0,.29,0,.65,0,1.07s0,.78,0,1.06a6,6,0,0,0,.08.73,1.64,1.64,0,0,0,.15.5,1.83,1.83,0,0,0,.26.36,1.85,1.85,0,0,0,.56.4,1.87,1.87,0,0,0,.71.14,1.83,1.83,0,0,0,.71-.14,1.74,1.74,0,0,0,.56-.4,1.5,1.5,0,0,0,.26-.36,2,2,0,0,0,.16-.5,5.84,5.84,0,0,0,.07-.72C139.91,20.28,139.92,19.92,139.92,19.5Z"/><path class="cls-1" d="M149.37,23.77V18.06l-2,4.16h-1l-2-4.16v5.71h-1.3V15.23h1.3l2.5,5.31,2.44-5.31h1.3v8.54Z"/><path class="cls-1" d="M152.89,23.77V15.23h5.46v1.16h-4.16v2.5h3.55V20h-3.55v2.57h4.16v1.16Z"/><path class="cls-1" d="M165.37,23.77l-4-6v6h-1.29V15.23h1.18l3.95,6v-6h1.3v8.54Z"/><polygon class="cls-1" points="172.34 25.29 170.4 23.15 174.42 19.5 170.4 15.85 172.34 13.71 178.71 19.5 172.34 25.29"/></g></svg>