<svg xmlns="http://www.w3.org/2000/svg" viewBox="0 0 212 39"><defs><style>.cls-1{fill:#f2f2f2;}</style></defs><title>lux_off</title><g id="Layer_2" data-name="Layer 2"><rect class="cls-1" y="-0.5" width="212" height="40"/></g><g id="Layer_1" data-name="Layer 1"><path d="M36.09,22a6.52,6.52,0,0,1-.16,1.58,2.25,2.25,0,0,1-.62,1.09,2.83,2.83,0,0,1-1,.58,4.16,4.16,0,0,1-1.4.22,3.2,3.2,0,0,1-2.35-.8,2.39,2.39,0,0,1-.61-1,6,6,0,0,1-.17-1.56h1.9a4.15,4.15,0,0,0,.07.8,1.39,1.39,0,0,0,.27.56,1.33,1.33,0,0,0,.35.23,1.38,1.38,0,0,0,.54.09,1.14,1.14,0,0,0,.92-.34,1.35,1.35,0,0,0,.25-.54,3.48,3.48,0,0,0,.07-.8c0-.32,0-.59,0-.8a1.49,1.49,0,0,0-.17-.54,1.33,1.33,0,0,0-.35-.36,2.41,2.41,0,0,0-.58-.29l-1.45-.6a3.58,3.58,0,0,1-.78-.42,2,2,0,0,1-.52-.59,3,3,0,0,1-.29-.84,6.79,6.79,0,0,1-.09-1.19A4,4,0,0,1,30.17,15a2.71,2.71,0,0,1,.74-1.1,3,3,0,0,1,.91-.53,3.24,3.24,0,0,1,1.16-.2,3.07,3.07,0,0,1,2.18.73A2.5,2.5,0,0,1,35.82,15,5.68,5.68,0,0,1,36,16.5H34.1a4,4,0,0,0-.05-.73,1.06,1.06,0,0,0-.24-.56,1,1,0,0,0-.85-.36,1.14,1.14,0,0,0-.48.09,1,1,0,0,0-.33.25,1.76,1.76,0,0,0-.32,1.19,5.53,5.53,0,0,0,0,.63,1.09,1.09,0,0,0,.14.43,1.18,1.18,0,0,0,.31.32,2.3,2.3,0,0,0,.52.25l1.43.58a4.18,4.18,0,0,1,.9.49,2.1,2.1,0,0,1,.56.66,3.46,3.46,0,0,1,.29.94A9.67,9.67,0,0,1,36.09,22Z"/><path d="M42,25.34V20.05H39.66v5.29h-1.9V13.23h1.9v5.1H42v-5.1h1.91V25.34Z"/><path d="M52.11,19.29c0,.71,0,1.34,0,1.87A13.28,13.28,0,0,1,52,22.58a4.7,4.7,0,0,1-.26,1.06,2.87,2.87,0,0,1-.49.8,3.27,3.27,0,0,1-.93.74,3.6,3.6,0,0,1-2.83,0,3.27,3.27,0,0,1-.93-.74,3,3,0,0,1-.48-.81,5.37,5.37,0,0,1-.26-1.05,13.28,13.28,0,0,1-.12-1.42c0-.53,0-1.16,0-1.87s0-1.34,0-1.88A12.85,12.85,0,0,1,45.79,16a5.3,5.3,0,0,1,.26-1.06,3,3,0,0,1,.48-.81,3.08,3.08,0,0,1,.93-.73,3.49,3.49,0,0,1,2.83,0,3.08,3.08,0,0,1,.93.73,2.87,2.87,0,0,1,.49.8A4.7,4.7,0,0,1,52,16a13.49,13.49,0,0,1,.11,1.42C52.1,18,52.11,18.57,52.11,19.29Zm-1.91,0c0-1.11,0-2-.07-2.62a3,3,0,0,0-.34-1.4,1.23,1.23,0,0,0-.35-.33,1.19,1.19,0,0,0-.56-.13,1.13,1.13,0,0,0-.56.13,1.37,1.37,0,0,0-.35.33,3.31,3.31,0,0,0-.34,1.4c-.05.63-.08,1.51-.08,2.62s0,2,.08,2.61A3.31,3.31,0,0,0,48,23.3a1.37,1.37,0,0,0,.35.33,1.13,1.13,0,0,0,.56.13,1.19,1.19,0,0,0,.56-.13,1.23,1.23,0,0,0,.35-.33,3,3,0,0,0,.34-1.4C50.18,21.27,50.2,20.4,50.2,19.29Z"/><path d="M60,16.92a4.39,4.39,0,0,1-.73,2.79,2.93,2.93,0,0,1-2.38.88H55.73v4.75H53.82V13.23h3a2.91,2.91,0,0,1,2.38.9A4.39,4.39,0,0,1,60,16.92Zm-1.91,0a3.35,3.35,0,0,0-.25-1.44,1,1,0,0,0-1-.53H55.73v3.93H56.8a1,1,0,0,0,1-.52A3.35,3.35,0,0,0,58.07,16.92Z"/><path d="M64.67,25.34V13.23h5.08V15H66.57v3.43h2.74V20.1H66.57v3.52h3.18v1.72Z"/><path d="M77.71,19.27c0,.7,0,1.32,0,1.84a10.91,10.91,0,0,1-.11,1.4,4.05,4.05,0,0,1-.26,1,2.4,2.4,0,0,1-.49.78,3,3,0,0,1-.92.72,3.09,3.09,0,0,1-1.42.29H71.4V13.23h3.08a3.09,3.09,0,0,1,1.42.29,3.17,3.17,0,0,1,.92.72,2.47,2.47,0,0,1,.49.77,4,4,0,0,1,.26,1,10.75,10.75,0,0,1,.11,1.39Q77.71,18.24,77.71,19.27Zm-1.91,0c0-1.07,0-1.9-.06-2.5a2.81,2.81,0,0,0-.34-1.33,1,1,0,0,0-.39-.35,1.18,1.18,0,0,0-.58-.14H73.3v8.67h1.13a1.18,1.18,0,0,0,.58-.13,1,1,0,0,0,.39-.36,2.84,2.84,0,0,0,.34-1.35C75.78,21.17,75.8,20.33,75.8,19.27Z"/><path d="M85.43,22.11a4.34,4.34,0,0,1-.23,1.46,3,3,0,0,1-.64,1.05,2.49,2.49,0,0,1-1,.64,3.56,3.56,0,0,1-1.25.21,3.1,3.1,0,0,1-1.41-.29,3.14,3.14,0,0,1-.93-.74,2.62,2.62,0,0,1-.48-.8,5.3,5.3,0,0,1-.26-1.06,9.42,9.42,0,0,1-.12-1.42c0-.53,0-1.16,0-1.87s0-1.34,0-1.88A9.54,9.54,0,0,1,79.25,16a5.3,5.3,0,0,1,.26-1.06,2.62,2.62,0,0,1,.48-.8,2.9,2.9,0,0,1,2.34-1,3.32,3.32,0,0,1,1.24.21,2.71,2.71,0,0,1,.92.6A3,3,0,0,1,85.16,15a4.91,4.91,0,0,1,.27,1.43H83.52a3.44,3.44,0,0,0,0-.54,1.93,1.93,0,0,0-.17-.53A1.06,1.06,0,0,0,83,15a1,1,0,0,0-.62-.17,1.09,1.09,0,0,0-.55.13,1.23,1.23,0,0,0-.35.33,3.13,3.13,0,0,0-.36,1.4c0,.63-.06,1.51-.06,2.62s0,2,.06,2.61a3.13,3.13,0,0,0,.36,1.4,1.23,1.23,0,0,0,.35.33,1.09,1.09,0,0,0,.55.13,1,1,0,0,0,.91-.46,2,2,0,0,0,.28-1.09V20.32H82.33V18.76h3.1Z"/><path d="M87.16,25.34V13.23h5.08V15H89.06v3.43H91.8V20.1H89.06v3.52h3.18v1.72Z"/><path d="M96.93,25.34V13.23h1.91V23.62H102v1.72Z"/><path d="M109.17,22.36a3.33,3.33,0,0,1-.22,1.26,2.86,2.86,0,0,1-.61,1,3.32,3.32,0,0,1-4.5,0,3,3,0,0,1-.62-1,3.54,3.54,0,0,1-.22-1.26V13.23h1.91v9.23a1.21,1.21,0,0,0,.35,1,1.17,1.17,0,0,0,.84.33,1.15,1.15,0,0,0,.83-.33,1.24,1.24,0,0,0,.34-1V13.23h1.9Z"/><path d="M115.16,25.34,113.76,21l-1.39,4.35h-2.09l2.4-6.28-2.21-5.83h2.09l1.2,4.05L115,13.23h2.09l-2.26,5.83,2.45,6.28Z"/><path d="M130.27,25.34h-2l-1.73-9.2-1.72,9.2h-2l-2.29-12.11h2.09l1.19,9.18,1.66-9.18h2.11l1.68,9.18,1.18-9.18h2.09Z"/><path d="M140.11,19.29c0,.71,0,1.34,0,1.87s-.06,1-.11,1.42a4.67,4.67,0,0,1-.27,1.06,2.84,2.84,0,0,1-.48.8,3.18,3.18,0,0,1-.94.74,3.07,3.07,0,0,1-1.41.29,3.13,3.13,0,0,1-1.41-.29,3.27,3.27,0,0,1-.93-.74,2.56,2.56,0,0,1-.48-.81,5.37,5.37,0,0,1-.26-1.05,13.28,13.28,0,0,1-.12-1.42c0-.53,0-1.16,0-1.87s0-1.34,0-1.88A12.85,12.85,0,0,1,133.8,16a5.3,5.3,0,0,1,.26-1.06,2.56,2.56,0,0,1,.48-.81,3.08,3.08,0,0,1,.93-.73,3,3,0,0,1,1.41-.3,3,3,0,0,1,1.41.3,3,3,0,0,1,.94.73,2.84,2.84,0,0,1,.48.8A4.67,4.67,0,0,1,140,16c.05.41.09.88.11,1.42S140.11,18.57,140.11,19.29Zm-1.9,0c0-1.11,0-2-.07-2.62a3.16,3.16,0,0,0-.34-1.4,1.15,1.15,0,0,0-.36-.33,1.13,1.13,0,0,0-.56-.13,1.12,1.12,0,0,0-.55.13,1.23,1.23,0,0,0-.35.33,3.44,3.44,0,0,0-.35,1.4c0,.63-.07,1.51-.07,2.62s0,2,.07,2.61a3.44,3.44,0,0,0,.35,1.4,1.23,1.23,0,0,0,.35.33,1.12,1.12,0,0,0,.55.13,1.13,1.13,0,0,0,.56-.13,1.15,1.15,0,0,0,.36-.33,3.16,3.16,0,0,0,.34-1.4C138.19,21.27,138.21,20.4,138.21,19.29Z"/><path d="M148.05,25.34V17.79l-1.65,5h-1.05l-1.62-4.88v7.47h-1.9V13.23h1.72l2.34,6.36,2.33-6.36H150V25.34Z"/><path d="M152,25.34V13.23h5.08V15H153.9v3.43h2.74V20.1H153.9v3.52h3.18v1.72Z"/><path d="M163.49,25.34l-2.86-7.19v7.19h-1.9V13.23h1.7l2.84,7.19V13.23h1.9V25.34Z"/><polygon points="174.4 26.56 172.03 23.96 176.94 19.5 172.03 15.04 174.4 12.44 182.18 19.5 174.4 26.56"/></g></svg>