<svg id="BLUE" xmlns="http://www.w3.org/2000/svg" viewBox="0 0 174.57 43"><defs><style>.cls-1{fill:#4c5a7a;}</style></defs><title>mesh_on_blue</title><rect class="cls-1" x="21.29" y="31.76" width="132" height="5.74"/><path class="cls-1" d="M21.26,7.52a29.21,29.21,0,0,1,4.53-.31,8.89,8.89,0,0,1,4.58.84A3.22,3.22,0,0,1,32.22,11a3.37,3.37,0,0,1-2.55,3.17v0a3.76,3.76,0,0,1,3.08,3.65A3.89,3.89,0,0,1,31.14,21c-1.13.86-3,1.34-6.09,1.34a28.25,28.25,0,0,1-3.79-.22Zm3.47,5.68h1.15c1.84,0,2.83-.73,2.83-1.83s-.9-1.72-2.48-1.72a9.85,9.85,0,0,0-1.49.09Zm0,6.58a11.58,11.58,0,0,0,1.36,0c1.59,0,3-.57,3-2.13s-1.4-2.09-3.15-2.09h-1.2Z"/><path class="cls-1" d="M35.15,7.52a32.22,32.22,0,0,1,4.67-.31c2.3,0,3.91.33,5,1.17a3.7,3.7,0,0,1,1.43,3.1,4,4,0,0,1-2.74,3.65v.07A3.76,3.76,0,0,1,45.59,18a43.06,43.06,0,0,0,1.26,4.18H43.26a18,18,0,0,1-1.08-3.46c-.41-1.85-1.08-2.35-2.51-2.38H38.62v5.83H35.15Zm3.47,6.38H40c1.75,0,2.78-.84,2.78-2.13s-1-2-2.58-2.07a9.13,9.13,0,0,0-1.59.11Z"/><path class="cls-1" d="M58,15.89H52.3v3.52h6.37v2.75H48.79V7.33h9.57v2.75h-6v3.08H58Z"/><path class="cls-1" d="M64.68,18.35l-1.1,3.81H59.94L64.68,7.33h4.6l4.81,14.83H70.31l-1.2-3.81Zm3.93-2.51-1-3.15c-.28-.88-.55-2-.78-2.86h0c-.23.88-.46,2-.71,2.86l-.92,3.15Z"/><path class="cls-1" d="M77.24,10.14H73.07V7.33H85v2.82H80.75v12H77.24Z"/><path class="cls-1" d="M90.37,7.33V13h5.77V7.33h3.5V22.16h-3.5V16H90.37v6.21H86.85V7.33Z"/><path class="cls-1" d="M106.31,18.35l-1.1,3.81h-3.63l4.74-14.83h4.6l4.81,14.83h-3.77l-1.2-3.81Zm3.93-2.51-1-3.15c-.28-.88-.55-2-.78-2.86h0c-.23.88-.46,2-.71,2.86l-.92,3.15Z"/><path class="cls-1" d="M117.78,7.52a29.21,29.21,0,0,1,4.53-.31,8.89,8.89,0,0,1,4.58.84A3.22,3.22,0,0,1,128.75,11a3.37,3.37,0,0,1-2.55,3.17v0a3.76,3.76,0,0,1,3.08,3.65A3.89,3.89,0,0,1,127.67,21c-1.13.86-3,1.34-6.09,1.34a28.25,28.25,0,0,1-3.79-.22Zm3.47,5.68h1.15c1.84,0,2.83-.73,2.83-1.83s-.9-1.72-2.48-1.72a9.85,9.85,0,0,0-1.49.09Zm0,6.58a11.58,11.58,0,0,0,1.36,0c1.59,0,3-.57,3-2.13s-1.4-2.09-3.15-2.09h-1.2Z"/><path class="cls-1" d="M131.68,7.33h3.52v12h6.16v2.82h-9.68Z"/><path class="cls-1" d="M152.65,15.89h-5.7v3.52h6.37v2.75h-9.89V7.33H153v2.75h-6v3.08h5.7Z"/></svg>