<svg id="BLACK" xmlns="http://www.w3.org/2000/svg" viewBox="0 0 174.57 43"><defs><style>.cls-1{fill:#322c2d;}</style></defs><title>mesh_on_black</title><path class="cls-1" d="M30.76,17.52a5.7,5.7,0,0,1-.47,2.37A5.42,5.42,0,0,1,29,21.69a5.9,5.9,0,0,1-1.91,1.16,6.84,6.84,0,0,1-4.72,0,5.79,5.79,0,0,1-1.91-1.16,5.59,5.59,0,0,1-1.29-1.8,5.86,5.86,0,0,1-.47-2.37V6.75h3.2V17.4a3.07,3.07,0,0,0,.76,2.22,2.71,2.71,0,0,0,2.07.8,2.76,2.76,0,0,0,2.08-.8,3.07,3.07,0,0,0,.77-2.22V6.75h3.17Z"/><path class="cls-1" d="M46.08,11.86a5.23,5.23,0,0,1-.37,2,4.76,4.76,0,0,1-1.05,1.63A4.85,4.85,0,0,1,43,16.56a6,6,0,0,1-2.27.4H37.53v6.17h-3.2V6.75h6.35A6,6,0,0,1,43,7.16a4.69,4.69,0,0,1,2.76,2.73A5.23,5.23,0,0,1,46.08,11.86Zm-3.19,0a2.18,2.18,0,0,0-.64-1.63,2.34,2.34,0,0,0-1.73-.62h-3v4.48h3a2.37,2.37,0,0,0,1.73-.61A2.17,2.17,0,0,0,42.89,11.86Z"/><path class="cls-1" d="M60.53,11.86a5.43,5.43,0,0,1-.37,2,4.76,4.76,0,0,1-2.76,2.73,6.13,6.13,0,0,1-2.28.4H52v6.17h-3.2V6.75h6.35a6.13,6.13,0,0,1,2.28.41,4.76,4.76,0,0,1,1.7,1.1,4.94,4.94,0,0,1,1.06,1.63A5.43,5.43,0,0,1,60.53,11.86Zm-3.2,0a2.17,2.17,0,0,0-.63-1.63A2.36,2.36,0,0,0,55,9.61H52v4.48h3a2.4,2.4,0,0,0,1.74-.61A2.16,2.16,0,0,0,57.33,11.86Z"/><path class="cls-1" d="M63.22,23.13V6.75H74V9.61H66.41v3.84h6.47V16.3H66.41v4H74v2.85Z"/><path class="cls-1" d="M85.83,23.13l-3.2-6.53h-2.3v6.53h-3.2V6.75h6.42a5.83,5.83,0,0,1,2.23.41,4.86,4.86,0,0,1,1.68,1.08,4.56,4.56,0,0,1,1.05,1.58,5.48,5.48,0,0,1,.35,1.95,4.73,4.73,0,0,1-.24,1.56A4.51,4.51,0,0,1,88,14.56a4.4,4.4,0,0,1-1,.92,4.75,4.75,0,0,1-1.14.59l3.66,7.06Zm-.17-11.36A2.06,2.06,0,0,0,85,10.2a2.34,2.34,0,0,0-1.69-.59h-3v4.32h3a2.34,2.34,0,0,0,1.69-.6A2.06,2.06,0,0,0,85.66,11.77Z"/><path class="cls-1" d="M109.15,23.13V13.58L106,19.79h-2.16l-3.15-6.21v9.55h-3.2V6.75h3.15l4.28,8.86,4.25-8.86h3.16V23.13Z"/><path class="cls-1" d="M116.16,23.13V6.75H127V9.61h-7.59v3.84h6.46V16.3h-6.46v4H127v2.85Z"/><path class="cls-1" d="M140.66,18.3a4.79,4.79,0,0,1-.46,2.12A4.46,4.46,0,0,1,138.92,22a5.82,5.82,0,0,1-1.93,1,8.14,8.14,0,0,1-2.4.34,10.66,10.66,0,0,1-3.33-.48,6.42,6.42,0,0,1-2.65-1.68L130.68,19a4.15,4.15,0,0,0,1.79,1.08,7.48,7.48,0,0,0,2.14.3,3.73,3.73,0,0,0,2.18-.53,1.77,1.77,0,0,0,.74-1.52A1.83,1.83,0,0,0,137,17a1.68,1.68,0,0,0-.55-.34,4.23,4.23,0,0,0-.92-.21l-2-.3a7.55,7.55,0,0,1-1.87-.49,4.61,4.61,0,0,1-1.31-.87,4.25,4.25,0,0,1-1.17-3.22,5.07,5.07,0,0,1,.39-2A4.29,4.29,0,0,1,130.77,8a5.32,5.32,0,0,1,1.79-1A7.41,7.41,0,0,1,135,6.62a9.12,9.12,0,0,1,3,.43,6.16,6.16,0,0,1,2.32,1.47l-2,2a3.37,3.37,0,0,0-1.66-.94,7.91,7.91,0,0,0-1.7-.19A2.58,2.58,0,0,0,133,10a2,2,0,0,0-.61,1.46,1.88,1.88,0,0,0,.11.62,1.46,1.46,0,0,0,.36.55,2.39,2.39,0,0,0,.6.39,3,3,0,0,0,.89.23l1.95.3a8.1,8.1,0,0,1,1.87.46,3.79,3.79,0,0,1,1.26.83,3.42,3.42,0,0,1,1,1.47A6.06,6.06,0,0,1,140.66,18.3Z"/><path class="cls-1" d="M152.41,23.13V16.28h-5.54v6.85h-3.2V6.75h3.2v6.7h5.54V6.75h3.2V23.13Z"/><rect class="cls-1" x="18.79" y="32.86" width="137" height="6"/></svg>