<svg id="RED" xmlns="http://www.w3.org/2000/svg" viewBox="0 0 174.78 43"><defs><style>.cls-1{fill:#979797;}</style></defs><title>mesh_off</title><path class="cls-1" d="M21.36,7.54a28,28,0,0,1,4.53-.32,8.57,8.57,0,0,1,4.58.87,3.37,3.37,0,0,1,1.86,3,3.5,3.5,0,0,1-2.55,3.31v0a3.88,3.88,0,0,1,3.08,3.82,4.13,4.13,0,0,1-1.61,3.29c-1.13.9-3,1.4-6.09,1.4a27.06,27.06,0,0,1-3.79-.23Zm3.47,5.93H26c1.84,0,2.83-.76,2.83-1.91s-.9-1.79-2.48-1.79a9.43,9.43,0,0,0-1.49.09Zm0,6.88a11.08,11.08,0,0,0,1.36,0c1.59,0,3-.6,3-2.23S27.78,16,26,16h-1.2Z"/><path class="cls-1" d="M35.25,7.54a30.86,30.86,0,0,1,4.67-.32c2.3,0,3.91.34,5,1.22a3.93,3.93,0,0,1,1.43,3.24,4.11,4.11,0,0,1-2.74,3.82v.07a3.91,3.91,0,0,1,2.07,2.9c.48,1.75,1,3.77,1.26,4.37H43.37a19.38,19.38,0,0,1-1.08-3.61c-.41-1.93-1.08-2.46-2.51-2.48H38.72v6.09H35.25Zm3.47,6.67H40.1c1.75,0,2.78-.87,2.78-2.23s-1-2.14-2.58-2.16a8.75,8.75,0,0,0-1.59.12Z"/><path class="cls-1" d="M58.11,16.28h-5.7V20h6.37v2.87H48.89V7.33h9.57v2.88h-6v3.22h5.7Z"/><path class="cls-1" d="M64.78,18.85l-1.1,4H60l4.74-15.5h4.6l4.81,15.5H70.42l-1.2-4Zm3.93-2.62-1-3.29c-.28-.92-.55-2.07-.78-3h0c-.23.92-.46,2.09-.71,3l-.92,3.29Z"/><path class="cls-1" d="M77.34,10.27H73.18V7.33H85.09v2.94H80.86V22.83H77.34Z"/><path class="cls-1" d="M90.47,7.33v6h5.77v-6h3.5v15.5h-3.5V16.35H90.47v6.48H87V7.33Z"/><path class="cls-1" d="M106.41,18.85l-1.1,4h-3.63l4.74-15.5H111l4.81,15.5H112l-1.2-4Zm3.93-2.62-1-3.29c-.28-.92-.55-2.07-.78-3h0c-.23.92-.46,2.09-.71,3l-.92,3.29Z"/><path class="cls-1" d="M117.89,7.54a28,28,0,0,1,4.53-.32,8.57,8.57,0,0,1,4.58.87,3.37,3.37,0,0,1,1.86,3,3.5,3.5,0,0,1-2.55,3.31v0a3.88,3.88,0,0,1,3.08,3.82,4.13,4.13,0,0,1-1.61,3.29c-1.13.9-3,1.4-6.09,1.4a27.06,27.06,0,0,1-3.79-.23Zm3.47,5.93h1.15c1.84,0,2.83-.76,2.83-1.91s-.9-1.79-2.48-1.79a9.43,9.43,0,0,0-1.49.09Zm0,6.88a11.08,11.08,0,0,0,1.36,0c1.59,0,3-.6,3-2.23S124.31,16,122.56,16h-1.2Z"/><path class="cls-1" d="M131.78,7.33h3.52V19.89h6.16v2.94h-9.68Z"/><path class="cls-1" d="M152.76,16.28h-5.7V20h6.37v2.87h-9.89V7.33h9.57v2.88h-6v3.22h5.7Z"/></svg>