<svg id="BLUE" xmlns="http://www.w3.org/2000/svg" viewBox="0 0 174.78 43"><defs><style>.cls-1{fill:#81a6c1;}</style></defs><title>mesh_off_blue</title><path class="cls-1" d="M30.87,17.52a5.86,5.86,0,0,1-.47,2.37,5.44,5.44,0,0,1-1.29,1.8,5.69,5.69,0,0,1-1.91,1.16,6.81,6.81,0,0,1-4.71,0,5.69,5.69,0,0,1-1.91-1.16,5.3,5.3,0,0,1-1.29-1.8,5.86,5.86,0,0,1-.47-2.37V6.75H22V17.4a3.11,3.11,0,0,0,.75,2.22,2.74,2.74,0,0,0,2.07.8,2.79,2.79,0,0,0,2.09-.8,3.07,3.07,0,0,0,.77-2.22V6.75h3.17Z"/><path class="cls-1" d="M46.19,11.86a5.23,5.23,0,0,1-.37,2,4.76,4.76,0,0,1-2.76,2.73,6.06,6.06,0,0,1-2.28.4H37.63v6.17H34.44V6.75h6.34a6.06,6.06,0,0,1,2.28.41,4.76,4.76,0,0,1,1.7,1.1,4.94,4.94,0,0,1,1.06,1.63A5.23,5.23,0,0,1,46.19,11.86Zm-3.2,0a2.17,2.17,0,0,0-.63-1.63,2.35,2.35,0,0,0-1.74-.62h-3v4.48h3a2.38,2.38,0,0,0,1.74-.61A2.16,2.16,0,0,0,43,11.86Z"/><path class="cls-1" d="M60.63,11.86a5.23,5.23,0,0,1-.37,2,4.76,4.76,0,0,1-1,1.63,4.85,4.85,0,0,1-1.71,1.1,6,6,0,0,1-2.27.4H52.08v6.17h-3.2V6.75h6.35a6,6,0,0,1,2.27.41,4.69,4.69,0,0,1,2.76,2.73A5.23,5.23,0,0,1,60.63,11.86Zm-3.19,0a2.18,2.18,0,0,0-.64-1.63,2.34,2.34,0,0,0-1.73-.62h-3v4.48h3a2.37,2.37,0,0,0,1.73-.61A2.17,2.17,0,0,0,57.44,11.86Z"/><path class="cls-1" d="M63.32,23.13V6.75H74.11V9.61H66.52v3.84H73V16.3H66.52v4h7.59v2.85Z"/><path class="cls-1" d="M85.93,23.13l-3.2-6.53H80.44v6.53h-3.2V6.75h6.42a5.87,5.87,0,0,1,2.23.41,4.86,4.86,0,0,1,1.68,1.08,4.67,4.67,0,0,1,1,1.58A5.28,5.28,0,0,1,89,11.77a4.73,4.73,0,0,1-.24,1.56,4.27,4.27,0,0,1-.66,1.23,4.35,4.35,0,0,1-.95.92,4.75,4.75,0,0,1-1.14.59l3.66,7.06Zm-.16-11.36a2.06,2.06,0,0,0-.63-1.57,2.35,2.35,0,0,0-1.69-.59h-3v4.32h3a2.36,2.36,0,0,0,1.69-.6A2.06,2.06,0,0,0,85.77,11.77Z"/><path class="cls-1" d="M109.25,23.13V13.58l-3.12,6.21H104l-3.15-6.21v9.55H97.62V6.75h3.15L105,15.61l4.26-8.86h3.15V23.13Z"/><path class="cls-1" d="M116.27,23.13V6.75h10.79V9.61h-7.59v3.84h6.46V16.3h-6.46v4h7.59v2.85Z"/><path class="cls-1" d="M140.76,18.3a4.66,4.66,0,0,1-.46,2.12A4.43,4.43,0,0,1,139,22a5.92,5.92,0,0,1-1.93,1,8.16,8.16,0,0,1-2.41.34,10.6,10.6,0,0,1-3.32-.48,6.45,6.45,0,0,1-2.66-1.68L130.78,19a4.18,4.18,0,0,0,1.8,1.08,7.41,7.41,0,0,0,2.13.3,3.76,3.76,0,0,0,2.19-.53,1.77,1.77,0,0,0,.74-1.52,1.83,1.83,0,0,0-.51-1.36,1.68,1.68,0,0,0-.55-.34,4.38,4.38,0,0,0-.92-.21l-2-.3a7.58,7.58,0,0,1-1.86-.49,4.47,4.47,0,0,1-1.31-.87,4.25,4.25,0,0,1-1.17-3.22,5.07,5.07,0,0,1,.39-2A4.27,4.27,0,0,1,130.87,8a5.27,5.27,0,0,1,1.8-1,7.36,7.36,0,0,1,2.39-.36,9.21,9.21,0,0,1,3,.43,6.24,6.24,0,0,1,2.32,1.47l-2,2a3.37,3.37,0,0,0-1.66-.94A8,8,0,0,0,135,9.4a2.58,2.58,0,0,0-1.9.61,2,2,0,0,0-.61,1.46,2.17,2.17,0,0,0,.1.62,1.46,1.46,0,0,0,.36.55,2.46,2.46,0,0,0,.61.39,2.88,2.88,0,0,0,.89.23l2,.3a8.13,8.13,0,0,1,1.86.46,3.83,3.83,0,0,1,1.27.83,3.4,3.4,0,0,1,1,1.47A6.06,6.06,0,0,1,140.76,18.3Z"/><path class="cls-1" d="M152.52,23.13V16.28H147v6.85h-3.19V6.75H147v6.7h5.55V6.75h3.19V23.13Z"/></svg>