<svg id="BLUE" xmlns="http://www.w3.org/2000/svg" viewBox="0 0 155 43"><defs><style>.cls-1{fill:#4c5a7a;}</style></defs><title>midsole_on_blue</title><rect class="cls-1" x="31" y="32.86" width="94" height="6"/><rect class="cls-1" x="6" y="32.86" width="144" height="6"/><path class="cls-1" d="M5.69,7.33H9.21V19.89h6.16v2.94H5.69Z"/><path class="cls-1" d="M21,7.33v15.5H17.44V7.33Z"/><path class="cls-1" d="M36.94,22.12a17.33,17.33,0,0,1-5.17.87c-2.83,0-4.87-.71-6.3-2.09a7.5,7.5,0,0,1-2.18-5.63c0-5.15,3.77-8.09,8.85-8.09a10.67,10.67,0,0,1,4.3.76l-.74,2.8a8.6,8.6,0,0,0-3.61-.67c-2.92,0-5.13,1.66-5.13,5,0,3.2,2,5.08,4.88,5.08a4.7,4.7,0,0,0,1.72-.23V16.69H31.17V14h5.77Z"/><path class="cls-1" d="M43.2,7.33v6H49v-6h3.5v15.5H49V16.35H43.2v6.48H39.68V7.33Z"/><path class="cls-1" d="M58.52,10.27H54.36V7.33H66.27v2.94H62V22.83H58.52Z"/><path class="cls-1" d="M71.28,22.83,67.61,7.33h3.75l1.17,6.39c.35,1.84.67,3.84.92,5.4h0c.25-1.68.62-3.54,1-5.45l1.31-6.35h3.73l1.24,6.53c.35,1.82.6,3.47.83,5.2h0c.23-1.72.57-3.54.9-5.38l1.27-6.35h3.56l-4,15.5H79.59l-1.31-6.67c-.3-1.56-.55-3-.74-4.78h0c-.28,1.75-.53,3.22-.9,4.78l-1.47,6.67Z"/><path class="cls-1" d="M98.42,16.28h-5.7V20h6.37v2.87H89.2V7.33h9.57v2.88h-6v3.22h5.7Z"/><path class="cls-1" d="M105,7.33v15.5h-3.52V7.33Z"/><path class="cls-1" d="M121,22.12a17.33,17.33,0,0,1-5.17.87c-2.83,0-4.87-.71-6.3-2.09a7.5,7.5,0,0,1-2.18-5.63c0-5.15,3.77-8.09,8.85-8.09a10.67,10.67,0,0,1,4.3.76l-.74,2.8a8.6,8.6,0,0,0-3.61-.67c-2.92,0-5.13,1.66-5.13,5,0,3.2,2,5.08,4.88,5.08a4.7,4.7,0,0,0,1.72-.23V16.69h-2.39V14H121Z"/><path class="cls-1" d="M127.24,7.33v6H133v-6h3.5v15.5H133V16.35h-5.77v6.48h-3.52V7.33Z"/><path class="cls-1" d="M142.56,10.27H138.4V7.33h11.91v2.94h-4.23V22.83h-3.52Z"/></svg>