<svg id="BLACK" xmlns="http://www.w3.org/2000/svg" viewBox="0 0 119.76 43"><defs><style>.cls-1{fill:#322c2d;}</style></defs><title>midsole_on_black</title><path class="cls-1" d="M25.24,23.13V13.58l-3.12,6.21H20L16.8,13.58v9.55H13.61V6.75h3.15L21,15.61l4.26-8.86h3.15V23.13Z"/><path class="cls-1" d="M32.26,23.13V6.75h3.2V23.13Z"/><path class="cls-1" d="M51.16,14.94c0,.68,0,1.29,0,1.85A13.92,13.92,0,0,1,51,18.33a6.09,6.09,0,0,1-.31,1.29,5.72,5.72,0,0,1-.59,1.12,5.38,5.38,0,0,1-2.07,1.81,6.52,6.52,0,0,1-2.88.58H39.27V6.75h5.91a6.66,6.66,0,0,1,2.88.58,5.38,5.38,0,0,1,2.07,1.81,5.72,5.72,0,0,1,.59,1.12A6.09,6.09,0,0,1,51,11.55a14.1,14.1,0,0,1,.11,1.54C51.16,13.65,51.16,14.27,51.16,14.94Zm-3.19,0c0-.64,0-1.2,0-1.67a9.5,9.5,0,0,0-.09-1.19,4,4,0,0,0-.19-.84,2.24,2.24,0,0,0-.36-.62,2.85,2.85,0,0,0-2.39-1H42.47V20.28h2.44a2.88,2.88,0,0,0,2.39-1,2.45,2.45,0,0,0,.36-.63,4,4,0,0,0,.19-.84,9.35,9.35,0,0,0,.09-1.19C48,16.14,48,15.58,48,14.94Z"/><path class="cls-1" d="M65,18.3a4.66,4.66,0,0,1-.46,2.12A4.46,4.46,0,0,1,63.27,22a5.73,5.73,0,0,1-1.93,1,8,8,0,0,1-2.4.34,10.71,10.71,0,0,1-3.33-.48A6.48,6.48,0,0,1,53,21.11L55,19a4.21,4.21,0,0,0,1.79,1.08,7.53,7.53,0,0,0,2.14.3,3.76,3.76,0,0,0,2.19-.53,1.76,1.76,0,0,0,.73-1.52,1.87,1.87,0,0,0-.5-1.36,1.72,1.72,0,0,0-.56-.34,4.23,4.23,0,0,0-.92-.21L58,16.16a7.35,7.35,0,0,1-1.86-.49,4.34,4.34,0,0,1-1.31-.87,4.22,4.22,0,0,1-1.18-3.22,5.07,5.07,0,0,1,.39-2A4.29,4.29,0,0,1,55.12,8a5.32,5.32,0,0,1,1.79-1,7.47,7.47,0,0,1,2.4-.36,9.1,9.1,0,0,1,3,.43A6.2,6.2,0,0,1,64.6,8.52l-2,2a3.35,3.35,0,0,0-1.65-.94,8.06,8.06,0,0,0-1.71-.19,2.56,2.56,0,0,0-1.89.61,2,2,0,0,0-.61,1.46,1.87,1.87,0,0,0,.1.62,1.46,1.46,0,0,0,.36.55,2.46,2.46,0,0,0,.61.39,2.81,2.81,0,0,0,.88.23l2,.3a8.13,8.13,0,0,1,1.86.46,3.94,3.94,0,0,1,1.27.83,3.49,3.49,0,0,1,1,1.47A6.06,6.06,0,0,1,65,18.3Z"/><path class="cls-1" d="M79.57,14.94c0,.78,0,1.49,0,2.12a10.06,10.06,0,0,1-.19,1.73,5.59,5.59,0,0,1-.5,1.46,4.87,4.87,0,0,1-1,1.29A5.91,5.91,0,0,1,76,22.82a6.28,6.28,0,0,1-2.48.45,6.45,6.45,0,0,1-2.5-.45,5.91,5.91,0,0,1-1.89-1.28,4.7,4.7,0,0,1-1-1.29,5.56,5.56,0,0,1-.48-1.46,11.21,11.21,0,0,1-.18-1.73c0-.63,0-1.34,0-2.12s0-1.49,0-2.12a11.35,11.35,0,0,1,.18-1.73,5.56,5.56,0,0,1,.48-1.46,4.7,4.7,0,0,1,1-1.29A5.91,5.91,0,0,1,71,7.06a6.45,6.45,0,0,1,2.5-.44A6.28,6.28,0,0,1,76,7.06a5.91,5.91,0,0,1,1.89,1.28,4.87,4.87,0,0,1,1,1.29,5.59,5.59,0,0,1,.5,1.46,10.18,10.18,0,0,1,.19,1.73C79.56,13.45,79.57,14.16,79.57,14.94Zm-3.2,0c0-.78,0-1.43,0-1.94a11.08,11.08,0,0,0-.14-1.28A3.23,3.23,0,0,0,76,10.9a2.63,2.63,0,0,0-.38-.56,2.57,2.57,0,0,0-.87-.63,2.76,2.76,0,0,0-1.18-.24,2.73,2.73,0,0,0-1.18.24,2.87,2.87,0,0,0-.89.63,2.63,2.63,0,0,0-.38.56,3.23,3.23,0,0,0-.24.82A11.38,11.38,0,0,0,70.7,13c0,.51,0,1.16,0,1.94s0,1.43,0,1.94a10.92,10.92,0,0,0,.13,1.27,3.27,3.27,0,0,0,.24.81,2.63,2.63,0,0,0,.38.56,3.07,3.07,0,0,0,.89.64,2.6,2.6,0,0,0,1.18.26,2.63,2.63,0,0,0,1.18-.26,2.73,2.73,0,0,0,.87-.64A2.63,2.63,0,0,0,76,19a3.27,3.27,0,0,0,.24-.81,10.63,10.63,0,0,0,.14-1.27C76.36,16.37,76.37,15.72,76.37,14.94Z"/><path class="cls-1" d="M82.84,23.13V6.75H86V20.28h7.43v2.85Z"/><path class="cls-1" d="M96.06,23.13V6.75h10.79V9.61H99.26v3.84h6.46V16.3H99.26v4h7.59v2.85Z"/><rect class="cls-1" x="12.88" y="32.86" width="94" height="6"/></svg>