<svg id="BLUE" xmlns="http://www.w3.org/2000/svg" viewBox="0 0 122.72 43"><defs><style>.cls-1{fill:#81a6c1;}</style></defs><title>midsole_off_blue</title><path class="cls-1" d="M26.72,23.13V13.58l-3.13,6.21H21.43l-3.15-6.21v9.55h-3.2V6.75h3.15l4.28,8.86,4.26-8.86h3.15V23.13Z"/><path class="cls-1" d="M33.74,23.13V6.75h3.19V23.13Z"/><path class="cls-1" d="M52.64,14.94c0,.68,0,1.29,0,1.85s-.06,1.08-.12,1.54a5.54,5.54,0,0,1-.31,1.29,5.19,5.19,0,0,1-.58,1.12,5.52,5.52,0,0,1-2.07,1.81,6.52,6.52,0,0,1-2.88.58H40.75V6.75h5.91a6.66,6.66,0,0,1,2.88.58,5.52,5.52,0,0,1,2.07,1.81,5.19,5.19,0,0,1,.58,1.12,5.54,5.54,0,0,1,.31,1.29c.06.47.1,1,.12,1.54S52.64,14.27,52.64,14.94Zm-3.2,0c0-.64,0-1.2,0-1.67a9.5,9.5,0,0,0-.09-1.19,4,4,0,0,0-.2-.84,2,2,0,0,0-.35-.62,2.87,2.87,0,0,0-2.39-1H44V20.28h2.44a2.9,2.9,0,0,0,2.39-1,2.16,2.16,0,0,0,.35-.63,4,4,0,0,0,.2-.84,9.35,9.35,0,0,0,.09-1.19C49.44,16.14,49.44,15.58,49.44,14.94Z"/><path class="cls-1" d="M66.49,18.3A4.79,4.79,0,0,1,66,20.42,4.57,4.57,0,0,1,64.75,22a5.82,5.82,0,0,1-1.93,1,8.14,8.14,0,0,1-2.4.34,10.66,10.66,0,0,1-3.33-.48,6.42,6.42,0,0,1-2.65-1.68L56.5,19a4.24,4.24,0,0,0,1.8,1.08,7.48,7.48,0,0,0,2.14.3,3.75,3.75,0,0,0,2.18-.53,1.77,1.77,0,0,0,.74-1.52A1.83,1.83,0,0,0,62.85,17a1.68,1.68,0,0,0-.55-.34,4.38,4.38,0,0,0-.92-.21l-2-.3a7.55,7.55,0,0,1-1.87-.49,4.61,4.61,0,0,1-1.31-.87,4.25,4.25,0,0,1-1.17-3.22,5.07,5.07,0,0,1,.39-2A4.29,4.29,0,0,1,56.6,8a5.32,5.32,0,0,1,1.79-1,7.41,7.41,0,0,1,2.39-.36,9.12,9.12,0,0,1,3,.43,6.16,6.16,0,0,1,2.32,1.47l-2,2a3.37,3.37,0,0,0-1.66-.94,8,8,0,0,0-1.7-.19,2.58,2.58,0,0,0-1.9.61,2,2,0,0,0-.61,1.46,1.88,1.88,0,0,0,.11.62,1.56,1.56,0,0,0,.35.55,2.66,2.66,0,0,0,.61.39,3,3,0,0,0,.89.23l2,.3A8.1,8.1,0,0,1,64,14a3.79,3.79,0,0,1,1.26.83,3.42,3.42,0,0,1,1,1.47A6.06,6.06,0,0,1,66.49,18.3Z"/><path class="cls-1" d="M81.05,14.94c0,.78,0,1.49,0,2.12a11.16,11.16,0,0,1-.19,1.73,6,6,0,0,1-.5,1.46,4.87,4.87,0,0,1-.95,1.29,5.91,5.91,0,0,1-1.89,1.28,6.28,6.28,0,0,1-2.48.45,6.41,6.41,0,0,1-2.5-.45,6.06,6.06,0,0,1-1.9-1.28,4.87,4.87,0,0,1-.95-1.29,5.56,5.56,0,0,1-.48-1.46A12.54,12.54,0,0,1,69,17.06c0-.63,0-1.34,0-2.12s0-1.49,0-2.12a12.71,12.71,0,0,1,.19-1.73,5.56,5.56,0,0,1,.48-1.46,4.87,4.87,0,0,1,.95-1.29,6.06,6.06,0,0,1,1.9-1.28A6.42,6.42,0,0,1,75,6.62a6.28,6.28,0,0,1,2.48.44,5.91,5.91,0,0,1,1.89,1.28,4.87,4.87,0,0,1,.95,1.29,6,6,0,0,1,.5,1.46A11.3,11.3,0,0,1,81,12.82C81,13.45,81.05,14.16,81.05,14.94Zm-3.2,0c0-.78,0-1.43,0-1.94a11.38,11.38,0,0,0-.13-1.28,3.65,3.65,0,0,0-.25-.82,2.31,2.31,0,0,0-.38-.56,2.53,2.53,0,0,0-.86-.63A2.76,2.76,0,0,0,75,9.47a2.74,2.74,0,0,0-2.07.87,2.31,2.31,0,0,0-.38.56,3.23,3.23,0,0,0-.24.82A8.05,8.05,0,0,0,72.18,13c0,.51,0,1.16,0,1.94s0,1.43,0,1.94a7.78,7.78,0,0,0,.13,1.27,3.27,3.27,0,0,0,.24.81,2.31,2.31,0,0,0,.38.56,3,3,0,0,0,.88.64,2.67,2.67,0,0,0,1.19.26,2.63,2.63,0,0,0,1.18-.26,2.69,2.69,0,0,0,.86-.64,2.31,2.31,0,0,0,.38-.56,3.72,3.72,0,0,0,.25-.81,10.92,10.92,0,0,0,.13-1.27C77.83,16.37,77.85,15.72,77.85,14.94Z"/><path class="cls-1" d="M84.31,23.13V6.75h3.2V20.28h7.43v2.85Z"/><path class="cls-1" d="M97.54,23.13V6.75h10.78V9.61h-7.59v3.84h6.47V16.3h-6.47v4h7.59v2.85Z"/></svg>