<svg id="OLIVE" xmlns="http://www.w3.org/2000/svg" viewBox="0 0 128.5 43"><defs><style>.cls-1{fill:#afaf85;}</style></defs><title>outsole_off_olive</title><path class="cls-1" d="M16.17,7.54a31.28,31.28,0,0,1,4.74-.32c2.94,0,4.85.53,6.35,1.66a6.86,6.86,0,0,1,2.62,5.84A7.86,7.86,0,0,1,27.3,21c-1.63,1.36-4.12,2-7.15,2a30.29,30.29,0,0,1-4-.23Zm3.52,12.65a6.42,6.42,0,0,0,1.22.07c3.17,0,5.24-1.72,5.24-5.43,0-3.22-1.86-4.92-4.87-4.92a7.27,7.27,0,0,0-1.59.14Z"/><path class="cls-1" d="M35.67,7.33v8.92c0,2.67,1,4,2.81,4s2.85-1.29,2.85-4V7.33h3.5V16c0,4.78-2.42,7.06-6.46,7.06S32.15,20.92,32.15,16V7.33Z"/><path class="cls-1" d="M47.86,7.54a30.87,30.87,0,0,1,4.67-.32c2.3,0,3.91.34,5,1.22A3.93,3.93,0,0,1,59,11.68a4.11,4.11,0,0,1-2.74,3.82v.07a3.91,3.91,0,0,1,2.07,2.9c.48,1.75,1,3.77,1.26,4.37H56a19.48,19.48,0,0,1-1.08-3.61c-.41-1.93-1.08-2.46-2.51-2.48H51.33v6.09H47.86Zm3.47,6.67h1.38c1.75,0,2.78-.87,2.78-2.23s-1-2.14-2.58-2.16a8.75,8.75,0,0,0-1.59.12Z"/><path class="cls-1" d="M65.32,18.85l-1.1,4H60.58l4.74-15.5h4.6l4.81,15.5H71l-1.2-4Zm3.93-2.62-1-3.29c-.28-.92-.55-2.07-.78-3h0c-.23.92-.46,2.09-.71,3l-.92,3.29Z"/><path class="cls-1" d="M76.8,7.54a28,28,0,0,1,4.53-.32,8.57,8.57,0,0,1,4.58.87,3.37,3.37,0,0,1,1.86,3,3.5,3.5,0,0,1-2.55,3.31v0a3.88,3.88,0,0,1,3.08,3.82,4.13,4.13,0,0,1-1.61,3.29c-1.13.9-3,1.4-6.09,1.4a27.06,27.06,0,0,1-3.79-.23Zm3.47,5.93h1.15c1.84,0,2.83-.76,2.83-1.91s-.9-1.79-2.48-1.79a9.42,9.42,0,0,0-1.49.09Zm0,6.88a11.07,11.07,0,0,0,1.36,0c1.59,0,3-.6,3-2.23S83.21,16,81.46,16h-1.2Z"/><path class="cls-1" d="M90.69,7.33h3.52V19.89h6.16v2.94H90.69Z"/><path class="cls-1" d="M111.66,16.28H106V20h6.37v2.87h-9.89V7.33H112v2.88h-6v3.22h5.7Z"/></svg>