<svg id="GREY" xmlns="http://www.w3.org/2000/svg" viewBox="0 0 128.5 43"><defs><style>.cls-1{fill:#979797;}</style></defs><title>outsole_off_L_grey</title><path class="cls-1" d="M28.28,14.94c0,.78,0,1.49,0,2.12a11.16,11.16,0,0,1-.19,1.73,6,6,0,0,1-.5,1.46,4.87,4.87,0,0,1-.95,1.29,6,6,0,0,1-1.89,1.28,6.28,6.28,0,0,1-2.48.45,6.45,6.45,0,0,1-2.5-.45,6.06,6.06,0,0,1-1.9-1.28,4.87,4.87,0,0,1-.95-1.29,5.56,5.56,0,0,1-.48-1.46,12.54,12.54,0,0,1-.19-1.73c0-.63,0-1.34,0-2.12s0-1.49,0-2.12a12.71,12.71,0,0,1,.19-1.73,5.56,5.56,0,0,1,.48-1.46,4.87,4.87,0,0,1,.95-1.29,6.06,6.06,0,0,1,1.9-1.28,6.45,6.45,0,0,1,2.5-.44,6.28,6.28,0,0,1,2.48.44A6,6,0,0,1,26.6,8.34a4.87,4.87,0,0,1,.95,1.29,6,6,0,0,1,.5,1.46,11.3,11.3,0,0,1,.19,1.73C28.26,13.45,28.28,14.16,28.28,14.94Zm-3.2,0c0-.78,0-1.43,0-1.94a11.38,11.38,0,0,0-.13-1.28,3.65,3.65,0,0,0-.25-.82,2.31,2.31,0,0,0-.38-.56,2.53,2.53,0,0,0-.86-.63,2.76,2.76,0,0,0-1.18-.24,2.74,2.74,0,0,0-2.07.87,2.31,2.31,0,0,0-.38.56,3.23,3.23,0,0,0-.24.82A8.05,8.05,0,0,0,19.41,13c0,.51,0,1.16,0,1.94s0,1.43,0,1.94a7.78,7.78,0,0,0,.13,1.27,3.27,3.27,0,0,0,.24.81,2.31,2.31,0,0,0,.38.56,3,3,0,0,0,.88.64,2.67,2.67,0,0,0,1.19.26,2.63,2.63,0,0,0,1.18-.26,2.69,2.69,0,0,0,.86-.64,2.31,2.31,0,0,0,.38-.56,3.72,3.72,0,0,0,.25-.81A10.92,10.92,0,0,0,25,16.88C25.06,16.37,25.08,15.72,25.08,14.94Z"/><path class="cls-1" d="M43.34,17.52a5.86,5.86,0,0,1-.47,2.37,5.44,5.44,0,0,1-1.29,1.8,5.69,5.69,0,0,1-1.91,1.16,6.81,6.81,0,0,1-4.71,0,5.69,5.69,0,0,1-1.91-1.16,5.3,5.3,0,0,1-1.29-1.8,5.86,5.86,0,0,1-.47-2.37V6.75h3.2V17.4a3.07,3.07,0,0,0,.76,2.22,2.71,2.71,0,0,0,2.07.8,2.78,2.78,0,0,0,2.08-.8,3.07,3.07,0,0,0,.77-2.22V6.75h3.17Z"/><path class="cls-1" d="M53.16,9.61V23.13H50V9.61H45.69V6.75H57.44V9.61Z"/><path class="cls-1" d="M70.62,18.3a4.79,4.79,0,0,1-.46,2.12A4.46,4.46,0,0,1,68.88,22a5.82,5.82,0,0,1-1.93,1,8,8,0,0,1-2.4.34,10.66,10.66,0,0,1-3.33-.48,6.42,6.42,0,0,1-2.65-1.68L60.64,19a4.21,4.21,0,0,0,1.79,1.08,7.53,7.53,0,0,0,2.14.3,3.73,3.73,0,0,0,2.18-.53,1.75,1.75,0,0,0,.74-1.52A1.83,1.83,0,0,0,67,17a1.58,1.58,0,0,0-.55-.34,4.23,4.23,0,0,0-.92-.21l-2-.3a7.35,7.35,0,0,1-1.86-.49,4.52,4.52,0,0,1-1.32-.87,4.25,4.25,0,0,1-1.17-3.22,5.07,5.07,0,0,1,.39-2A4.29,4.29,0,0,1,60.73,8a5.32,5.32,0,0,1,1.79-1,7.47,7.47,0,0,1,2.4-.36,9.1,9.1,0,0,1,3,.43,6.28,6.28,0,0,1,2.33,1.47l-2,2a3.39,3.39,0,0,0-1.65-.94,8.06,8.06,0,0,0-1.71-.19,2.54,2.54,0,0,0-1.89.61,2,2,0,0,0-.61,1.46,1.87,1.87,0,0,0,.1.62,1.46,1.46,0,0,0,.36.55,2.39,2.39,0,0,0,.6.39,3,3,0,0,0,.89.23l2,.3a8.13,8.13,0,0,1,1.86.46,3.79,3.79,0,0,1,1.26.83,3.42,3.42,0,0,1,1,1.47A6.06,6.06,0,0,1,70.62,18.3Z"/><path class="cls-1" d="M85.18,14.94c0,.78,0,1.49,0,2.12A11.16,11.16,0,0,1,85,18.79a5.59,5.59,0,0,1-.5,1.46,4.87,4.87,0,0,1-1,1.29,5.91,5.91,0,0,1-1.89,1.28,6.28,6.28,0,0,1-2.48.45,6.45,6.45,0,0,1-2.5-.45,5.91,5.91,0,0,1-1.89-1.28,4.7,4.7,0,0,1-1-1.29,5.56,5.56,0,0,1-.48-1.46,12.54,12.54,0,0,1-.19-1.73c0-.63,0-1.34,0-2.12s0-1.49,0-2.12a12.71,12.71,0,0,1,.19-1.73,5.56,5.56,0,0,1,.48-1.46,4.7,4.7,0,0,1,1-1.29,5.91,5.91,0,0,1,1.89-1.28,6.45,6.45,0,0,1,2.5-.44,6.28,6.28,0,0,1,2.48.44A5.91,5.91,0,0,1,83.5,8.34a4.87,4.87,0,0,1,1,1.29,5.59,5.59,0,0,1,.5,1.46,11.3,11.3,0,0,1,.19,1.73C85.17,13.45,85.18,14.16,85.18,14.94Zm-3.2,0c0-.78,0-1.43,0-1.94a11.38,11.38,0,0,0-.13-1.28,3.2,3.2,0,0,0-.25-.82,2.27,2.27,0,0,0-.37-.56,2.57,2.57,0,0,0-.87-.63,2.76,2.76,0,0,0-1.18-.24,2.74,2.74,0,0,0-2.07.87,2.63,2.63,0,0,0-.38.56,3.23,3.23,0,0,0-.24.82A9.43,9.43,0,0,0,76.31,13c0,.51,0,1.16,0,1.94s0,1.43,0,1.94a9.09,9.09,0,0,0,.13,1.27,3.27,3.27,0,0,0,.24.81,2.63,2.63,0,0,0,.38.56,3,3,0,0,0,.88.64,2.67,2.67,0,0,0,1.19.26,2.63,2.63,0,0,0,1.18-.26,2.73,2.73,0,0,0,.87-.64,2.27,2.27,0,0,0,.37-.56,3.24,3.24,0,0,0,.25-.81,10.92,10.92,0,0,0,.13-1.27C82,16.37,82,15.72,82,14.94Z"/><path class="cls-1" d="M88.44,23.13V6.75h3.2V20.28h7.43v2.85Z"/><path class="cls-1" d="M101.67,23.13V6.75h10.79V9.61h-7.59v3.84h6.46V16.3h-6.46v4h7.59v2.85Z"/></svg>