<svg id="PINK" xmlns="http://www.w3.org/2000/svg" viewBox="0 0 154 43"><defs><style>.cls-1{fill:#c39578;}</style></defs><title>outsole_on_L_pink</title><rect class="cls-1" x="12" y="32.86" width="129" height="6"/><path class="cls-1" d="M12.71,19.22a8.93,8.93,0,0,0,3.89,1c1.61,0,2.46-.67,2.46-1.68s-.74-1.52-2.6-2.18c-2.58-.9-4.25-2.32-4.25-4.58,0-2.64,2.21-4.67,5.86-4.67a9.49,9.49,0,0,1,4,.78l-.78,2.83A7.37,7.37,0,0,0,18,10c-1.52,0-2.25.69-2.25,1.49,0,1,.87,1.43,2.88,2.18,2.74,1,4,2.44,4,4.62,0,2.6-2,4.81-6.25,4.81A10.13,10.13,0,0,1,12,22.12Z"/><path class="cls-1" d="M28.51,7.33v8.92c0,2.67,1,4,2.81,4s2.85-1.29,2.85-4V7.33h3.5V16c0,4.78-2.42,7.06-6.46,7.06S25,20.92,25,16V7.33Z"/><path class="cls-1" d="M40.7,7.54a28.77,28.77,0,0,1,4.74-.32,7.44,7.44,0,0,1,4.74,1.24A4.53,4.53,0,0,1,51.83,12a5,5,0,0,1-1.43,3.68,7.19,7.19,0,0,1-5,1.63,8.84,8.84,0,0,1-1.2-.07v5.54H40.7Zm3.47,7a5.4,5.4,0,0,0,1.17.09c1.86,0,3-.94,3-2.53,0-1.43-1-2.28-2.74-2.28a6,6,0,0,0-1.45.14Z"/><path class="cls-1" d="M54.06,7.54a28.75,28.75,0,0,1,4.74-.32,7.44,7.44,0,0,1,4.74,1.24A4.53,4.53,0,0,1,65.19,12a5,5,0,0,1-1.43,3.68,7.19,7.19,0,0,1-5,1.63,8.83,8.83,0,0,1-1.2-.07v5.54H54.06Zm3.47,7a5.39,5.39,0,0,0,1.17.09c1.86,0,3-.94,3-2.53,0-1.43-1-2.28-2.74-2.28a6,6,0,0,0-1.45.14Z"/><path class="cls-1" d="M81.61,14.92c0,5.08-3.08,8.16-7.61,8.16s-7.29-3.47-7.29-7.89c0-4.64,3-8.12,7.54-8.12C79,7.08,81.61,10.64,81.61,14.92Zm-11.2.21c0,3,1.43,5.17,3.77,5.17S77.91,18,77.91,15c0-2.78-1.33-5.17-3.75-5.17S70.41,12.11,70.41,15.13Z"/><path class="cls-1" d="M83.91,7.54a30.86,30.86,0,0,1,4.67-.32c2.3,0,3.91.34,5,1.22A3.94,3.94,0,0,1,95,11.68a4.11,4.11,0,0,1-2.74,3.82v.07a3.91,3.91,0,0,1,2.07,2.9c.48,1.75,1,3.77,1.27,4.37H92A19.32,19.32,0,0,1,91,19.22c-.41-1.93-1.08-2.46-2.51-2.48H87.39v6.09H83.91Zm3.47,6.67h1.38c1.75,0,2.78-.87,2.78-2.23s-1-2.14-2.58-2.16a8.73,8.73,0,0,0-1.59.12Z"/><path class="cls-1" d="M100.54,10.27H96.38V7.33h11.91v2.94h-4.23V22.83h-3.52Z"/><path class="cls-1" d="M113.67,7.33v15.5h-3.52V7.33Z"/><path class="cls-1" d="M120.37,22.83l-5-15.5h3.84l1.89,6.55c.53,1.84,1,3.61,1.38,5.54h.07c.39-1.86.88-3.7,1.4-5.47l2-6.62h3.72l-5.22,15.5Z"/><path class="cls-1" d="M140.56,16.28h-5.7V20h6.37v2.87h-9.89V7.33h9.57v2.88h-6v3.22h5.7Z"/></svg>