<svg id="BLUE" xmlns="http://www.w3.org/2000/svg" viewBox="0 0 128.5 43"><defs><style>.cls-1{fill:#8089af;}</style></defs><title>outsole_off_blue</title><path class="cls-1" d="M19,9.35V22.88h-3.2V9.35H11.57V6.5H23.32V9.35Z"/><path class="cls-1" d="M34.61,22.88l-3.2-6.53h-2.3v6.53h-3.2V6.5h6.42a5.88,5.88,0,0,1,2.23.4A5.12,5.12,0,0,1,36.25,8a4.53,4.53,0,0,1,1,1.59,5.3,5.3,0,0,1,.36,1.94,4.72,4.72,0,0,1-.24,1.56,4.41,4.41,0,0,1-.66,1.23,4.35,4.35,0,0,1-1,.92,4.6,4.6,0,0,1-1.14.59l3.66,7.06Zm-.16-11.36A2.05,2.05,0,0,0,33.82,10a2.36,2.36,0,0,0-1.69-.6h-3v4.32h3a2.36,2.36,0,0,0,1.69-.6A2.06,2.06,0,0,0,34.45,11.51Z"/><path class="cls-1" d="M50.28,22.88l-1-2.9H43.49l-1,2.9H39.17l6-16.38h2.51l6,16.38ZM46.46,11.33l-2.07,6h4.07Z"/><path class="cls-1" d="M66.9,17.84a5.76,5.76,0,0,1-6,5.17,6.33,6.33,0,0,1-2.48-.45,6.17,6.17,0,0,1-1.91-1.28,5,5,0,0,1-1-1.29,5.49,5.49,0,0,1-.48-1.46,11.63,11.63,0,0,1-.18-1.74q0-.94,0-2.12t0-2.12a11.63,11.63,0,0,1,.18-1.74,5.5,5.5,0,0,1,.48-1.46,5,5,0,0,1,1-1.29,6.17,6.17,0,0,1,1.91-1.28,6.33,6.33,0,0,1,2.48-.45,6.08,6.08,0,0,1,3.92,1.3,6.13,6.13,0,0,1,2.08,3.88H63.64a3.56,3.56,0,0,0-.9-1.67,2.47,2.47,0,0,0-1.84-.66,2.89,2.89,0,0,0-1.18.23,2.46,2.46,0,0,0-.86.62,2.27,2.27,0,0,0-.38.57,3.49,3.49,0,0,0-.24.83,10.9,10.9,0,0,0-.14,1.28q0,.77,0,1.94t0,1.94a10.88,10.88,0,0,0,.14,1.28,3.49,3.49,0,0,0,.24.83,2.25,2.25,0,0,0,.38.57,2.44,2.44,0,0,0,.86.62,2.89,2.89,0,0,0,1.18.23,2.5,2.5,0,0,0,1.85-.66,3.52,3.52,0,0,0,.91-1.67Z"/><path class="cls-1" d="M75.69,9.35V22.88h-3.2V9.35H68.22V6.5H80V9.35Z"/><path class="cls-1" d="M82.57,22.88V6.5h3.2V22.88Z"/><path class="cls-1" d="M101.13,14.69q0,1.17,0,2.12a10.86,10.86,0,0,1-.2,1.74,5.88,5.88,0,0,1-.5,1.46,5,5,0,0,1-1,1.29,5.92,5.92,0,0,1-1.89,1.28,6.33,6.33,0,0,1-2.48.45,6.41,6.41,0,0,1-2.49-.45,5.87,5.87,0,0,1-1.9-1.28,5,5,0,0,1-1-1.29,5.52,5.52,0,0,1-.48-1.46,11.77,11.77,0,0,1-.18-1.74q0-.94,0-2.12t0-2.12a11.77,11.77,0,0,1,.18-1.74,5.54,5.54,0,0,1,.48-1.46,5,5,0,0,1,1-1.29,5.87,5.87,0,0,1,1.9-1.28,6.41,6.41,0,0,1,2.49-.45,6.33,6.33,0,0,1,2.48.45,5.92,5.92,0,0,1,1.89,1.28,5,5,0,0,1,1,1.29,5.89,5.89,0,0,1,.5,1.46,10.86,10.86,0,0,1,.2,1.74Q101.13,13.52,101.13,14.69Zm-3.2,0q0-1.17,0-1.94a11.12,11.12,0,0,0-.14-1.28,3.28,3.28,0,0,0-.24-.82,2.38,2.38,0,0,0-.38-.56,2.59,2.59,0,0,0-.86-.63,3,3,0,0,0-2.37,0,2.86,2.86,0,0,0-.89.63,2.35,2.35,0,0,0-.38.56,3.28,3.28,0,0,0-.24.82,9.68,9.68,0,0,0-.13,1.28q0,.77,0,1.94t0,1.94a9.32,9.32,0,0,0,.13,1.26,3.26,3.26,0,0,0,.24.8,2.33,2.33,0,0,0,.38.56,3,3,0,0,0,.89.64,2.9,2.9,0,0,0,2.37,0,2.72,2.72,0,0,0,.86-.64,2.36,2.36,0,0,0,.38-.56,3.26,3.26,0,0,0,.24-.8,10.66,10.66,0,0,0,.14-1.26Q97.93,15.86,97.93,14.69Z"/><path class="cls-1" d="M114.08,22.88l-6.49-10.05V22.88h-3.2V6.5h2.85l6.49,10V6.5h3.2V22.88Z"/></svg>