<svg id="BLACK" xmlns="http://www.w3.org/2000/svg" viewBox="0 0 127.23 43"><title>outsole_on_black</title><path d="M27.64,14.94c0,.78,0,1.49,0,2.12a11.12,11.12,0,0,1-.2,1.73,6,6,0,0,1-.49,1.46,4.91,4.91,0,0,1-1,1.29,6,6,0,0,1-1.88,1.28,6.36,6.36,0,0,1-2.49.45,6.36,6.36,0,0,1-2.49-.45,5.84,5.84,0,0,1-1.9-1.28,4.91,4.91,0,0,1-1-1.29,5.56,5.56,0,0,1-.48-1.46,11.21,11.21,0,0,1-.18-1.73c0-.63,0-1.34,0-2.12s0-1.49,0-2.12a11.35,11.35,0,0,1,.18-1.73,5.56,5.56,0,0,1,.48-1.46,4.91,4.91,0,0,1,1-1.29,5.84,5.84,0,0,1,1.9-1.28,6.37,6.37,0,0,1,2.49-.44,6.37,6.37,0,0,1,2.49.44A6,6,0,0,1,26,8.34a4.91,4.91,0,0,1,1,1.29,6,6,0,0,1,.49,1.46,11.26,11.26,0,0,1,.2,1.73C27.63,13.45,27.64,14.16,27.64,14.94Zm-3.2,0c0-.78,0-1.43,0-1.94a11.08,11.08,0,0,0-.14-1.28A3.23,3.23,0,0,0,24,10.9a2.56,2.56,0,0,0-1.24-1.19,2.81,2.81,0,0,0-1.19-.24,2.76,2.76,0,0,0-1.18.24,2.87,2.87,0,0,0-.89.63,2.63,2.63,0,0,0-.38.56,3.23,3.23,0,0,0-.24.82A11.38,11.38,0,0,0,18.77,13c0,.51,0,1.16,0,1.94s0,1.43,0,1.94a10.92,10.92,0,0,0,.13,1.27,3.27,3.27,0,0,0,.24.81,2.63,2.63,0,0,0,.38.56,3.07,3.07,0,0,0,.89.64,2.63,2.63,0,0,0,1.18.26,2.67,2.67,0,0,0,1.19-.26,2.8,2.8,0,0,0,.86-.64A2.63,2.63,0,0,0,24,19a3.27,3.27,0,0,0,.24-.81,10.63,10.63,0,0,0,.14-1.27C24.43,16.37,24.44,15.72,24.44,14.94Z"/><path d="M42.71,17.52a5.7,5.7,0,0,1-.48,2.37A5.42,5.42,0,0,1,41,21.69,5.79,5.79,0,0,1,39,22.85a6.84,6.84,0,0,1-4.72,0,5.79,5.79,0,0,1-1.91-1.16,5.42,5.42,0,0,1-1.28-1.8,5.7,5.7,0,0,1-.48-2.37V6.75h3.2V17.4a3.07,3.07,0,0,0,.76,2.22,3.09,3.09,0,0,0,4.15,0,3.07,3.07,0,0,0,.77-2.22V6.75h3.18Z"/><path d="M52.53,9.61V23.13h-3.2V9.61H45.05V6.75H56.8V9.61Z"/><path d="M70,18.3a4.66,4.66,0,0,1-.46,2.12A4.43,4.43,0,0,1,68.25,22a5.92,5.92,0,0,1-1.93,1,8.16,8.16,0,0,1-2.41.34,10.6,10.6,0,0,1-3.32-.48,6.45,6.45,0,0,1-2.66-1.68L60,19a4.18,4.18,0,0,0,1.8,1.08,7.43,7.43,0,0,0,2.14.3,3.75,3.75,0,0,0,2.18-.53,1.77,1.77,0,0,0,.74-1.52A1.83,1.83,0,0,0,66.35,17a1.68,1.68,0,0,0-.55-.34,4.38,4.38,0,0,0-.92-.21l-2-.3a7.58,7.58,0,0,1-1.86-.49,4.47,4.47,0,0,1-1.31-.87,4.25,4.25,0,0,1-1.17-3.22,5.07,5.07,0,0,1,.39-2A4.27,4.27,0,0,1,60.09,8a5.27,5.27,0,0,1,1.8-1,7.36,7.36,0,0,1,2.39-.36,9.21,9.21,0,0,1,3,.43,6.24,6.24,0,0,1,2.32,1.47l-2,2a3.37,3.37,0,0,0-1.66-.94,8,8,0,0,0-1.7-.19,2.58,2.58,0,0,0-1.9.61,2,2,0,0,0-.61,1.46,2.17,2.17,0,0,0,.1.62,1.46,1.46,0,0,0,.36.55,2.46,2.46,0,0,0,.61.39,2.88,2.88,0,0,0,.89.23l2,.3a8.13,8.13,0,0,1,1.86.46,3.83,3.83,0,0,1,1.27.83,3.51,3.51,0,0,1,1,1.47A6.35,6.35,0,0,1,70,18.3Z"/><path d="M84.54,14.94c0,.78,0,1.49,0,2.12a11.12,11.12,0,0,1-.2,1.73,6,6,0,0,1-.49,1.46,4.7,4.7,0,0,1-1,1.29A6,6,0,0,1,81,22.82a7.11,7.11,0,0,1-5,0,5.84,5.84,0,0,1-1.9-1.28,4.87,4.87,0,0,1-.95-1.29,5.23,5.23,0,0,1-.49-1.46,11.21,11.21,0,0,1-.18-1.73c0-.63,0-1.34,0-2.12s0-1.49,0-2.12a11.35,11.35,0,0,1,.18-1.73,5.23,5.23,0,0,1,.49-1.46,4.87,4.87,0,0,1,.95-1.29A5.84,5.84,0,0,1,76,7.06a7.27,7.27,0,0,1,5,0,6,6,0,0,1,1.88,1.28,4.7,4.7,0,0,1,1,1.29,6,6,0,0,1,.49,1.46,11.26,11.26,0,0,1,.2,1.73C84.53,13.45,84.54,14.16,84.54,14.94Zm-3.19,0c0-.78,0-1.43,0-1.94a11.08,11.08,0,0,0-.14-1.28,3.23,3.23,0,0,0-.24-.82,2.56,2.56,0,0,0-1.24-1.19,2.81,2.81,0,0,0-1.19-.24,2.76,2.76,0,0,0-1.18.24,2.87,2.87,0,0,0-.89.63,2.63,2.63,0,0,0-.38.56,3.23,3.23,0,0,0-.24.82A9.64,9.64,0,0,0,75.68,13c0,.51,0,1.16,0,1.94s0,1.43,0,1.94a9.3,9.3,0,0,0,.12,1.27A3.27,3.27,0,0,0,76,19a2.63,2.63,0,0,0,.38.56,3.07,3.07,0,0,0,.89.64,2.63,2.63,0,0,0,1.18.26,2.67,2.67,0,0,0,1.19-.26,2.8,2.8,0,0,0,.86-.64,2.63,2.63,0,0,0,.38-.56,3.27,3.27,0,0,0,.24-.81,10.63,10.63,0,0,0,.14-1.27C81.33,16.37,81.35,15.72,81.35,14.94Z"/><path d="M87.81,23.13V6.75H91V20.28h7.43v2.85Z"/><path d="M101,23.13V6.75h10.79V9.61h-7.59v3.84h6.46V16.3h-6.46v4h7.59v2.85Z"/><rect x="15.61" y="32.86" width="96" height="6"/></svg>