<svg xmlns="http://www.w3.org/2000/svg" viewBox="0 0 212 39"><defs><style>.cls-1{fill:#f2f2f2;}</style></defs><title>UB_off</title><g id="Layer_2" data-name="Layer 2"><rect class="cls-1" y="-0.5" width="212" height="40"/></g><g id="Layer_1" data-name="Layer 1"><path d="M36.05,22a6.52,6.52,0,0,1-.16,1.58,2.25,2.25,0,0,1-.62,1.09,2.83,2.83,0,0,1-1,.58,4.16,4.16,0,0,1-1.4.22,3.22,3.22,0,0,1-2.35-.8,2.39,2.39,0,0,1-.61-1,6,6,0,0,1-.17-1.56h1.9a4.15,4.15,0,0,0,.07.8,1.39,1.39,0,0,0,.27.56,1.52,1.52,0,0,0,.35.23,1.38,1.38,0,0,0,.54.09,1.14,1.14,0,0,0,.92-.34,1.22,1.22,0,0,0,.25-.54,3.48,3.48,0,0,0,.07-.8,6,6,0,0,0,0-.8,1.49,1.49,0,0,0-.17-.54,1.2,1.2,0,0,0-.35-.36,2.41,2.41,0,0,0-.58-.29l-1.44-.6a3.45,3.45,0,0,1-.79-.42,1.93,1.93,0,0,1-.51-.59,2.44,2.44,0,0,1-.29-.84,5.87,5.87,0,0,1-.1-1.19A4.27,4.27,0,0,1,30.13,15a2.71,2.71,0,0,1,.74-1.1,3,3,0,0,1,.91-.53,3.24,3.24,0,0,1,1.16-.2,3.07,3.07,0,0,1,2.18.73A2.41,2.41,0,0,1,35.78,15,5.3,5.3,0,0,1,36,16.5H34.06a4,4,0,0,0-.05-.73,1.13,1.13,0,0,0-.23-.56,1,1,0,0,0-.85-.36,1.16,1.16,0,0,0-.49.09,1,1,0,0,0-.33.25,1.76,1.76,0,0,0-.32,1.19,5.53,5.53,0,0,0,0,.63,1,1,0,0,0,.15.43,1,1,0,0,0,.3.32,2.3,2.3,0,0,0,.52.25l1.43.58a4.18,4.18,0,0,1,.9.49,2,2,0,0,1,.56.66,3.14,3.14,0,0,1,.29.94A8.27,8.27,0,0,1,36.05,22Z"/><path d="M42,25.34V20.05H39.62v5.29h-1.9V13.23h1.9v5.1H42v-5.1h1.9V25.34Z"/><path d="M52.07,19.29c0,.71,0,1.34,0,1.87a13.28,13.28,0,0,1-.11,1.42,4.7,4.7,0,0,1-.26,1.06,2.87,2.87,0,0,1-.49.8,3.27,3.27,0,0,1-.93.74,3.13,3.13,0,0,1-1.41.29,3.07,3.07,0,0,1-1.41-.29,3.18,3.18,0,0,1-.94-.74,2.73,2.73,0,0,1-.47-.81,4.72,4.72,0,0,1-.27-1.05,13.28,13.28,0,0,1-.12-1.42c0-.53,0-1.16,0-1.87s0-1.34,0-1.88A12.85,12.85,0,0,1,45.75,16,4.67,4.67,0,0,1,46,14.94a2.73,2.73,0,0,1,.47-.81,3,3,0,0,1,.94-.73,3,3,0,0,1,1.41-.3,3,3,0,0,1,1.41.3,3.08,3.08,0,0,1,.93.73,2.87,2.87,0,0,1,.49.8A4.7,4.7,0,0,1,51.93,16,13.49,13.49,0,0,1,52,17.41C52.06,18,52.07,18.57,52.07,19.29Zm-1.91,0c0-1.11,0-2-.06-2.62a3.31,3.31,0,0,0-.34-1.4,1.27,1.27,0,0,0-.36-.33,1.19,1.19,0,0,0-.56-.13,1.16,1.16,0,0,0-.56.13,1.19,1.19,0,0,0-.34.33,3.29,3.29,0,0,0-.35,1.4c-.05.63-.08,1.51-.08,2.62s0,2,.08,2.61a3.29,3.29,0,0,0,.35,1.4,1.19,1.19,0,0,0,.34.33,1.16,1.16,0,0,0,.56.13,1.19,1.19,0,0,0,.56-.13,1.27,1.27,0,0,0,.36-.33,3.31,3.31,0,0,0,.34-1.4Q50.16,21,50.16,19.29Z"/><path d="M59.94,16.92a4.39,4.39,0,0,1-.73,2.79,2.92,2.92,0,0,1-2.38.88H55.69v4.75H53.78V13.23h3a2.9,2.9,0,0,1,2.38.9A4.39,4.39,0,0,1,59.94,16.92Zm-1.91,0a3.35,3.35,0,0,0-.25-1.44,1,1,0,0,0-1-.53H55.69v3.93h1.07a1,1,0,0,0,1-.52A3.35,3.35,0,0,0,58,16.92Z"/><path d="M70.7,22.36a3.33,3.33,0,0,1-.22,1.26,3.08,3.08,0,0,1-5.73,0,3.33,3.33,0,0,1-.22-1.26V13.23h1.9v9.23a1.25,1.25,0,0,0,.35,1,1.23,1.23,0,0,0,1.68,0,1.28,1.28,0,0,0,.34-1V13.23h1.9Z"/><path d="M72.64,25.34V13.23h1.9V23.62h3.18v1.72Z"/><path d="M81.56,15V25.34h-1.9V15h-2V13.23h6V15Z"/><path d="M89.54,25.34l-1.59-5H86.88v5H85V13.23H88a3,3,0,0,1,2.38.85,4.16,4.16,0,0,1,.71,2.72,5.47,5.47,0,0,1-.29,1.92A2.23,2.23,0,0,1,89.72,20l1.8,5.37Zm-.31-8.54a5.43,5.43,0,0,0,0-.71,2.38,2.38,0,0,0-.16-.6.85.85,0,0,0-.36-.39,1.13,1.13,0,0,0-.61-.15H86.88v3.71h1.18a1.13,1.13,0,0,0,.61-.15.88.88,0,0,0,.36-.4,2.41,2.41,0,0,0,.16-.59A5.58,5.58,0,0,0,89.23,16.8Z"/><path d="M98,25.34l-.49-2.4H94.65l-.47,2.4h-2l3-12.11H97l2.94,12.11Zm-1.89-9.18-1,5.06H97.1Z"/><path d="M107.23,21.87a6.58,6.58,0,0,1-.17,1.67,2.39,2.39,0,0,1-1.56,1.61,4.46,4.46,0,0,1-1.43.19h-3V13.23h3a4.74,4.74,0,0,1,1.41.18,2.21,2.21,0,0,1,.93.57,2.39,2.39,0,0,1,.6,1,5.44,5.44,0,0,1,.17,1.52,4.55,4.55,0,0,1-.14,1.16A2.13,2.13,0,0,1,105.87,19a2.1,2.1,0,0,1,1.23,1.45A6.3,6.3,0,0,1,107.23,21.87Zm-1.94-5.29a1.94,1.94,0,0,0-.31-1.26,1.31,1.31,0,0,0-1.06-.37h-1v3.28h1a1.28,1.28,0,0,0,1.06-.39A2,2,0,0,0,105.29,16.58Zm0,5.15a2.43,2.43,0,0,0-.34-1.45,1.33,1.33,0,0,0-1.11-.43H103v3.77h.92A1.36,1.36,0,0,0,105,23.2,2.4,2.4,0,0,0,105.33,21.73Z"/><path d="M115.14,19.29c0,.71,0,1.34,0,1.87a13.28,13.28,0,0,1-.11,1.42,4.7,4.7,0,0,1-.26,1.06,2.87,2.87,0,0,1-.49.8,3.27,3.27,0,0,1-.93.74,3.6,3.6,0,0,1-2.83,0,3.27,3.27,0,0,1-.93-.74,3,3,0,0,1-.48-.81,5.37,5.37,0,0,1-.26-1.05,13.28,13.28,0,0,1-.12-1.42c0-.53,0-1.16,0-1.87s0-1.34,0-1.88a12.85,12.85,0,0,1,.12-1.41,5.3,5.3,0,0,1,.26-1.06,3,3,0,0,1,.48-.81,3.08,3.08,0,0,1,.93-.73,3.49,3.49,0,0,1,2.83,0,3.08,3.08,0,0,1,.93.73,2.87,2.87,0,0,1,.49.8A4.7,4.7,0,0,1,115,16a13.49,13.49,0,0,1,.11,1.42C115.13,18,115.14,18.57,115.14,19.29Zm-1.91,0c0-1.11,0-2-.07-2.62a3,3,0,0,0-.34-1.4,1.23,1.23,0,0,0-.35-.33,1.19,1.19,0,0,0-.56-.13,1.13,1.13,0,0,0-.56.13,1.19,1.19,0,0,0-.34.33,3.15,3.15,0,0,0-.35,1.4c0,.63-.08,1.51-.08,2.62s0,2,.08,2.61a3.15,3.15,0,0,0,.35,1.4,1.19,1.19,0,0,0,.34.33,1.13,1.13,0,0,0,.56.13,1.19,1.19,0,0,0,.56-.13,1.23,1.23,0,0,0,.35-.33,3,3,0,0,0,.34-1.4C113.21,21.27,113.23,20.4,113.23,19.29Z"/><path d="M123.07,19.29c0,.71,0,1.34,0,1.87s-.06,1-.11,1.42a5.3,5.3,0,0,1-.26,1.06,3.13,3.13,0,0,1-.49.8,3.27,3.27,0,0,1-.93.74,3.6,3.6,0,0,1-2.83,0,3.27,3.27,0,0,1-.93-.74,2.76,2.76,0,0,1-.48-.81,5.37,5.37,0,0,1-.26-1.05,13.28,13.28,0,0,1-.12-1.42c0-.53,0-1.16,0-1.87s0-1.34,0-1.88a12.85,12.85,0,0,1,.12-1.41,5.3,5.3,0,0,1,.26-1.06,2.76,2.76,0,0,1,.48-.81,3.08,3.08,0,0,1,.93-.73,3.49,3.49,0,0,1,2.83,0,3.08,3.08,0,0,1,.93.73,3.13,3.13,0,0,1,.49.8,5.3,5.3,0,0,1,.26,1.06c0,.41.09.88.11,1.42S123.07,18.57,123.07,19.29Zm-1.9,0c0-1.11,0-2-.07-2.62a3.16,3.16,0,0,0-.34-1.4,1.23,1.23,0,0,0-.35-.33,1.2,1.2,0,0,0-.57-.13,1.12,1.12,0,0,0-.55.13,1.23,1.23,0,0,0-.35.33,3.31,3.31,0,0,0-.34,1.4c-.06.63-.08,1.51-.08,2.62s0,2,.08,2.61a3.31,3.31,0,0,0,.34,1.4,1.23,1.23,0,0,0,.35.33,1.12,1.12,0,0,0,.55.13,1.2,1.2,0,0,0,.57-.13,1.23,1.23,0,0,0,.35-.33,3.16,3.16,0,0,0,.34-1.4C121.15,21.27,121.17,20.4,121.17,19.29Z"/><path d="M130.64,22a6.52,6.52,0,0,1-.16,1.58,2.33,2.33,0,0,1-.62,1.09,2.83,2.83,0,0,1-1,.58,4.17,4.17,0,0,1-1.41.22,3.17,3.17,0,0,1-2.34-.8,2.3,2.3,0,0,1-.61-1,5.61,5.61,0,0,1-.17-1.56h1.9a3.48,3.48,0,0,0,.07.8,1.17,1.17,0,0,0,.27.56,1.33,1.33,0,0,0,.35.23,1.36,1.36,0,0,0,.53.09,1.13,1.13,0,0,0,.92-.34,1.24,1.24,0,0,0,.26-.54,4.15,4.15,0,0,0,.07-.8,5.77,5.77,0,0,0-.05-.8,1.32,1.32,0,0,0-.17-.54,1.09,1.09,0,0,0-.35-.36,2.32,2.32,0,0,0-.57-.29l-1.45-.6a3.36,3.36,0,0,1-.78-.42,1.83,1.83,0,0,1-.52-.59,2.67,2.67,0,0,1-.29-.84,6.79,6.79,0,0,1-.09-1.19,4.28,4.28,0,0,1,.24-1.47,2.93,2.93,0,0,1,.74-1.1,3.15,3.15,0,0,1,.91-.53,3.34,3.34,0,0,1,1.17-.2,3,3,0,0,1,2.17.73,2.51,2.51,0,0,1,.67,1.12,5.71,5.71,0,0,1,.18,1.52h-1.9a5.23,5.23,0,0,0-.05-.73,1.06,1.06,0,0,0-.24-.56,1,1,0,0,0-.85-.36,1.14,1.14,0,0,0-.48.09,1,1,0,0,0-.33.25,1.76,1.76,0,0,0-.33,1.19,3.77,3.77,0,0,0,0,.63,1.09,1.09,0,0,0,.14.43,1,1,0,0,0,.31.32,2.42,2.42,0,0,0,.51.25l1.43.58a3.75,3.75,0,0,1,.9.49,2,2,0,0,1,.57.66,3.14,3.14,0,0,1,.28.94A8.15,8.15,0,0,1,130.64,22Z"/><path d="M135.48,15V25.34h-1.9V15h-2V13.23h6V15Z"/><path d="M148.17,25.34V17.79l-1.65,5h-1.06l-1.61-4.88v7.47h-1.91V13.23h1.72L146,19.59l2.33-6.36h1.73V25.34Z"/><path d="M152.11,25.34V13.23h5.08V15H154v3.43h2.74V20.1H154v3.52h3.18v1.72Z"/><path d="M163.6,25.34l-2.85-7.19v7.19h-1.91V13.23h1.7l2.84,7.19V13.23h1.9V25.34Z"/><polygon points="174.43 26.56 172.07 23.96 176.98 19.5 172.07 15.04 174.43 12.44 182.22 19.5 174.43 26.56"/></g></svg>