<svg xmlns="http://www.w3.org/2000/svg" viewBox="0 0 212 39"><defs><style>.cls-1{fill:#fff;}</style></defs><title>UB_on</title><g id="Layer_2" data-name="Layer 2"><rect y="-0.5" width="212" height="40"/></g><g id="Layer_1" data-name="Layer 1"><polygon class="cls-1" points="173.46 25.29 171.52 23.15 175.54 19.5 171.52 15.85 173.46 13.71 179.83 19.5 173.46 25.29"/><path class="cls-1" d="M38.35,21.5a2.34,2.34,0,0,1-.24,1.07,2.25,2.25,0,0,1-.64.8,2.84,2.84,0,0,1-1,.5,4.57,4.57,0,0,1-1.26.17,5.21,5.21,0,0,1-1.71-.26,3.61,3.61,0,0,1-1.35-.88L33,22a2.62,2.62,0,0,0,1,.66,3.89,3.89,0,0,0,1.21.18,2.18,2.18,0,0,0,1.32-.34,1.19,1.19,0,0,0,.46-1,1.13,1.13,0,0,0-.34-.9,1.82,1.82,0,0,0-.94-.36l-1-.15a3,3,0,0,1-1.63-.69,2.13,2.13,0,0,1-.64-1.67,2.61,2.61,0,0,1,.2-1,2.21,2.21,0,0,1,.57-.81,2.6,2.6,0,0,1,.91-.51,3.75,3.75,0,0,1,1.21-.19,4.23,4.23,0,0,1,1.51.24,3.46,3.46,0,0,1,1.18.75l-.83.83a2,2,0,0,0-.87-.53,3.42,3.42,0,0,0-1-.14,1.66,1.66,0,0,0-1.17.37,1.29,1.29,0,0,0-.4,1,1.33,1.33,0,0,0,.07.45.85.85,0,0,0,.24.35,1.41,1.41,0,0,0,.39.24,2.61,2.61,0,0,0,.56.15l1,.16a4.41,4.41,0,0,1,1,.24,2.23,2.23,0,0,1,.64.4A2.29,2.29,0,0,1,38.35,21.5Z"/><path class="cls-1" d="M44.94,24V20.18H41.42V24H40.11V15.31h1.31V19h3.52V15.31h1.31V24Z"/><path class="cls-1" d="M54.42,19.64c0,.45,0,.85,0,1.2a6,6,0,0,1-.11.92,2.66,2.66,0,0,1-.26.75,2.85,2.85,0,0,1-.49.65,2.9,2.9,0,0,1-1,.65,3.57,3.57,0,0,1-2.52,0,2.9,2.9,0,0,1-1-.65,2.85,2.85,0,0,1-.49-.65,3,3,0,0,1-.26-.75,5,5,0,0,1-.1-.92c0-.35,0-.75,0-1.2s0-.86,0-1.2a5.1,5.1,0,0,1,.1-.93,2.81,2.81,0,0,1,.26-.74,2.69,2.69,0,0,1,.49-.66,3.05,3.05,0,0,1,1-.65,3.57,3.57,0,0,1,2.52,0,3.05,3.05,0,0,1,1,.65,2.69,2.69,0,0,1,.49.66,2.5,2.5,0,0,1,.26.74,6.09,6.09,0,0,1,.11.93C54.42,18.78,54.42,19.18,54.42,19.64Zm-1.31,0c0-.43,0-.79,0-1.09a4.9,4.9,0,0,0-.07-.74,1.84,1.84,0,0,0-.16-.5,1.37,1.37,0,0,0-.26-.37,1.81,1.81,0,0,0-2.58,0,1.9,1.9,0,0,0-.26.37,2,2,0,0,0-.16.51,6.25,6.25,0,0,0-.07.73c0,.3,0,.66,0,1.09s0,.79,0,1.07a6.44,6.44,0,0,0,.07.74,1.84,1.84,0,0,0,.16.5,1.64,1.64,0,0,0,.26.37,1.81,1.81,0,0,0,.57.41,1.92,1.92,0,0,0,1.44,0,1.81,1.81,0,0,0,.57-.41,1.37,1.37,0,0,0,.26-.37,1.88,1.88,0,0,0,.16-.49,4.77,4.77,0,0,0,.07-.74C53.1,20.43,53.11,20.07,53.11,19.64Z"/><path class="cls-1" d="M62.43,17.93a2.73,2.73,0,0,1-.2,1.05,2.34,2.34,0,0,1-.56.83,2.56,2.56,0,0,1-.87.54,3.19,3.19,0,0,1-1.15.2h-2V24H56.37V15.31h3.28a3,3,0,0,1,1.15.2,2.44,2.44,0,0,1,.87.55,2.18,2.18,0,0,1,.56.83A2.75,2.75,0,0,1,62.43,17.93Zm-1.32,0a1.38,1.38,0,0,0-.42-1.07,1.6,1.6,0,0,0-1.11-.37h-1.9v2.89h1.9A1.56,1.56,0,0,0,60.69,19,1.35,1.35,0,0,0,61.11,17.93Z"/><path class="cls-1" d="M73,21.05a3.05,3.05,0,0,1-.24,1.22,2.73,2.73,0,0,1-.65.94,3.16,3.16,0,0,1-1,.61,3.52,3.52,0,0,1-2.45,0,3.11,3.11,0,0,1-1-.61,2.87,2.87,0,0,1-.65-.94,3.05,3.05,0,0,1-.24-1.22V15.31h1.32V21a1.89,1.89,0,0,0,.48,1.37,2,2,0,0,0,2.61,0,1.86,1.86,0,0,0,.5-1.37V15.31H73Z"/><path class="cls-1" d="M75.15,24V15.31h1.31v7.48h4.17V24Z"/><path class="cls-1" d="M84.09,16.49V24H82.77V16.49H80.39V15.31h6.08v1.18Z"/><path class="cls-1" d="M92.75,24l-1.83-3.65H89.28V24H88V15.31h3.35a3,3,0,0,1,1.12.19,2.48,2.48,0,0,1,.84.52,2.1,2.1,0,0,1,.54.8,2.61,2.61,0,0,1,.19,1,2.24,2.24,0,0,1-.5,1.51,2.46,2.46,0,0,1-1.23.79l2,3.83Zm0-6.12a1.25,1.25,0,0,0-.41-1,1.55,1.55,0,0,0-1.06-.36h-2V19.2h2a1.59,1.59,0,0,0,1.06-.35A1.27,1.27,0,0,0,92.7,17.85Z"/><path class="cls-1" d="M100.91,24l-.6-1.74H96.89L96.3,24H94.9l3.17-8.66h1.06L102.3,24Zm-2.28-6.7-1.35,3.84H100Z"/><path class="cls-1" d="M109.65,21.52a2.46,2.46,0,0,1-.2,1.05,1.92,1.92,0,0,1-.54.77,2.29,2.29,0,0,1-.82.47,3.5,3.5,0,0,1-1,.16h-3.51V15.31h3.37a2.78,2.78,0,0,1,1.92.63,2.24,2.24,0,0,1,.7,1.74,2,2,0,0,1-.11.65,2,2,0,0,1-.26.53,1.87,1.87,0,0,1-.38.41,1.66,1.66,0,0,1-.42.25,1.83,1.83,0,0,1,.49.27,2.33,2.33,0,0,1,.41.42,1.91,1.91,0,0,1,.29.57A2.45,2.45,0,0,1,109.65,21.52Zm-1.45-3.79a1.12,1.12,0,0,0-.39-.93,1.57,1.57,0,0,0-1-.31h-1.94V19h1.94a1.58,1.58,0,0,0,1-.32A1.12,1.12,0,0,0,108.2,17.73Zm.14,3.73a1.31,1.31,0,0,0-.37-.95,1.43,1.43,0,0,0-1.06-.36h-2.06v2.64h2.06a1.44,1.44,0,0,0,1.06-.37A1.34,1.34,0,0,0,108.34,21.46Z"/><path class="cls-1" d="M117.51,19.64c0,.45,0,.85,0,1.2a4.94,4.94,0,0,1-.11.92,2.66,2.66,0,0,1-.26.75,2.58,2.58,0,0,1-.49.65,2.86,2.86,0,0,1-1,.65,3.34,3.34,0,0,1-1.27.23,3.26,3.26,0,0,1-1.26-.23,2.9,2.9,0,0,1-1-.65,3.17,3.17,0,0,1-.49-.65,3.49,3.49,0,0,1-.26-.75,6,6,0,0,1-.1-.92c0-.35,0-.75,0-1.2s0-.86,0-1.2a6.16,6.16,0,0,1,.1-.93,3.23,3.23,0,0,1,.26-.74,3,3,0,0,1,.49-.66,3.05,3.05,0,0,1,1-.65,3.26,3.26,0,0,1,1.26-.23,3.34,3.34,0,0,1,1.27.23,3,3,0,0,1,1,.65,2.46,2.46,0,0,1,.49.66,2.5,2.5,0,0,1,.26.74,5,5,0,0,1,.11.93C117.5,18.78,117.51,19.18,117.51,19.64Zm-1.32,0c0-.43,0-.79,0-1.09a6.45,6.45,0,0,0-.08-.74,1.55,1.55,0,0,0-.16-.5,1.37,1.37,0,0,0-.26-.37,1.81,1.81,0,0,0-2.58,0,1.9,1.9,0,0,0-.26.37,2,2,0,0,0-.16.51,6.25,6.25,0,0,0-.07.73c0,.3,0,.66,0,1.09s0,.79,0,1.07a6.44,6.44,0,0,0,.07.74,1.84,1.84,0,0,0,.16.5,1.64,1.64,0,0,0,.26.37,2,2,0,0,0,.58.41,1.8,1.8,0,0,0,.71.14,1.89,1.89,0,0,0,.72-.14,1.81,1.81,0,0,0,.57-.41,1.37,1.37,0,0,0,.26-.37,1.57,1.57,0,0,0,.16-.49,6.2,6.2,0,0,0,.08-.74C116.19,20.43,116.19,20.07,116.19,19.64Z"/><path class="cls-1" d="M125.24,19.64c0,.45,0,.85,0,1.2a5,5,0,0,1-.1.92,3,3,0,0,1-.26.75,2.85,2.85,0,0,1-.49.65,2.9,2.9,0,0,1-1,.65,3.26,3.26,0,0,1-1.26.23,3.34,3.34,0,0,1-1.27-.23,3,3,0,0,1-1.46-1.3,2.66,2.66,0,0,1-.26-.75,6,6,0,0,1-.11-.92c0-.35,0-.75,0-1.2s0-.86,0-1.2a6.09,6.09,0,0,1,.11-.93,2.5,2.5,0,0,1,.26-.74,2.69,2.69,0,0,1,.49-.66,3,3,0,0,1,1-.65,3.34,3.34,0,0,1,1.27-.23,3.26,3.26,0,0,1,1.26.23,3.05,3.05,0,0,1,1,.65,2.69,2.69,0,0,1,.49.66,2.81,2.81,0,0,1,.26.74,5.1,5.1,0,0,1,.1.93C125.24,18.78,125.24,19.18,125.24,19.64Zm-1.31,0c0-.43,0-.79,0-1.09a6.67,6.67,0,0,0-.07-.74,1.84,1.84,0,0,0-.16-.5,1.64,1.64,0,0,0-.26-.37,1.81,1.81,0,0,0-2.58,0,1.55,1.55,0,0,0-.26.37,2,2,0,0,0-.16.51,4.63,4.63,0,0,0-.07.73c0,.3,0,.66,0,1.09s0,.79,0,1.07a4.77,4.77,0,0,0,.07.74,1.84,1.84,0,0,0,.16.5,1.37,1.37,0,0,0,.26.37,1.81,1.81,0,0,0,.57.41,1.92,1.92,0,0,0,1.44,0,1.93,1.93,0,0,0,.57-.41,1.64,1.64,0,0,0,.26-.37,1.88,1.88,0,0,0,.16-.49,6.44,6.44,0,0,0,.07-.74C123.92,20.43,123.93,20.07,123.93,19.64Z"/><path class="cls-1" d="M132.6,21.5a2.47,2.47,0,0,1-.23,1.07,2.39,2.39,0,0,1-.65.8,2.75,2.75,0,0,1-1,.5,4.5,4.5,0,0,1-1.25.17,5.13,5.13,0,0,1-1.71-.26,3.65,3.65,0,0,1-1.36-.88l.87-.87a2.49,2.49,0,0,0,1,.66,3.78,3.78,0,0,0,1.2.18,2.2,2.2,0,0,0,1.33-.34,1.21,1.21,0,0,0,.46-1,1.13,1.13,0,0,0-.34-.9,1.86,1.86,0,0,0-1-.36l-1-.15a2.93,2.93,0,0,1-1.63-.69,2.13,2.13,0,0,1-.65-1.67,2.61,2.61,0,0,1,.2-1,2.36,2.36,0,0,1,.58-.81,2.46,2.46,0,0,1,.9-.51,3.81,3.81,0,0,1,1.22-.19,4.21,4.21,0,0,1,1.5.24,3.49,3.49,0,0,1,1.19.75l-.83.83a2.08,2.08,0,0,0-.88-.53,3.38,3.38,0,0,0-1-.14,1.66,1.66,0,0,0-1.17.37,1.29,1.29,0,0,0-.4,1,1.33,1.33,0,0,0,.07.45.78.78,0,0,0,.25.35,1.36,1.36,0,0,0,.38.24,2.56,2.56,0,0,0,.57.15l1,.16a4.17,4.17,0,0,1,1,.24,2.1,2.1,0,0,1,.64.4A2.29,2.29,0,0,1,132.6,21.5Z"/><path class="cls-1" d="M137.29,16.49V24H136V16.49H133.6V15.31h6.08v1.18Z"/><path class="cls-1" d="M150.42,24V18.18l-2,4.22h-1l-2-4.22V24h-1.32V15.31h1.32l2.53,5.39,2.48-5.39h1.31V24Z"/><path class="cls-1" d="M154,24V15.31h5.53v1.18h-4.22V19h3.6v1.16h-3.6v2.61h4.22V24Z"/><path class="cls-1" d="M166.63,24l-4-6.1V24h-1.32V15.31h1.21l4,6.08V15.31h1.31V24Z"/></g></svg>