<svg xmlns="http://www.w3.org/2000/svg" viewBox="0 0 212 39"><defs><style>.cls-1{fill:#fff;}</style></defs><title>UB_women_on</title><g id="Layer_2" data-name="Layer 2"><rect y="-0.5" width="212" height="40"/></g><g id="Layer_1" data-name="Layer 1"><polygon class="cls-1" points="181.71 25.29 179.77 23.15 183.79 19.5 179.77 15.85 181.71 13.71 188.09 19.5 181.71 25.29"/><path class="cls-1" d="M30,21.34a2.38,2.38,0,0,1-.23,1.05,2.13,2.13,0,0,1-.64.79,2.87,2.87,0,0,1-1,.5,4.31,4.31,0,0,1-1.23.16,5.06,5.06,0,0,1-1.69-.25,3.76,3.76,0,0,1-1.34-.87l.86-.86a2.46,2.46,0,0,0,1,.65,3.76,3.76,0,0,0,1.19.18,2.13,2.13,0,0,0,1.31-.34,1.15,1.15,0,0,0,.45-1,1.13,1.13,0,0,0-.33-.89,1.82,1.82,0,0,0-.94-.36l-1-.14a2.93,2.93,0,0,1-1.61-.68,2.11,2.11,0,0,1-.64-1.65,2.56,2.56,0,0,1,.2-1,2.23,2.23,0,0,1,.56-.79,2.64,2.64,0,0,1,.9-.51,3.69,3.69,0,0,1,1.2-.18,4.35,4.35,0,0,1,1.48.22,3.58,3.58,0,0,1,1.17.75l-.82.81a2.1,2.1,0,0,0-.86-.52,3.64,3.64,0,0,0-1-.14,1.61,1.61,0,0,0-1.15.38,1.22,1.22,0,0,0-.4,1,1.56,1.56,0,0,0,.07.44.85.85,0,0,0,.24.35,1.83,1.83,0,0,0,.38.23,2.61,2.61,0,0,0,.56.15l1,.16a4.21,4.21,0,0,1,.95.24,2,2,0,0,1,.63.39A2.25,2.25,0,0,1,30,21.34Z"/><path class="cls-1" d="M36.51,23.77V20H33.05v3.73h-1.3V15.23h1.3v3.65h3.46V15.23h1.3v8.54Z"/><path class="cls-1" d="M45.87,19.5c0,.45,0,.84,0,1.18a5.67,5.67,0,0,1-.11.91,2.8,2.8,0,0,1-.25.74A2.64,2.64,0,0,1,45,23a2.94,2.94,0,0,1-1,.64,3.66,3.66,0,0,1-2.5,0,2.94,2.94,0,0,1-1-.64,2.6,2.6,0,0,1-.48-.65,2.81,2.81,0,0,1-.26-.74,4.77,4.77,0,0,1-.1-.91c0-.34,0-.73,0-1.18s0-.84,0-1.18a4.77,4.77,0,0,1,.1-.91,2.81,2.81,0,0,1,.26-.74,2.6,2.6,0,0,1,.48-.65,2.94,2.94,0,0,1,1-.64,3.66,3.66,0,0,1,2.5,0A2.94,2.94,0,0,1,45,16a2.64,2.64,0,0,1,.49.65,2.8,2.8,0,0,1,.25.74,5.67,5.67,0,0,1,.11.91C45.87,18.66,45.87,19.05,45.87,19.5Zm-1.29,0c0-.42,0-.78,0-1.07a6.25,6.25,0,0,0-.07-.73,1.84,1.84,0,0,0-.16-.5,1.5,1.5,0,0,0-.26-.36,1.73,1.73,0,0,0-2.8.37,1.56,1.56,0,0,0-.15.5,4.25,4.25,0,0,0-.08.72c0,.29,0,.65,0,1.07s0,.78,0,1.06a4.51,4.51,0,0,0,.08.73,1.64,1.64,0,0,0,.15.5,1.83,1.83,0,0,0,.26.36,1.85,1.85,0,0,0,.56.4,1.87,1.87,0,0,0,.71.14,1.67,1.67,0,0,0,1.27-.54,1.5,1.5,0,0,0,.26-.36,2,2,0,0,0,.16-.5,5.84,5.84,0,0,0,.07-.72C44.57,20.28,44.58,19.92,44.58,19.5Z"/><path class="cls-1" d="M53.77,17.82a2.63,2.63,0,0,1-.19,1,2.42,2.42,0,0,1-.55.82,2.56,2.56,0,0,1-.87.54A3.08,3.08,0,0,1,51,20.4H49.09v3.37h-1.3V15.23H51a2.88,2.88,0,0,1,1.13.2A2.56,2.56,0,0,1,53,16a2.24,2.24,0,0,1,.55.82A2.7,2.7,0,0,1,53.77,17.82Zm-1.3,0a1.34,1.34,0,0,0-.41-1.06,1.62,1.62,0,0,0-1.1-.37H49.09v2.86H51a1.62,1.62,0,0,0,1.1-.37A1.34,1.34,0,0,0,52.47,17.82Z"/><path class="cls-1" d="M64.22,20.89A3.18,3.18,0,0,1,64,22.1a2.79,2.79,0,0,1-.65.93,3.23,3.23,0,0,1-1,.6,3.46,3.46,0,0,1-1.21.21,3.42,3.42,0,0,1-1.21-.21,3.06,3.06,0,0,1-1-.6,2.79,2.79,0,0,1-.65-.93,3.18,3.18,0,0,1-.23-1.21V15.23h1.3v5.6a1.87,1.87,0,0,0,.48,1.36,1.69,1.69,0,0,0,1.28.49,1.71,1.71,0,0,0,1.29-.49,1.87,1.87,0,0,0,.49-1.36v-5.6h1.29Z"/><path class="cls-1" d="M66.32,23.77V15.23h1.3v7.38h4.11v1.16Z"/><path class="cls-1" d="M75.14,16.39v7.38H73.85V16.39H71.49V15.23h6v1.16Z"/><path class="cls-1" d="M83.68,23.77l-1.79-3.6H80.26v3.6H79V15.23h3.31a3.17,3.17,0,0,1,1.1.18,2.6,2.6,0,0,1,.83.52,2.31,2.31,0,0,1,.54.79,2.73,2.73,0,0,1,.18,1,2.2,2.2,0,0,1-.49,1.5,2.41,2.41,0,0,1-1.21.77l2,3.78Zm0-6a1.23,1.23,0,0,0-.41-1,1.49,1.49,0,0,0-1-.36H80.26v2.68h1.92a1.53,1.53,0,0,0,1-.35A1.22,1.22,0,0,0,83.64,17.74Z"/><path class="cls-1" d="M91.74,23.77l-.59-1.71H87.78l-.59,1.71H85.81l3.13-8.54h1l3.14,8.54Zm-2.25-6.61L88.16,21h2.63Z"/><path class="cls-1" d="M100.36,21.36a2.61,2.61,0,0,1-.19,1,1.93,1.93,0,0,1-.53.75,2.29,2.29,0,0,1-.82.47,3.39,3.39,0,0,1-1,.15H94.33V15.23h3.32a2.74,2.74,0,0,1,1.89.62,2.21,2.21,0,0,1,.69,1.72,1.91,1.91,0,0,1-.1.64,2.61,2.61,0,0,1-.26.53,1.72,1.72,0,0,1-.37.39,1.86,1.86,0,0,1-.42.25,1.64,1.64,0,0,1,.48.27,2.27,2.27,0,0,1,.41.41,2.18,2.18,0,0,1,.29.57A2.34,2.34,0,0,1,100.36,21.36Zm-1.42-3.74a1.12,1.12,0,0,0-.39-.92,1.57,1.57,0,0,0-1-.31H95.63v2.45h1.92a1.51,1.51,0,0,0,1-.31A1.1,1.1,0,0,0,98.94,17.62Zm.13,3.68a1.28,1.28,0,0,0-.36-.94,1.42,1.42,0,0,0-1-.36h-2v2.61h2a1.39,1.39,0,0,0,1-.37A1.28,1.28,0,0,0,99.07,21.3Z"/><path class="cls-1" d="M108.12,19.5c0,.45,0,.84,0,1.18a5.75,5.75,0,0,1-.1.91,3.23,3.23,0,0,1-.26.74,2.64,2.64,0,0,1-.49.65,2.94,2.94,0,0,1-1,.64,3.63,3.63,0,0,1-2.49,0,2.94,2.94,0,0,1-1-.64,2.64,2.64,0,0,1-.49-.65,2.81,2.81,0,0,1-.26-.74,5.75,5.75,0,0,1-.1-.91c0-.34,0-.73,0-1.18s0-.84,0-1.18a5.75,5.75,0,0,1,.1-.91,2.81,2.81,0,0,1,.26-.74,2.64,2.64,0,0,1,.49-.65,2.94,2.94,0,0,1,1-.64,3.63,3.63,0,0,1,2.49,0,2.94,2.94,0,0,1,1,.64,2.64,2.64,0,0,1,.49.65,3.23,3.23,0,0,1,.26.74,5.75,5.75,0,0,1,.1.91C108.11,18.66,108.12,19.05,108.12,19.5Zm-1.3,0c0-.42,0-.78,0-1.07a4.63,4.63,0,0,0-.07-.73,1.84,1.84,0,0,0-.16-.5,1.45,1.45,0,0,0-.25-.36,1.8,1.8,0,0,0-2.55,0,1.64,1.64,0,0,0-.26.37,1.86,1.86,0,0,0-.15.5,4.38,4.38,0,0,0-.07.72c0,.29,0,.65,0,1.07s0,.78,0,1.06a4.63,4.63,0,0,0,.07.73,2,2,0,0,0,.15.5,1.83,1.83,0,0,0,.26.36,1.78,1.78,0,0,0,.57.4,1.85,1.85,0,0,0,1.41,0,1.78,1.78,0,0,0,.57-.4,1.45,1.45,0,0,0,.25-.36,2,2,0,0,0,.16-.5,4.38,4.38,0,0,0,.07-.72C106.81,20.28,106.82,19.92,106.82,19.5Z"/><path class="cls-1" d="M115.75,19.5c0,.45,0,.84,0,1.18a5.75,5.75,0,0,1-.1.91,2.81,2.81,0,0,1-.26.74,2.6,2.6,0,0,1-.48.65,3,3,0,0,1-1,.64,3.28,3.28,0,0,1-1.25.22,3.24,3.24,0,0,1-1.25-.22,2.94,2.94,0,0,1-1-.64,2.64,2.64,0,0,1-.49-.65,3.23,3.23,0,0,1-.26-.74,7.22,7.22,0,0,1-.1-.91c0-.34,0-.73,0-1.18s0-.84,0-1.18a7.22,7.22,0,0,1,.1-.91,3.23,3.23,0,0,1,.26-.74,2.64,2.64,0,0,1,.49-.65,2.94,2.94,0,0,1,1-.64,3.24,3.24,0,0,1,1.25-.22,3.28,3.28,0,0,1,1.25.22,3,3,0,0,1,1,.64,2.6,2.6,0,0,1,.48.65,2.81,2.81,0,0,1,.26.74,5.75,5.75,0,0,1,.1.91C115.74,18.66,115.75,19.05,115.75,19.5Zm-1.3,0c0-.42,0-.78,0-1.07a4.63,4.63,0,0,0-.07-.73,1.86,1.86,0,0,0-.15-.5,1.83,1.83,0,0,0-.26-.36,1.8,1.8,0,0,0-2.55,0,1.6,1.6,0,0,0-.25.37,1.84,1.84,0,0,0-.16.5,5.84,5.84,0,0,0-.07.72c0,.29,0,.65,0,1.07s0,.78,0,1.06a6.25,6.25,0,0,0,.07.73,2,2,0,0,0,.16.5,1.69,1.69,0,0,0,1.53.9,1.87,1.87,0,0,0,.71-.14,1.85,1.85,0,0,0,.56-.4,1.83,1.83,0,0,0,.26-.36,2,2,0,0,0,.15-.5,4.38,4.38,0,0,0,.07-.72C114.45,20.28,114.45,19.92,114.45,19.5Z"/><path class="cls-1" d="M123,21.34a2.38,2.38,0,0,1-.23,1.05,2.13,2.13,0,0,1-.64.79,2.87,2.87,0,0,1-1,.5,4.31,4.31,0,0,1-1.23.16,5.06,5.06,0,0,1-1.69-.25,3.76,3.76,0,0,1-1.34-.87l.85-.86a2.56,2.56,0,0,0,1,.65,3.76,3.76,0,0,0,1.19.18,2.13,2.13,0,0,0,1.31-.34,1.15,1.15,0,0,0,.45-1,1.13,1.13,0,0,0-.33-.89,1.82,1.82,0,0,0-.94-.36l-1-.14a2.93,2.93,0,0,1-1.61-.68,2.11,2.11,0,0,1-.64-1.65,2.56,2.56,0,0,1,.2-1,2.23,2.23,0,0,1,.56-.79,2.55,2.55,0,0,1,.9-.51,3.69,3.69,0,0,1,1.2-.18,4.35,4.35,0,0,1,1.48.22,3.58,3.58,0,0,1,1.17.75l-.82.81a2.1,2.1,0,0,0-.86-.52,3.64,3.64,0,0,0-1-.14,1.61,1.61,0,0,0-1.15.38,1.22,1.22,0,0,0-.4,1,1.27,1.27,0,0,0,.07.44.85.85,0,0,0,.24.35,1.83,1.83,0,0,0,.38.23,2.61,2.61,0,0,0,.56.15l1,.16a4.21,4.21,0,0,1,1,.24,2,2,0,0,1,.63.39A2.25,2.25,0,0,1,123,21.34Z"/><path class="cls-1" d="M127.64,16.39v7.38h-1.29V16.39H124V15.23h6v1.16Z"/><path class="cls-1" d="M141.32,23.77h-1.13l-1.74-6-1.73,6H135.6l-2.24-8.54h1.37l1.49,6.11,1.72-6.11h1l1.72,6.11,1.48-6.11h1.37Z"/><path class="cls-1" d="M150.51,19.5c0,.45,0,.84,0,1.18a4.77,4.77,0,0,1-.1.91,2.8,2.8,0,0,1-.25.74,2.64,2.64,0,0,1-.49.65,2.94,2.94,0,0,1-1,.64,3.66,3.66,0,0,1-2.5,0,2.94,2.94,0,0,1-1-.64,2.37,2.37,0,0,1-.48-.65,2.5,2.5,0,0,1-.26-.74,4.77,4.77,0,0,1-.1-.91c0-.34,0-.73,0-1.18s0-.84,0-1.18a4.77,4.77,0,0,1,.1-.91,2.5,2.5,0,0,1,.26-.74,2.37,2.37,0,0,1,.48-.65,2.94,2.94,0,0,1,1-.64,3.66,3.66,0,0,1,2.5,0,2.94,2.94,0,0,1,1,.64,2.64,2.64,0,0,1,.49.65,2.8,2.8,0,0,1,.25.74,4.77,4.77,0,0,1,.1.91C150.51,18.66,150.51,19.05,150.51,19.5Zm-1.29,0c0-.42,0-.78,0-1.07a6.25,6.25,0,0,0-.07-.73,1.84,1.84,0,0,0-.16-.5,1.5,1.5,0,0,0-.26-.36,1.79,1.79,0,0,0-2.54,0,1.37,1.37,0,0,0-.26.37,1.56,1.56,0,0,0-.15.5,4.25,4.25,0,0,0-.08.72c0,.29,0,.65,0,1.07s0,.78,0,1.06a4.51,4.51,0,0,0,.08.73,1.64,1.64,0,0,0,.15.5,1.5,1.5,0,0,0,.26.36,1.74,1.74,0,0,0,2.54,0,1.5,1.5,0,0,0,.26-.36,2,2,0,0,0,.16-.5,5.84,5.84,0,0,0,.07-.72C149.21,20.28,149.22,19.92,149.22,19.5Z"/><path class="cls-1" d="M158.67,23.77V18.06l-2,4.16h-1l-2-4.16v5.71h-1.3V15.23h1.3l2.49,5.31,2.45-5.31H160v8.54Z"/><path class="cls-1" d="M162.19,23.77V15.23h5.46v1.16h-4.17v2.5H167V20h-3.56v2.57h4.17v1.16Z"/><path class="cls-1" d="M174.67,23.77l-3.95-6v6h-1.29V15.23h1.18l3.95,6v-6h1.3v8.54Z"/></g></svg>