<svg xmlns="http://www.w3.org/2000/svg" viewBox="0 0 212 39"><defs><style>.cls-1{fill:#f2f2f2;}</style></defs><title>UB_women_off</title><g id="Layer_2" data-name="Layer 2"><rect class="cls-1" y="-0.5" width="212" height="40"/></g><g id="Layer_1" data-name="Layer 1"><path d="M26,22a6.52,6.52,0,0,1-.16,1.58,2.25,2.25,0,0,1-.62,1.09,2.83,2.83,0,0,1-1,.58,4.16,4.16,0,0,1-1.4.22,3.18,3.18,0,0,1-2.35-.8,2.39,2.39,0,0,1-.61-1,5.61,5.61,0,0,1-.17-1.56h1.9a3.48,3.48,0,0,0,.07.8,1.39,1.39,0,0,0,.27.56,1.33,1.33,0,0,0,.35.23,1.38,1.38,0,0,0,.54.09,1.11,1.11,0,0,0,.91-.34,1.24,1.24,0,0,0,.26-.54,4.15,4.15,0,0,0,.07-.8,5.77,5.77,0,0,0-.05-.8,1.19,1.19,0,0,0-.17-.54,1.16,1.16,0,0,0-.34-.36,2.41,2.41,0,0,0-.58-.29l-1.45-.6a3.58,3.58,0,0,1-.78-.42,2,2,0,0,1-.52-.59,3,3,0,0,1-.29-.84,6.79,6.79,0,0,1-.09-1.19A4,4,0,0,1,20.05,15a2.71,2.71,0,0,1,.74-1.1,3,3,0,0,1,.91-.53,3.24,3.24,0,0,1,1.16-.2,3.07,3.07,0,0,1,2.18.73A2.59,2.59,0,0,1,25.7,15a5.68,5.68,0,0,1,.19,1.52H24a5.23,5.23,0,0,0-.05-.73,1.06,1.06,0,0,0-.24-.56,1,1,0,0,0-.85-.36,1.14,1.14,0,0,0-.48.09,1,1,0,0,0-.33.25,1.76,1.76,0,0,0-.33,1.19,5.27,5.27,0,0,0,0,.63,1.09,1.09,0,0,0,.14.43,1.18,1.18,0,0,0,.31.32,2.3,2.3,0,0,0,.52.25l1.43.58a4.18,4.18,0,0,1,.9.49,2.1,2.1,0,0,1,.56.66,3.46,3.46,0,0,1,.29.94A9.67,9.67,0,0,1,26,22Z"/><path d="M31.9,25.34V20.05H29.54v5.29h-1.9V13.23h1.9v5.1H31.9v-5.1h1.91V25.34Z"/><path d="M42,19.29c0,.71,0,1.34,0,1.87a13.28,13.28,0,0,1-.11,1.42,4.67,4.67,0,0,1-.27,1.06,2.84,2.84,0,0,1-.48.8,3.27,3.27,0,0,1-.93.74,3.6,3.6,0,0,1-2.83,0,3.27,3.27,0,0,1-.93-.74,2.76,2.76,0,0,1-.48-.81,5.37,5.37,0,0,1-.26-1.05,13.28,13.28,0,0,1-.12-1.42c0-.53,0-1.16,0-1.87s0-1.34,0-1.88A12.85,12.85,0,0,1,35.67,16a5.3,5.3,0,0,1,.26-1.06,2.76,2.76,0,0,1,.48-.81,3.08,3.08,0,0,1,.93-.73,3.49,3.49,0,0,1,2.83,0,3.08,3.08,0,0,1,.93.73,2.84,2.84,0,0,1,.48.8A4.67,4.67,0,0,1,41.85,16,13.49,13.49,0,0,1,42,17.41C42,18,42,18.57,42,19.29Zm-1.9,0c0-1.11,0-2-.07-2.62a3.16,3.16,0,0,0-.34-1.4,1.23,1.23,0,0,0-.35-.33,1.2,1.2,0,0,0-.57-.13,1.12,1.12,0,0,0-.55.13,1.23,1.23,0,0,0-.35.33,3.31,3.31,0,0,0-.34,1.4c-.06.63-.08,1.51-.08,2.62s0,2,.08,2.61a3.31,3.31,0,0,0,.34,1.4,1.23,1.23,0,0,0,.35.33,1.12,1.12,0,0,0,.55.13,1.2,1.2,0,0,0,.57-.13,1.23,1.23,0,0,0,.35-.33A3.16,3.16,0,0,0,40,21.9C40.06,21.27,40.08,20.4,40.08,19.29Z"/><path d="M49.86,16.92a4.33,4.33,0,0,1-.74,2.79,2.91,2.91,0,0,1-2.38.88H45.61v4.75H43.7V13.23h3a2.88,2.88,0,0,1,2.38.9A4.33,4.33,0,0,1,49.86,16.92Zm-1.91,0a3.35,3.35,0,0,0-.25-1.44,1,1,0,0,0-1-.53H45.61v3.93h1.07a1,1,0,0,0,1-.52A3.35,3.35,0,0,0,48,16.92Z"/><path d="M60.62,22.36a3.54,3.54,0,0,1-.22,1.26,3,3,0,0,1-.62,1,3,3,0,0,1-2.24.88,3,3,0,0,1-2.26-.88,2.86,2.86,0,0,1-.61-1,3.33,3.33,0,0,1-.22-1.26V13.23h1.9v9.23a1.25,1.25,0,0,0,.35,1,1.17,1.17,0,0,0,.84.33,1.13,1.13,0,0,0,.83-.33,1.24,1.24,0,0,0,.34-1V13.23h1.91Z"/><path d="M62.55,25.34V13.23h1.91V23.62h3.18v1.72Z"/><path d="M71.48,15V25.34h-1.9V15h-2V13.23h6V15Z"/><path d="M79.45,25.34l-1.58-5H76.8v5H74.9V13.23H78a3,3,0,0,1,2.38.85,4.22,4.22,0,0,1,.71,2.72,5.71,5.71,0,0,1-.29,1.92A2.27,2.27,0,0,1,79.64,20l1.8,5.37Zm-.3-8.54a5.39,5.39,0,0,0-.05-.71,1.76,1.76,0,0,0-.16-.6.89.89,0,0,0-.35-.39A1.16,1.16,0,0,0,78,15H76.8v3.71H78a1.16,1.16,0,0,0,.62-.15.91.91,0,0,0,.35-.4,1.77,1.77,0,0,0,.16-.59A5.55,5.55,0,0,0,79.15,16.8Z"/><path d="M87.87,25.34l-.5-2.4h-2.8l-.48,2.4h-2l3-12.11h1.86l2.94,12.11ZM86,16.16l-1,5.06H87Z"/><path d="M97.15,21.87A6.58,6.58,0,0,1,97,23.54a2.39,2.39,0,0,1-1.56,1.61,4.5,4.5,0,0,1-1.43.19H91V13.23h3a4.77,4.77,0,0,1,1.42.18,2.21,2.21,0,0,1,.93.57,2.37,2.37,0,0,1,.59,1,5,5,0,0,1,.18,1.52A4.55,4.55,0,0,1,97,17.62a2.15,2.15,0,0,1-.85,1.19,2.74,2.74,0,0,1-.34.19,2.17,2.17,0,0,1,.66.44,2.07,2.07,0,0,1,.56,1A6.24,6.24,0,0,1,97.15,21.87Zm-1.94-5.29a1.94,1.94,0,0,0-.31-1.26A1.33,1.33,0,0,0,93.83,15h-1v3.28h1a1.31,1.31,0,0,0,1.07-.39A2,2,0,0,0,95.21,16.58Zm0,5.15a2.35,2.35,0,0,0-.35-1.45,1.3,1.3,0,0,0-1.1-.43h-.92v3.77h.92a1.32,1.32,0,0,0,1.1-.42A2.32,2.32,0,0,0,95.25,21.73Z"/><path d="M105.05,19.29c0,.71,0,1.34,0,1.87s-.06,1-.11,1.42a4.67,4.67,0,0,1-.27,1.06,2.84,2.84,0,0,1-.48.8,3.18,3.18,0,0,1-.94.74,3.07,3.07,0,0,1-1.41.29,3.13,3.13,0,0,1-1.41-.29,3.27,3.27,0,0,1-.93-.74,2.76,2.76,0,0,1-.48-.81,5.37,5.37,0,0,1-.26-1.05,13.28,13.28,0,0,1-.12-1.42c0-.53,0-1.16,0-1.87s0-1.34,0-1.88A12.85,12.85,0,0,1,98.74,16,5.3,5.3,0,0,1,99,14.94a2.76,2.76,0,0,1,.48-.81,3.08,3.08,0,0,1,.93-.73,3,3,0,0,1,1.41-.3,3,3,0,0,1,1.41.3,3,3,0,0,1,.94.73,2.84,2.84,0,0,1,.48.8,4.67,4.67,0,0,1,.27,1.06c0,.41.09.88.11,1.42S105.05,18.57,105.05,19.29Zm-1.9,0c0-1.11,0-2-.07-2.62a3.16,3.16,0,0,0-.34-1.4,1.23,1.23,0,0,0-.35-.33,1.2,1.2,0,0,0-.57-.13,1.12,1.12,0,0,0-.55.13,1.23,1.23,0,0,0-.35.33,3.44,3.44,0,0,0-.35,1.4c0,.63-.07,1.51-.07,2.62s0,2,.07,2.61a3.44,3.44,0,0,0,.35,1.4,1.23,1.23,0,0,0,.35.33,1.12,1.12,0,0,0,.55.13,1.2,1.2,0,0,0,.57-.13,1.23,1.23,0,0,0,.35-.33,3.16,3.16,0,0,0,.34-1.4C103.13,21.27,103.15,20.4,103.15,19.29Z"/><path d="M113,19.29c0,.71,0,1.34,0,1.87s-.06,1-.11,1.42a4.67,4.67,0,0,1-.27,1.06,3.09,3.09,0,0,1-.48.8,3.18,3.18,0,0,1-.94.74,3.07,3.07,0,0,1-1.41.29,3.13,3.13,0,0,1-1.41-.29,3.27,3.27,0,0,1-.93-.74,2.56,2.56,0,0,1-.48-.81,5.37,5.37,0,0,1-.26-1.05,9.54,9.54,0,0,1-.12-1.42c0-.53,0-1.16,0-1.87s0-1.34,0-1.88a9.28,9.28,0,0,1,.12-1.41,5.3,5.3,0,0,1,.26-1.06,2.56,2.56,0,0,1,.48-.81,3.08,3.08,0,0,1,.93-.73,3,3,0,0,1,1.41-.3,3,3,0,0,1,1.41.3,3,3,0,0,1,.94.73,3.09,3.09,0,0,1,.48.8,4.67,4.67,0,0,1,.27,1.06c0,.41.09.88.11,1.42S113,18.57,113,19.29Zm-1.9,0c0-1.11,0-2-.07-2.62a3.16,3.16,0,0,0-.34-1.4,1.15,1.15,0,0,0-.36-.33,1.13,1.13,0,0,0-.56-.13,1.12,1.12,0,0,0-.55.13,1.23,1.23,0,0,0-.35.33,3.29,3.29,0,0,0-.35,1.4c-.05.63-.07,1.51-.07,2.62s0,2,.07,2.61a3.29,3.29,0,0,0,.35,1.4,1.23,1.23,0,0,0,.35.33,1.12,1.12,0,0,0,.55.13,1.13,1.13,0,0,0,.56-.13,1.15,1.15,0,0,0,.36-.33,3.16,3.16,0,0,0,.34-1.4C111.07,21.27,111.09,20.4,111.09,19.29Z"/><path d="M120.56,22a6.47,6.47,0,0,1-.17,1.58,2.17,2.17,0,0,1-.62,1.09,2.65,2.65,0,0,1-1,.58,4.11,4.11,0,0,1-1.4.22,3.17,3.17,0,0,1-2.34-.8,2.41,2.41,0,0,1-.62-1,6,6,0,0,1-.17-1.56h1.91a3.48,3.48,0,0,0,.07.8,1,1,0,0,0,.62.79,1.36,1.36,0,0,0,.53.09,1.13,1.13,0,0,0,.92-.34,1.36,1.36,0,0,0,.26-.54,4.27,4.27,0,0,0,.06-.8,6,6,0,0,0,0-.8,1.32,1.32,0,0,0-.17-.54,1.2,1.2,0,0,0-.35-.36,2.41,2.41,0,0,0-.58-.29l-1.44-.6a3.17,3.17,0,0,1-.78-.42,1.83,1.83,0,0,1-.52-.59,2.67,2.67,0,0,1-.29-.84,6.79,6.79,0,0,1-.09-1.19,4.28,4.28,0,0,1,.24-1.47,2.82,2.82,0,0,1,.74-1.1,3.15,3.15,0,0,1,.91-.53,3.34,3.34,0,0,1,1.17-.2,3,3,0,0,1,2.17.73,2.41,2.41,0,0,1,.66,1.12,5.3,5.3,0,0,1,.19,1.52h-1.9a5.23,5.23,0,0,0,0-.73,1.24,1.24,0,0,0-.24-.56,1,1,0,0,0-.85-.36,1.19,1.19,0,0,0-.49.09,1,1,0,0,0-.33.25,1.82,1.82,0,0,0-.32,1.19,5.53,5.53,0,0,0,0,.63,1.09,1.09,0,0,0,.15.43,1,1,0,0,0,.3.32,2.53,2.53,0,0,0,.52.25l1.43.58a4.18,4.18,0,0,1,.9.49,1.87,1.87,0,0,1,.56.66,2.88,2.88,0,0,1,.29.94A8.15,8.15,0,0,1,120.56,22Z"/><path d="M125.4,15V25.34h-1.9V15h-2V13.23h6V15Z"/><path d="M140.63,25.34h-2l-1.73-9.2-1.72,9.2h-2l-2.29-12.11H133l1.19,9.18,1.67-9.18H138l1.69,9.18,1.17-9.18h2.09Z"/><path d="M150.48,19.29c0,.71,0,1.34,0,1.87a13.28,13.28,0,0,1-.11,1.42,4.7,4.7,0,0,1-.26,1.06,2.87,2.87,0,0,1-.49.8,3.27,3.27,0,0,1-.93.74,3.6,3.6,0,0,1-2.83,0,3.27,3.27,0,0,1-.93-.74,3,3,0,0,1-.48-.81,5.37,5.37,0,0,1-.26-1.05,13.28,13.28,0,0,1-.12-1.42c0-.53,0-1.16,0-1.87s0-1.34,0-1.88a12.85,12.85,0,0,1,.12-1.41,5.3,5.3,0,0,1,.26-1.06,3,3,0,0,1,.48-.81,3.08,3.08,0,0,1,.93-.73,3.49,3.49,0,0,1,2.83,0,3.08,3.08,0,0,1,.93.73,2.87,2.87,0,0,1,.49.8,4.7,4.7,0,0,1,.26,1.06,13.49,13.49,0,0,1,.11,1.42C150.47,18,150.48,18.57,150.48,19.29Zm-1.91,0c0-1.11,0-2-.07-2.62a3,3,0,0,0-.34-1.4,1.23,1.23,0,0,0-.35-.33,1.19,1.19,0,0,0-.56-.13,1.13,1.13,0,0,0-.56.13,1.19,1.19,0,0,0-.34.33,3.15,3.15,0,0,0-.35,1.4c-.05.63-.08,1.51-.08,2.62s0,2,.08,2.61a3.15,3.15,0,0,0,.35,1.4,1.19,1.19,0,0,0,.34.33,1.13,1.13,0,0,0,.56.13,1.19,1.19,0,0,0,.56-.13,1.23,1.23,0,0,0,.35-.33,3,3,0,0,0,.34-1.4C148.55,21.27,148.57,20.4,148.57,19.29Z"/><path d="M158.41,25.34V17.79l-1.64,5h-1.06l-1.61-4.88v7.47h-1.91V13.23h1.72l2.35,6.36,2.32-6.36h1.74V25.34Z"/><path d="M162.36,25.34V13.23h5.08V15h-3.18v3.43H167V20.1h-2.74v3.52h3.18v1.72Z"/><path d="M173.85,25.34,171,18.15v7.19h-1.9V13.23h1.7l2.84,7.19V13.23h1.9V25.34Z"/><polygon points="184.52 26.56 182.15 23.96 187.06 19.5 182.15 15.04 184.52 12.44 192.3 19.5 184.52 26.56"/></g></svg>